<?xml version="1.0" standalone="no"?>
<!DOCTYPE svg PUBLIC "-//W3C//DTD SVG 20010904//EN"
 "http://www.w3.org/TR/2001/REC-SVG-20010904/DTD/svg10.dtd">
<svg version="1.0" xmlns="http://www.w3.org/2000/svg"
 width="800.000000pt" height="558.000000pt" viewBox="0 0 800.000000 558.000000"
 preserveAspectRatio="xMidYMid meet">

<g transform="translate(0.000000,558.000000) scale(0.100000,-0.100000)"
fill="#000000" stroke="none">
<path d="M4210 5265 c-30 -8 -78 -14 -105 -15 -59 0 -145 -24 -298 -81 -429
-161 -675 -303 -856 -495 -40 -44 -93 -99 -116 -124 -44 -46 -110 -88 -121
-77 -4 4 6 32 21 64 20 40 57 86 122 150 l94 93 -78 -36 c-95 -43 -251 -160
-305 -227 -51 -65 -114 -173 -144 -244 l-23 -58 -133 3 c-130 4 -424 -17 -543
-38 -194 -35 -627 -182 -776 -264 -79 -43 -208 -146 -310 -246 -42 -41 -88
-86 -103 -99 -21 -18 -26 -31 -25 -65 l2 -41 6 42 c4 23 13 48 19 56 19 22 59
29 85 15 12 -7 25 -11 29 -10 5 1 7 -3 5 -10 -1 -7 19 -24 45 -38 27 -14 48
-29 48 -34 0 -4 12 -23 28 -42 15 -18 37 -47 50 -63 25 -33 52 -32 52 1 0 12
5 18 13 15 8 -3 12 6 13 27 2 40 15 96 23 96 3 0 19 11 34 25 30 28 35 60 12
68 -16 7 -117 -10 -155 -26 -14 -5 -49 -10 -77 -11 -49 -1 -53 1 -58 26 -7 32
0 48 21 48 8 0 14 4 14 9 0 5 15 18 33 30 17 11 40 26 50 33 14 11 19 10 26
-1 7 -11 12 -10 27 8 10 11 26 21 36 21 10 0 18 6 18 13 0 7 9 23 20 35 24 25
27 40 5 22 -13 -10 -18 -11 -28 -1 -7 7 -7 11 -2 10 6 -2 21 3 34 10 19 11 21
15 10 23 -10 7 -6 8 13 4 26 -6 42 5 43 29 0 6 8 9 18 9 9 -1 15 2 12 6 -3 4
4 10 15 13 11 3 23 1 26 -4 9 -16 28 -10 64 21 27 24 42 29 65 25 17 -3 24 -2
16 1 -18 8 54 43 89 44 20 0 22 2 10 10 -13 8 -12 10 3 10 10 0 25 -7 33 -15
20 -19 58 -5 62 24 2 11 10 21 19 21 13 0 13 3 3 15 -8 9 -9 15 -2 15 6 0 14
-4 17 -10 10 -17 25 -11 18 7 -5 13 -2 15 15 11 12 -4 22 -3 22 0 0 4 20 7 45
7 35 0 48 5 61 23 17 25 34 29 34 8 0 -12 5 -12 30 -3 16 6 27 13 24 16 -6 6
92 30 121 30 l20 0 -20 -9 c-18 -8 -18 -9 6 -9 14 -1 31 5 38 12 11 10 14 10
18 0 3 -7 11 -13 19 -13 8 0 14 6 14 13 0 9 2 9 8 0 8 -13 101 -11 122 2 6 3
30 6 53 5 60 -3 69 -1 62 10 -3 6 6 11 22 12 91 5 293 -11 293 -23 0 -6 5 -7
11 -3 18 11 169 -39 170 -56 0 -10 2 -11 6 -2 6 16 23 15 23 -2 0 -7 10 -16
23 -20 32 -8 39 -7 32 4 -9 14 -10 15 111 -34 182 -74 189 -77 174 -86 -7 -5
-22 -7 -32 -5 -25 5 -23 -4 10 -31 26 -23 90 -34 77 -14 -7 12 39 24 61 16 8
-3 12 -11 8 -17 -4 -8 -3 -9 5 -5 6 4 27 2 46 -4 31 -10 35 -15 35 -46 0 -21
4 -33 10 -29 6 3 10 15 10 25 0 24 11 20 146 -46 50 -24 95 -44 101 -44 6 0
16 -7 23 -15 10 -12 8 -14 -9 -10 -12 2 -21 0 -21 -4 0 -13 48 -19 59 -8 8 8
11 7 11 -2 0 -7 4 -10 8 -7 5 3 31 -6 58 -19 39 -19 45 -25 31 -31 -10 -3 -16
-12 -14 -18 6 -16 -19 -50 -31 -42 -9 5 -37 -43 -29 -51 2 -2 20 12 39 32 l34
35 22 -20 c12 -12 22 -28 22 -36 0 -9 5 -12 13 -8 9 6 9 4 1 -7 -6 -8 -15 -25
-19 -39 l-8 -25 22 25 21 25 -4 -62 c-2 -35 0 -63 4 -63 13 0 17 22 15 83 -1
31 2 57 6 57 3 0 9 9 12 20 4 16 2 18 -13 10 -29 -16 -35 -12 -37 23 -2 17 -9
37 -18 43 -53 39 56 -5 116 -47 14 -10 37 -21 51 -24 19 -5 24 -11 21 -26 -4
-14 0 -19 13 -19 16 0 16 2 4 10 -23 15 -3 24 27 12 15 -6 41 -16 56 -22 l28
-10 -25 -33 c-28 -37 -32 -47 -16 -47 6 0 10 6 10 14 0 16 27 29 32 16 2 -6 9
-6 18 0 12 7 10 11 -9 18 -20 7 -21 10 -8 15 17 6 215 -66 232 -85 7 -8 6 -9
-4 -3 -9 5 -12 4 -7 -3 4 -6 13 -9 21 -6 12 5 61 -18 194 -94 41 -23 43 -26
26 -38 -10 -8 -16 -16 -13 -20 3 -3 0 -17 -8 -32 -15 -30 -8 -47 8 -18 8 15
12 16 19 5 11 -19 18 -8 21 34 2 20 4 37 6 37 8 0 122 -81 128 -91 4 -7 3 -9
-3 -6 -8 5 -23 -12 -23 -27 0 -1 12 -3 26 -4 20 -1 25 2 20 14 -7 18 59 -17
124 -65 19 -14 50 -35 69 -45 40 -22 63 -40 104 -79 16 -15 32 -25 35 -22 3 3
15 -1 26 -9 54 -35 309 -167 358 -186 30 -11 74 -22 97 -25 23 -2 65 -9 94
-15 78 -16 246 -27 392 -25 140 2 132 0 400 86 83 26 167 51 188 54 21 4 36
10 33 12 -8 8 -99 -16 -241 -63 -225 -74 -246 -77 -487 -71 -200 4 -306 16
-431 48 -33 9 -37 12 -26 25 22 26 102 61 157 68 73 9 185 52 259 98 61 38
128 108 231 239 55 71 211 224 295 290 73 58 140 89 211 98 51 6 32 8 -116 15
-98 4 -206 12 -240 17 -35 5 -96 9 -137 9 -62 0 -85 5 -139 31 l-64 30 22 24
c12 13 37 25 54 27 17 2 -23 7 -89 12 -66 5 -126 13 -133 18 -6 6 -26 8 -42 4
-49 -9 -33 7 41 42 39 19 69 35 67 36 -8 7 -206 -15 -230 -25 -22 -9 -30 -8
-43 5 -9 8 -31 18 -51 22 -26 5 -32 9 -24 19 5 6 7 14 4 18 -8 7 50 37 73 37
17 1 17 1 -1 11 -20 13 -95 6 -203 -16 -65 -14 -68 -13 -90 7 -13 12 -22 27
-20 32 4 13 -26 36 -67 55 -21 8 -52 10 -102 6 -126 -12 -89 18 61 49 11 2 2
4 -20 4 -22 1 -60 -3 -84 -7 -42 -9 -158 10 -171 27 -17 23 -74 48 -135 57
l-70 12 35 16 c19 8 50 21 69 28 l35 13 -30 8 c-16 5 -67 8 -114 7 -188 -3
-193 -2 -172 24 14 16 106 44 174 52 49 6 68 19 43 28 -7 3 -69 9 -137 13
-101 5 -146 2 -248 -15 -69 -11 -145 -21 -170 -21 -38 0 -42 2 -30 14 8 8 65
33 125 56 61 22 164 68 231 101 112 55 128 60 215 68 l94 8 -100 4 c-235 9
-362 -4 -529 -53 -56 -16 -148 -43 -206 -59 -58 -16 -130 -38 -162 -50 -47
-17 -60 -19 -80 -8 -22 12 -22 13 27 35 28 12 87 32 130 44 44 12 142 49 217
81 161 69 446 173 503 183 22 4 68 21 102 37 34 17 90 36 125 44 l63 15 -90
-5 c-282 -16 -721 -98 -920 -172 -84 -32 -238 -107 -319 -157 -57 -34 -76 -42
-76 -31 0 2 47 42 105 88 189 150 389 254 678 354 71 24 156 58 190 75 82 41
181 78 242 90 28 5 82 15 120 23 88 16 72 17 -80 5 -239 -20 -448 -73 -808
-204 -332 -121 -520 -217 -672 -345 -49 -41 -90 -60 -102 -47 -10 9 183 201
288 287 226 183 501 350 635 383 64 16 206 57 264 76 40 13 0 10 -60 -5z
m-872 -470 c-7 -8 -48 -15 -48 -9 0 6 44 23 49 18 2 -2 2 -6 -1 -9z m1082 -5
c-14 -4 -38 -8 -55 -8 l-30 0 30 8 c17 4 41 8 55 8 l25 0 -25 -8z m-196 -41
c-3 -5 -11 -9 -19 -9 -8 0 -16 4 -19 9 -3 5 5 9 19 9 14 0 22 -4 19 -9z m-117
-25 c-3 -3 -12 -4 -19 -1 -8 3 -5 6 6 6 11 1 17 -2 13 -5z m-992 -133 c-3 -6
-16 -16 -28 -22 -21 -11 -21 -10 2 15 23 25 40 29 26 7z m71 -83 c0 -10 -4
-18 -8 -18 -4 0 -8 5 -8 10 0 6 -4 10 -10 10 -5 0 -9 -3 -9 -7 4 -27 -4 -45
-26 -55 -14 -6 -25 -17 -25 -25 0 -7 -4 -13 -9 -13 -5 0 -11 -7 -14 -14 -4
-10 -1 -13 8 -10 11 5 12 0 5 -25 -6 -21 -5 -33 3 -38 6 -3 13 -1 15 5 2 7 8
12 14 12 6 0 32 18 58 40 55 46 60 48 60 20 0 -13 -10 -25 -28 -33 -18 -7 -27
-18 -24 -26 3 -10 0 -12 -12 -8 -10 4 -14 3 -11 -3 6 -10 -15 -39 -57 -78 -16
-14 -28 -30 -28 -36 0 -15 -42 -56 -58 -56 -8 0 -12 -6 -8 -15 7 -18 -5 -20
-23 -2 -11 10 -13 9 -8 -5 4 -11 0 -19 -14 -23 -14 -5 -18 -12 -13 -29 7 -27
-11 -37 -43 -25 -27 10 -29 30 -6 66 13 19 14 28 5 31 -14 4 -16 38 -2 47 6 3
10 17 10 29 0 13 11 35 25 50 14 15 25 30 25 34 0 4 14 22 30 40 16 19 32 42
35 53 4 10 11 19 17 19 6 0 24 12 39 27 22 23 24 29 12 38 -12 9 -10 11 8 12
12 1 26 6 32 12 15 15 43 9 43 -11z m104 2 c0 -5 -4 -10 -10 -10 -5 0 -10 5
-10 10 0 6 5 10 10 10 6 0 10 -4 10 -10z m-30 -16 c0 -8 -5 -12 -10 -9 -13 8
-37 -16 -34 -33 1 -7 0 -8 -3 -2 -2 5 -9 8 -14 4 -19 -12 -8 8 19 31 32 29 42
31 42 9z m150 -78 c0 -18 30 -30 44 -16 17 17 48 12 44 -7 -2 -11 -12 -18 -26
-17 -12 0 -22 -3 -22 -8 0 -4 -5 -8 -11 -8 -6 0 -30 -16 -53 -35 -24 -19 -47
-31 -51 -27 -5 4 -1 -6 10 -23 11 -19 13 -26 4 -19 -15 12 -51 15 -44 4 4 -7
-27 -54 -45 -70 -3 -3 -13 -17 -23 -32 -13 -22 -14 -26 -2 -22 12 5 12 0 5
-27 -5 -18 -7 -43 -4 -55 3 -13 2 -29 -2 -36 -5 -7 -9 -16 -10 -20 -1 -5 -2
-11 -3 -14 0 -3 -8 2 -17 10 -8 9 -22 16 -30 16 -8 0 -14 8 -14 18 0 14 -2 15
-10 2 -14 -21 -12 -60 2 -60 6 0 8 -3 5 -6 -4 -4 -12 -2 -19 3 -7 6 -35 18
-63 27 -47 16 -107 45 -94 46 4 0 26 -7 50 -15 34 -12 44 -13 51 -3 4 7 8 9 8
4 0 -5 11 4 25 20 18 21 21 30 12 36 -9 6 -8 11 4 21 9 7 29 37 45 67 40 77
63 110 135 190 58 65 99 89 99 56z m362 -14 c-35 -31 -39 -42 -18 -42 8 0 16
-5 18 -11 2 -6 16 -12 31 -12 15 -1 27 -8 27 -16 0 -10 10 -12 38 -9 32 5 38
3 39 -14 1 -10 -6 -24 -17 -30 -10 -7 -16 -18 -13 -27 4 -10 0 -9 -10 4 l-16
20 -6 -20 c-12 -37 -22 -50 -41 -54 -10 -2 -25 -8 -33 -14 -8 -7 -24 -10 -37
-9 -20 3 -24 -1 -24 -23 0 -22 -4 -26 -20 -22 -11 3 -18 1 -15 -3 3 -5 -3 -13
-12 -19 -15 -9 -16 -12 -4 -20 9 -6 22 -6 32 0 22 11 29 11 29 0 0 -5 -9 -11
-20 -14 -11 -3 -20 -10 -20 -15 0 -6 13 -4 30 4 28 14 29 19 24 53 -4 25 -2
41 6 46 9 5 10 2 6 -12 -5 -15 -2 -19 13 -18 11 1 27 7 36 15 13 11 13 15 3
22 -9 6 -6 7 8 3 14 -4 24 0 27 10 4 8 12 12 19 10 7 -3 31 11 52 30 44 39 51
42 43 21 -4 -10 -1 -13 9 -9 7 3 14 14 14 25 0 11 8 22 20 25 10 3 22 13 25
22 4 15 19 18 91 18 83 1 112 -9 37 -12 -29 -1 -38 -5 -37 -18 1 -9 -2 -18 -7
-18 -5 -1 -13 -3 -19 -4 -5 -1 -17 -3 -25 -4 -8 0 -12 -7 -9 -14 3 -8 1 -24
-4 -38 -12 -30 -13 -39 -7 -39 12 1 35 -30 35 -47 0 -14 2 -15 9 -5 7 11 9 11
14 -2 4 -9 18 -16 33 -16 l26 0 -23 -21 -24 -20 32 17 c17 9 29 23 26 30 -6
15 100 66 130 62 18 -3 19 -5 6 -18 -36 -37 -89 -104 -89 -112 0 -12 40 1 58
18 16 17 32 18 32 3 0 -8 4 -8 14 0 8 7 12 19 10 29 -3 11 5 21 22 29 15 7 30
11 32 8 8 -7 -8 -55 -18 -55 -13 0 -50 -32 -50 -43 0 -4 5 -5 10 -2 6 3 10 2
10 -3 0 -15 -12 -22 -24 -14 -17 11 -76 8 -75 -3 4 -37 -2 -47 -24 -42 -12 4
-29 2 -37 -3 -13 -8 -13 -11 -1 -22 11 -10 14 -10 18 0 3 6 9 12 15 12 7 0 7
-5 -1 -13 -8 -11 -6 -18 9 -32 18 -17 20 -16 57 19 21 20 43 36 49 36 6 0 19
9 29 20 24 27 105 71 116 64 15 -9 10 -24 -7 -24 -8 0 -12 -5 -9 -11 5 -7 14
-4 26 7 11 9 22 14 26 10 4 -4 -10 -22 -32 -41 -31 -26 -37 -36 -28 -46 9 -9
8 -15 -3 -27 -16 -16 -15 -63 1 -69 6 -2 29 13 50 32 22 20 65 49 97 65 48 25
58 27 68 15 7 -8 19 -15 27 -15 8 0 -7 -20 -34 -45 -88 -82 -113 -109 -108
-113 2 -3 11 1 20 8 30 25 15 -9 -25 -55 -62 -71 -48 -64 38 20 61 60 74 78
62 85 -12 8 -12 10 2 15 29 11 53 1 56 -25 2 -14 9 -31 14 -38 6 -7 9 -14 7
-15 -2 -2 -25 -20 -51 -41 -30 -24 -54 -36 -64 -32 -10 4 -14 2 -11 -6 2 -7
-8 -31 -23 -53 -15 -22 -39 -62 -55 -90 l-28 -50 56 58 c60 60 75 70 57 37
-22 -41 10 -18 72 51 56 63 98 95 120 91 4 -1 31 14 60 33 29 19 57 35 63 35
5 0 4 -4 -4 -9 -9 -6 -10 -11 -3 -15 6 -4 19 5 28 19 19 29 34 33 34 8 0 -14
2 -15 9 -4 6 9 11 10 15 2 4 -6 4 -15 1 -21 -9 -14 1 -13 35 5 25 13 29 13 34
-1 3 -8 11 -14 18 -13 7 1 23 1 35 0 20 -1 21 -4 11 -26 -6 -13 -16 -23 -22
-22 -7 1 -10 -11 -8 -33 2 -29 -2 -38 -28 -55 -16 -11 -30 -23 -30 -27 0 -4
-7 -14 -16 -23 -9 -9 -13 -19 -10 -23 4 -3 10 -2 14 3 22 29 93 88 109 90 28
3 83 26 83 35 0 4 9 10 21 13 12 3 18 10 14 16 -3 6 -1 11 5 11 6 0 8 5 5 10
-3 6 2 13 12 17 10 3 37 20 60 36 58 41 77 25 25 -22 -33 -31 -39 -41 -35 -68
5 -29 7 -31 24 -20 16 10 21 9 29 -3 6 -9 10 -10 10 -3 0 7 7 10 14 7 8 -3 32
8 53 25 40 32 96 49 87 27 -3 -7 -19 -21 -36 -31 -36 -21 -83 -60 -107 -89 -9
-11 -28 -33 -43 -49 -29 -31 -35 -43 -18 -32 6 3 10 1 10 -6 0 -7 13 -1 28 14
15 15 33 27 40 27 7 0 12 3 12 8 0 4 10 13 21 21 27 16 41 -1 32 -38 -5 -19
-3 -23 9 -19 8 4 21 2 29 -3 11 -7 10 -11 -7 -24 -12 -8 -27 -28 -32 -44 -10
-27 -9 -30 11 -28 12 1 27 7 32 15 6 7 18 10 28 6 21 -8 22 -18 1 -35 -15 -12
-16 -11 -10 11 6 22 5 23 -4 7 -22 -35 -19 -65 7 -70 13 -2 26 0 29 4 3 5 -2
9 -10 9 -22 0 -20 17 3 30 25 13 41 13 21 0 -8 -5 -10 -10 -4 -10 6 0 23 12
37 26 21 21 29 23 46 15 13 -7 22 -8 26 -1 3 5 11 10 18 10 21 0 -27 -27 -60
-35 -18 -3 -33 -13 -33 -20 0 -9 -6 -12 -17 -8 -13 5 -15 2 -9 -12 4 -13 -2
-27 -21 -47 -21 -22 -24 -31 -15 -40 8 -8 12 -8 12 -1 0 6 7 14 16 17 8 3 12
2 9 -4 -3 -6 3 -10 14 -10 24 0 28 -18 6 -26 -8 -4 -15 -13 -15 -21 0 -12 10
-9 44 11 25 14 54 26 65 26 27 0 27 -26 1 -42 -26 -16 -26 -31 0 -23 10 3 32
-1 47 -9 l28 -14 -28 -11 c-15 -6 -30 -18 -34 -26 -3 -9 -12 -14 -20 -11 -9 4
-17 -1 -20 -13 -3 -12 -11 -17 -19 -14 -8 3 -14 0 -14 -5 0 -6 -9 -13 -20 -17
-11 -3 -19 -10 -17 -15 1 -5 -5 -15 -13 -22 -8 -7 -13 -12 -11 -11 2 2 10 -2
18 -8 10 -9 17 -8 28 1 9 7 13 15 11 18 -9 8 24 33 35 26 6 -3 35 18 65 50 30
31 54 54 54 51 0 -15 38 17 43 35 5 20 4 20 -18 6 -20 -13 -29 -13 -59 -3
l-35 12 25 24 c19 18 23 19 17 5 -6 -17 -5 -17 17 -1 14 9 37 17 53 17 16 0
26 4 22 10 -10 17 35 11 53 -7 9 -9 16 -19 15 -22 -2 -3 4 -6 11 -6 8 0 18 -4
22 -8 4 -4 -2 -7 -14 -7 -12 0 -22 -4 -22 -10 0 -5 5 -10 12 -10 9 0 9 -3 0
-12 -13 -13 1 -38 21 -38 6 0 8 3 4 6 -7 7 29 44 43 44 6 0 10 -5 10 -12 0 -6
2 -9 5 -6 9 8 -6 38 -16 32 -5 -3 -9 0 -9 5 0 6 11 11 24 11 21 0 44 26 33 37
-6 5 -37 -8 -37 -16 0 -13 -37 -5 -54 11 -27 28 -19 44 20 39 12 -1 31 18 34
34 1 6 10 9 21 8 12 -2 19 3 19 13 0 11 6 14 21 9 12 -4 19 -3 16 2 -3 5 3 9
14 9 20 0 23 -5 13 -30 -3 -9 -10 -13 -15 -10 -5 3 -9 0 -9 -5 0 -6 -10 -21
-22 -33 -14 -14 -18 -23 -10 -26 7 -2 9 -9 6 -14 -4 -7 -2 -8 4 -4 6 4 9 13 5
21 -4 11 0 14 13 9 11 -4 16 -3 12 1 -5 5 6 17 24 28 22 13 28 21 19 27 -10 6
-10 9 -1 15 7 4 16 1 21 -6 7 -9 7 -5 3 14 -4 17 -2 27 5 27 6 0 11 5 11 11 0
5 -4 7 -10 4 -6 -3 -7 1 -4 9 3 9 11 16 16 16 6 0 18 8 27 18 9 10 24 21 33
25 9 3 21 15 27 26 9 16 7 21 -9 26 -11 3 -20 13 -20 21 0 11 -14 14 -62 12
-35 -2 -67 -7 -71 -13 -6 -7 -10 -6 -13 0 -2 6 -21 9 -42 7 -34 -4 -36 -3 -22
12 13 16 11 17 -23 11 -25 -5 -37 -4 -37 4 0 16 131 14 236 -5 49 -8 105 -13
125 -10 42 7 129 -3 129 -14 0 -4 -11 -11 -25 -14 -30 -8 -240 -181 -311 -257
-27 -30 -70 -81 -94 -114 -24 -33 -80 -96 -124 -141 -93 -93 -163 -132 -296
-165 -47 -11 -103 -26 -125 -32 -22 -6 -46 -11 -53 -10 -7 0 -11 -1 -8 -4 3
-3 -8 -16 -24 -29 l-29 -25 -48 23 c-26 12 -49 26 -51 30 -2 4 -8 8 -14 8 -9
0 -119 61 -238 132 -62 38 -384 250 -415 275 -16 13 -34 27 -40 31 -5 4 -39
23 -75 41 -36 19 -116 60 -177 92 -62 33 -121 59 -130 59 -16 0 -16 2 -3 11
12 9 11 10 -5 4 -24 -8 -217 73 -208 88 3 5 8 5 12 0 3 -5 14 -1 24 9 9 10 15
18 12 18 -3 0 3 10 15 22 11 12 18 24 15 27 -3 2 -11 -2 -18 -11 -15 -19 -47
-31 -47 -18 0 6 5 10 11 10 6 0 9 9 6 19 -2 10 0 25 5 32 8 11 9 10 4 -3 -3
-10 -1 -18 3 -18 5 0 11 6 14 13 3 9 7 9 20 -2 10 -7 17 -9 17 -4 0 5 8 18 18
29 37 41 73 94 63 94 -5 0 -13 -5 -16 -10 -4 -6 -11 -8 -16 -4 -6 3 -19 -2
-30 -12 -15 -13 -18 -25 -13 -47 4 -20 3 -27 -5 -23 -6 4 -11 14 -11 23 0 9
-6 13 -15 9 -8 -3 -15 -2 -15 1 0 14 53 83 64 83 6 0 3 5 -7 11 -10 6 -21 8
-24 5 -4 -3 -1 -6 6 -6 7 0 9 -4 6 -10 -3 -5 -17 -10 -31 -10 -19 0 -24 -5
-24 -24 0 -14 -5 -28 -11 -32 -8 -4 -7 -9 2 -15 11 -7 10 -9 -3 -9 -9 0 -19 6
-21 13 -4 8 -8 9 -14 1 -4 -6 -15 -14 -23 -18 -8 -3 -5 -4 8 -2 14 3 22 -1 22
-10 0 -8 -5 -14 -12 -14 -6 0 -3 -9 8 -21 18 -20 18 -21 -1 -35 -10 -8 -22
-14 -27 -14 -12 0 -10 18 3 22 7 2 3 13 -8 27 l-20 24 1 -35 c1 -26 -2 -34
-12 -31 -7 3 -19 -2 -25 -11 -11 -16 -23 -12 -130 44 -65 33 -125 66 -133 73
-46 38 -45 35 -19 87 14 27 29 51 35 55 6 4 8 11 5 16 -4 5 -2 9 3 9 5 0 12 9
15 20 7 26 3 25 -26 -3 -12 -13 -21 -30 -19 -38 5 -15 4 -14 -18 15 -13 18
-13 19 0 11 13 -7 13 -6 1 6 -10 10 -15 11 -18 2 -2 -7 -12 -9 -21 -6 -12 4
-10 0 6 -14 25 -23 29 -43 7 -43 -8 0 -15 -6 -16 -12 -2 -20 -17 34 -18 64 -1
15 6 33 14 41 8 8 11 17 8 20 -9 9 23 37 44 38 10 0 13 3 6 6 -17 6 -16 23 1
23 7 0 16 9 19 20 4 16 2 18 -12 10 -12 -6 -22 -5 -30 3 -9 9 -6 16 11 29 17
13 19 18 8 18 -22 0 -60 -29 -60 -45 0 -8 -8 -19 -17 -24 -11 -6 -13 -11 -5
-11 9 0 8 -6 -3 -24 -11 -16 -13 -26 -6 -31 6 -3 11 1 11 9 0 9 4 16 9 16 9 0
5 -16 -15 -72 -7 -19 -24 -25 -24 -8 0 6 -4 10 -10 10 -18 0 -10 -17 13 -28
20 -10 21 -11 2 -11 -17 -1 -17 -3 -5 -11 11 -7 11 -10 2 -10 -7 0 -11 -4 -7
-10 8 -14 -17 -50 -36 -50 -9 0 -31 7 -50 16 -118 56 -178 88 -175 92 2 2 14
-2 26 -8 31 -17 62 -5 83 31 20 36 22 59 5 59 -7 0 2 14 20 30 17 16 32 35 32
41 0 7 -11 0 -24 -16 -13 -15 -28 -26 -34 -24 -12 4 38 64 59 71 8 3 2 7 -13
10 -23 4 -28 2 -28 -13 0 -11 -4 -19 -10 -19 -11 0 -3 26 20 60 10 14 15 31
12 39 -2 7 12 28 33 46 20 19 35 40 32 47 -7 19 22 48 41 41 10 -4 14 -3 10 1
-4 5 -1 14 5 21 10 11 15 7 27 -20 l15 -34 39 20 c22 10 41 17 43 15 2 -1 -6
-15 -18 -29 -11 -15 -16 -27 -10 -27 11 0 81 82 81 96 0 7 98 47 129 53 3 1
-10 -12 -27 -27z m-116 -13 c3 -6 2 -15 -3 -20 -5 -5 -14 0 -21 11 -10 17 -10
20 2 20 8 0 18 -5 22 -11z m-92 -38 c3 -5 -3 -11 -13 -14 -14 -3 -18 -1 -14 9
6 16 19 18 27 5z m876 -121 c0 -5 -4 -10 -10 -10 -5 0 -10 5 -10 10 0 6 5 10
10 10 6 0 10 -4 10 -10z m227 -6 c-3 -3 -12 -4 -19 -1 -8 3 -5 6 6 6 11 1 17
-2 13 -5z m-257 -8 c0 -2 -7 -7 -16 -10 -8 -3 -12 -2 -9 4 6 10 25 14 25 6z
m-630 -66 c0 -5 -5 -10 -11 -10 -5 0 -7 5 -4 10 3 6 8 10 11 10 2 0 4 -4 4
-10z m-496 -25 c-4 -8 -11 -12 -16 -9 -6 4 -5 10 3 15 19 12 19 11 13 -6z
m397 -38 c-10 -9 -11 -8 -5 6 3 10 9 15 12 12 3 -3 0 -11 -7 -18z m634 -7 c3
-5 1 -10 -4 -10 -6 0 -11 5 -11 10 0 6 2 10 4 10 3 0 8 -4 11 -10z m592 -16
c-3 -3 -12 -4 -19 -1 -8 3 -5 6 6 6 11 1 17 -2 13 -5z m261 -89 c-3 -3 -9 2
-12 12 -6 14 -5 15 5 6 7 -7 10 -15 7 -18z m-1974 -17 c-3 -4 0 -8 7 -8 7 0
10 -2 7 -5 -12 -13 -36 7 -31 26 4 15 8 17 14 8 4 -7 5 -17 3 -21z m2023 -54
c-3 -3 -12 -4 -19 -1 -8 3 -5 6 6 6 11 1 17 -2 13 -5z m40 0 c-3 -3 -12 -4
-19 -1 -8 3 -5 6 6 6 11 1 17 -2 13 -5z m-4267 -20 c0 -8 -5 -12 -10 -9 -6 4
-8 11 -5 16 9 14 15 11 15 -7z m4442 -31 c-6 -2 -9 -10 -6 -15 4 -7 2 -8 -4
-4 -18 11 -14 26 6 25 10 0 12 -3 4 -6z m-1923 -51 c14 -10 13 -11 -7 -4 -13
4 -23 11 -23 15 1 4 1 13 2 20 0 7 3 6 6 -3 4 -8 13 -21 22 -28z m2154 31
c-13 -2 -33 -2 -45 0 -13 2 -3 4 22 4 25 0 35 -2 23 -4z m-108 -15 c-11 -6
-24 -16 -30 -22 -18 -21 -85 -58 -80 -44 7 18 96 78 115 78 11 -1 10 -4 -5
-12z m-695 -9 c0 -10 -27 -19 -34 -12 -12 12 -5 22 14 20 11 -1 20 -4 20 -8z
m-773 -61 c-3 -7 -5 -2 -5 12 0 14 2 19 5 13 2 -7 2 -19 0 -25z m1623 23 c0
-13 -27 -21 -46 -14 -13 5 -13 7 -2 14 17 11 48 11 48 0z m-300 -52 c0 -6 -4
-7 -10 -4 -5 3 -10 11 -10 16 0 6 5 7 10 4 6 -3 10 -11 10 -16z m-280 -9 c0
-5 -4 -10 -10 -10 -5 0 -10 5 -10 10 0 6 5 10 10 10 6 0 10 -4 10 -10z m715
-40 c-3 -5 -14 -10 -23 -9 -14 0 -13 2 3 9 27 11 27 11 20 0z m90 -21 c5 -6 3
-9 -5 -9 -27 0 -60 12 -60 21 0 11 50 1 65 -12z m-2011 -34 c-4 -8 -1 -15 7
-15 7 0 10 -2 7 -5 -3 -3 -13 -3 -22 1 -13 5 -14 9 -5 20 15 18 20 18 13 -1z
m1860 -51 c5 -14 4 -15 -9 -4 -17 14 -19 20 -6 20 5 0 12 -7 15 -16z m416 1
c0 -8 -5 -15 -11 -15 -7 0 -35 -15 -63 -33 -28 -19 -67 -40 -86 -47 -19 -8
-38 -19 -42 -24 -5 -7 -8 -4 -8 6 0 9 5 20 10 23 6 4 8 15 5 25 -4 13 1 22 14
29 33 18 48 12 22 -9 -13 -11 -19 -20 -14 -20 18 0 84 36 77 42 -3 4 2 5 13 2
10 -2 32 4 48 15 37 24 35 24 35 6z m-480 -49 c0 -9 -30 -14 -35 -6 -4 6 3 10
14 10 12 0 21 -2 21 -4z m260 -24 c0 -12 -23 -32 -37 -32 -11 0 -11 4 -1 20
13 20 38 28 38 12z m-5093 -74 c-3 -8 -6 -5 -6 6 -1 11 2 17 5 13 3 -3 4 -12
1 -19z m4927 -27 c3 -5 -1 -11 -9 -14 -9 -4 -12 -1 -8 9 6 16 10 17 17 5z m41
-11 c3 -5 -1 -10 -9 -10 -9 0 -16 5 -16 10 0 6 4 10 9 10 6 0 13 -4 16 -10z
m-205 -15 c-7 -9 -15 -13 -19 -10 -3 3 1 10 9 15 21 14 24 12 10 -5z m50 -14
c0 -5 -7 -12 -16 -15 -14 -5 -15 -4 -4 9 14 17 20 19 20 6z m70 -31 c-19 -13
-30 -13 -30 0 0 6 10 10 23 10 18 0 19 -2 7 -10z"/>
<path d="M2980 4209 c0 -5 5 -7 10 -4 6 3 10 8 10 11 0 2 -4 4 -10 4 -5 0 -10
-5 -10 -11z"/>
<path d="M3215 4100 c3 -5 8 -10 11 -10 2 0 4 5 4 10 0 6 -5 10 -11 10 -5 0
-7 -4 -4 -10z"/>
<path d="M3502 4294 c-8 -8 -11 -22 -8 -30 3 -7 1 -14 -4 -14 -6 0 -10 5 -10
10 0 6 -4 10 -10 10 -5 0 -7 -7 -4 -15 8 -20 24 -19 54 5 22 17 23 21 10 34
-13 13 -17 13 -28 0z"/>
<path d="M3827 4279 c4 -15 8 -17 19 -8 18 15 18 16 -5 22 -14 3 -17 0 -14
-14z"/>
<path d="M3530 4239 c0 -5 5 -7 10 -4 6 3 10 8 10 11 0 2 -4 4 -10 4 -5 0 -10
-5 -10 -11z"/>
<path d="M4020 4240 c0 -5 5 -10 11 -10 5 0 7 5 4 10 -3 6 -8 10 -11 10 -2 0
-4 -4 -4 -10z"/>
<path d="M3431 4194 c0 -11 3 -14 6 -6 3 7 2 16 -1 19 -3 4 -6 -2 -5 -13z"/>
<path d="M3958 4203 c7 -3 16 -2 19 1 4 3 -2 6 -13 5 -11 0 -14 -3 -6 -6z"/>
<path d="M3720 4189 c0 -5 5 -7 10 -4 6 3 10 8 10 11 0 2 -4 4 -10 4 -5 0 -10
-5 -10 -11z"/>
<path d="M4030 4139 c0 -5 5 -7 10 -4 6 3 10 8 10 11 0 2 -4 4 -10 4 -5 0 -10
-5 -10 -11z"/>
<path d="M3989 4060 c-13 -22 -27 -40 -31 -40 -4 0 -4 -7 -1 -17 4 -10 2 -14
-5 -10 -13 9 -63 -53 -55 -67 4 -6 8 -5 11 2 2 7 10 12 18 12 11 0 10 -5 -6
-22 -11 -12 -20 -28 -20 -35 0 -7 -6 -13 -14 -13 -9 0 -13 7 -11 18 2 10 -1
25 -7 33 -8 11 -9 11 -5 -3 3 -9 1 -18 -5 -20 -6 -2 -5 -17 5 -41 15 -34 15
-37 0 -37 -9 0 -14 -3 -10 -6 9 -9 48 7 45 18 -2 6 16 31 40 57 43 45 79 108
68 118 -3 3 3 18 13 32 16 22 17 29 7 43 -11 15 -15 13 -37 -22z m21 -20 c0
-5 -5 -10 -11 -10 -5 0 -7 5 -4 10 3 6 8 10 11 10 2 0 4 -4 4 -10z m-20 -50
c-6 -11 -15 -20 -20 -20 -6 0 -5 9 2 20 7 11 16 20 21 20 4 0 3 -9 -3 -20z
m-55 -90 c-3 -5 -11 -10 -16 -10 -6 0 -7 5 -4 10 3 6 11 10 16 10 6 0 7 -4 4
-10z"/>
<path d="M4047 4043 c-4 -3 -7 -11 -7 -17 0 -6 5 -5 12 2 6 6 9 14 7 17 -3 3
-9 2 -12 -2z"/>
<path d="M3650 4009 c0 -5 5 -7 10 -4 6 3 10 8 10 11 0 2 -4 4 -10 4 -5 0 -10
-5 -10 -11z"/>
<path d="M3624 3983 c10 -11 37 -12 30 -2 -3 5 -12 9 -21 9 -9 0 -13 -3 -9 -7z"/>
<path d="M4136 3924 c-4 -10 -1 -14 6 -12 15 5 23 28 10 28 -5 0 -13 -7 -16
-16z"/>
<path d="M4103 3880 c-4 -14 -8 -18 -13 -10 -5 8 -10 8 -14 2 -3 -5 0 -12 8
-15 19 -7 52 28 36 38 -7 4 -14 -2 -17 -15z"/>
<path d="M4183 3883 c-7 -2 -13 -11 -13 -18 0 -12 -36 -31 -51 -28 -3 1 -6 -5
-6 -12 0 -10 4 -12 12 -5 6 5 21 8 32 6 14 -3 25 3 33 20 8 13 17 24 22 24 4
0 8 5 8 10 0 10 -16 12 -37 3z"/>
<path d="M3790 3870 c0 -5 5 -10 10 -10 6 0 10 5 10 10 0 6 -4 10 -10 10 -5 0
-10 -4 -10 -10z"/>
<path d="M3640 3830 c-10 -6 -9 -9 1 -13 12 -4 11 -7 -1 -16 -11 -8 -12 -11
-2 -11 13 0 42 23 42 33 0 10 -27 15 -40 7z"/>
<path d="M4380 3805 c-18 -19 -31 -38 -27 -42 4 -3 16 3 27 15 12 12 17 22 13
22 -4 0 2 6 13 14 10 8 16 17 13 20 -3 3 -21 -10 -39 -29z"/>
<path d="M3767 3799 c-3 -12 -10 -18 -15 -15 -6 3 -13 -1 -16 -10 -4 -11 -2
-15 7 -11 8 3 14 -4 15 -20 3 -33 21 -65 33 -58 15 10 10 35 -8 35 -9 0 -14 3
-10 6 3 4 20 2 36 -4 17 -6 31 -7 31 -2 0 5 8 17 18 26 16 17 16 18 0 11 -20
-7 -25 8 -5 16 9 4 8 8 -3 16 -9 6 -16 7 -18 1 -2 -6 -10 -10 -18 -10 -8 0
-14 -7 -14 -15 0 -8 -4 -15 -10 -15 -14 0 -13 37 2 42 6 2 8 10 4 16 -11 18
-23 14 -29 -9z"/>
<path d="M3690 3795 c0 -17 9 -19 28 -6 11 7 10 10 -3 15 -23 9 -25 8 -25 -9z"/>
<path d="M4642 3790 c-17 -28 -15 -32 8 -20 11 6 20 17 20 25 0 21 -13 19 -28
-5z"/>
<path d="M4914 3762 c3 -5 -6 -20 -20 -35 -13 -14 -24 -28 -24 -31 0 -10 33 7
52 26 22 22 23 34 2 42 -8 3 -13 2 -10 -2z"/>
<path d="M4330 3750 c8 -5 20 -10 25 -10 6 0 3 5 -5 10 -8 5 -19 10 -25 10 -5
0 -3 -5 5 -10z"/>
<path d="M4290 3725 c0 -5 -10 -21 -21 -35 -16 -19 -19 -20 -15 -6 6 16 4 17
-10 5 -9 -7 -12 -15 -6 -17 6 -2 10 -9 8 -15 -1 -7 -1 -9 1 -4 8 14 25 7 19
-8 -6 -17 9 -20 20 -4 3 6 1 15 -6 19 -15 10 9 52 27 46 9 -4 23 14 23 29 0 9
-40 -1 -40 -10z"/>
<path d="M4155 3680 c-3 -5 -1 -10 4 -10 6 0 11 5 11 10 0 6 -2 10 -4 10 -3 0
-8 -4 -11 -10z"/>
<path d="M4885 3640 c-16 -16 -25 -33 -22 -37 4 -3 8 -4 10 -2 1 2 15 19 31
37 37 40 20 43 -19 2z"/>
<path d="M4210 3645 c0 -5 5 -17 10 -25 5 -8 10 -10 10 -5 0 6 -5 17 -10 25
-5 8 -10 11 -10 5z"/>
<path d="M4815 3619 c-4 -6 -5 -12 -2 -15 2 -3 7 2 10 11 7 17 1 20 -8 4z"/>
<path d="M4830 3589 c0 -5 5 -7 10 -4 6 3 10 8 10 11 0 2 -4 4 -10 4 -5 0 -10
-5 -10 -11z"/>
<path d="M4117 3574 c4 -11 3 -15 -4 -11 -6 4 -13 1 -16 -6 -3 -8 4 -19 15
-26 17 -11 23 -10 39 6 21 20 14 37 -18 47 -19 6 -22 4 -16 -10z"/>
<path d="M4790 3586 c0 -2 7 -7 16 -10 8 -3 12 -2 9 4 -6 10 -25 14 -25 6z"/>
<path d="M4988 3488 c-49 -49 -88 -97 -88 -106 0 -13 3 -12 19 4 10 10 17 21
15 23 -5 6 39 36 48 34 4 -2 4 5 1 14 -4 10 -2 14 5 9 6 -3 13 2 17 13 3 11
19 26 35 33 19 8 25 15 17 20 -8 5 -4 8 11 8 12 0 22 5 22 10 0 6 7 10 16 10
8 0 12 5 9 10 -14 23 -45 4 -127 -82z"/>
<path d="M4913 3506 c-29 -28 -53 -57 -53 -64 0 -8 -5 -10 -12 -6 -7 4 -8 3
-4 -4 4 -7 1 -12 -8 -12 -9 0 -16 -6 -16 -14 0 -8 -7 -22 -16 -30 -8 -9 -12
-16 -7 -16 12 0 79 72 76 82 -2 4 5 8 14 8 9 0 13 3 10 6 -4 4 1 14 11 23 37
36 75 81 66 80 -5 -1 -33 -25 -61 -53z"/>
<path d="M5172 3543 c-12 -3 -28 -13 -35 -24 -6 -10 -19 -19 -27 -19 -8 -1
-34 -25 -57 -54 -44 -55 -57 -81 -25 -53 10 10 22 14 27 10 4 -5 5 -2 1 5 -4
7 -2 12 6 12 7 1 45 30 83 65 39 36 66 64 60 63 -5 0 -20 -3 -33 -5z"/>
<path d="M4740 3530 c0 -5 5 -10 10 -10 6 0 10 5 10 10 0 6 -4 10 -10 10 -5 0
-10 -4 -10 -10z"/>
<path d="M5266 3504 c-23 -23 -20 -30 4 -9 11 10 20 20 20 22 0 7 -9 2 -24
-13z"/>
<path d="M4295 3500 c-4 -6 -11 -8 -16 -5 -5 3 -6 -1 -3 -9 3 -9 10 -16 16
-16 5 0 7 4 3 9 -3 6 3 14 12 20 10 6 13 11 6 11 -6 0 -15 -5 -18 -10z"/>
<path d="M4710 3485 c-7 -9 -8 -15 -2 -15 5 0 12 7 16 15 3 8 4 15 2 15 -2 0
-9 -7 -16 -15z"/>
<path d="M4306 3464 c-3 -7 2 -10 15 -7 22 6 26 20 4 20 -8 0 -16 -6 -19 -13z"/>
<path d="M5441 3409 c-22 -20 -23 -38 -2 -24 11 6 35 45 28 45 -2 0 -13 -9
-26 -21z"/>
<path d="M4610 3400 c0 -6 7 -10 15 -10 8 0 15 2 15 4 0 2 -7 6 -15 10 -8 3
-15 1 -15 -4z"/>
<path d="M4596 3366 c21 -15 30 -14 19 3 -3 6 -14 11 -23 11 -13 0 -13 -2 4
-14z"/>
<path d="M5181 3335 c-24 -25 -39 -45 -34 -45 12 0 88 78 82 85 -3 2 -25 -16
-48 -40z"/>
<path d="M5530 3365 c0 -10 -5 -13 -12 -9 -7 4 -8 3 -4 -4 4 -7 11 -12 16 -12
12 0 20 29 10 35 -6 4 -10 -1 -10 -10z"/>
<path d="M5109 3353 c-13 -16 -12 -17 4 -4 16 13 21 21 13 21 -2 0 -10 -8 -17
-17z"/>
<path d="M5407 3353 c-12 -12 -7 -22 8 -17 8 4 15 10 15 15 0 11 -14 12 -23 2z"/>
<path d="M4830 3314 c0 -8 5 -12 10 -9 6 3 10 10 10 16 0 5 -4 9 -10 9 -5 0
-10 -7 -10 -16z"/>
<path d="M4745 3300 c-16 -17 -16 -20 -3 -15 9 4 19 13 22 21 7 19 2 18 -19
-6z"/>
<path d="M5506 3313 c5 -5 12 -12 16 -18 4 -6 8 -2 8 8 0 9 -7 17 -17 17 -9 0
-12 -3 -7 -7z"/>
<path d="M5075 3300 c-3 -5 -1 -10 4 -10 6 0 11 5 11 10 0 6 -2 10 -4 10 -3 0
-8 -4 -11 -10z"/>
<path d="M4897 3249 c-22 -45 -22 -48 -4 -32 22 20 22 22 1 -47 -9 -29 9 -24
44 12 39 39 42 90 6 106 -20 10 -24 6 -47 -39z m53 -34 c-7 -9 -15 -13 -18
-10 -3 2 1 11 8 20 7 9 15 13 18 10 3 -2 -1 -11 -8 -20z"/>
<path d="M5336 3279 c-11 -10 -16 -19 -12 -19 14 0 46 21 46 30 0 15 -13 11
-34 -11z"/>
<path d="M5802 3269 c-12 -19 -11 -19 8 -9 11 6 20 15 20 20 0 17 -15 11 -28
-11z"/>
<path d="M5039 3263 c-13 -16 -12 -17 4 -4 16 13 21 21 13 21 -2 0 -10 -8 -17
-17z"/>
<path d="M5115 3270 c-3 -5 -1 -10 4 -10 6 0 11 5 11 10 0 6 -2 10 -4 10 -3 0
-8 -4 -11 -10z"/>
<path d="M5900 3248 c0 -9 -3 -23 -6 -32 -3 -9 -2 -16 4 -16 14 0 21 35 11 51
-7 11 -9 11 -9 -3z"/>
<path d="M4993 3214 c-15 -16 -16 -24 -4 -24 8 0 24 30 19 35 -2 2 -9 -3 -15
-11z"/>
<path d="M5090 3220 c0 -5 5 -10 10 -10 6 0 10 5 10 10 0 6 -4 10 -10 10 -5 0
-10 -4 -10 -10z"/>
<path d="M5622 3198 c-52 -36 -72 -68 -43 -68 11 0 26 6 33 14 8 7 24 17 36
20 20 7 27 17 23 39 0 4 2 6 7 6 14 -3 45 1 41 5 -20 17 -58 11 -97 -16z"/>
<path d="M5260 3210 c-8 -5 -10 -10 -5 -10 6 0 17 5 25 10 8 5 11 10 5 10 -5
0 -17 -5 -25 -10z"/>
<path d="M5830 3200 c0 -5 5 -10 11 -10 5 0 7 5 4 10 -3 6 -8 10 -11 10 -2 0
-4 -4 -4 -10z"/>
<path d="M5506 3188 c3 -5 10 -6 15 -3 13 9 11 12 -6 12 -8 0 -12 -4 -9 -9z"/>
<path d="M5046 3165 c-18 -27 -20 -35 -8 -35 4 0 16 14 25 30 22 36 6 41 -17
5z"/>
<path d="M5230 3175 c-8 -9 -8 -15 -2 -15 12 0 26 19 19 26 -2 2 -10 -2 -17
-11z"/>
<path d="M5900 3180 c0 -5 4 -10 9 -10 6 0 13 5 16 10 3 6 -1 10 -9 10 -9 0
-16 -4 -16 -10z"/>
<path d="M5470 3170 c0 -5 4 -10 9 -10 6 0 13 5 16 10 3 6 -1 10 -9 10 -9 0
-16 -4 -16 -10z"/>
<path d="M5835 3160 c-7 -11 30 -19 45 -10 7 5 2 9 -14 12 -15 3 -29 2 -31 -2z"/>
<path d="M5900 3130 c-13 -8 -12 -10 3 -10 9 0 17 5 17 10 0 12 -1 12 -20 0z"/>
<path d="M5738 3106 c-24 -18 -22 -28 5 -25 12 2 28 -1 36 -5 9 -6 12 -5 7 2
-3 5 0 13 6 15 10 4 9 8 -2 16 -20 14 -31 13 -52 -3z"/>
<path d="M5325 3049 c-4 -6 -5 -12 -2 -15 2 -3 7 2 10 11 7 17 1 20 -8 4z"/>
<path d="M5066 3016 c3 -9 11 -16 16 -16 13 0 5 23 -10 28 -7 2 -10 -2 -6 -12z"/>
<path d="M5105 2980 c-4 -12 -5 -24 -2 -27 3 -2 8 5 12 17 4 12 5 24 2 27 -3
2 -8 -5 -12 -17z"/>
<path d="M5430 2942 c0 -5 7 -9 15 -9 8 0 15 4 15 9 0 4 -7 8 -15 8 -8 0 -15
-4 -15 -8z"/>
<path d="M5351 2843 c0 -10 3 -13 5 -7 3 7 15 10 27 8 21 -4 21 -4 2 5 -29 14
-35 13 -34 -6z"/>
<path d="M4831 4856 c2 -2 47 -6 99 -9 68 -4 81 -3 45 3 -52 9 -152 13 -144 6z"/>
<path d="M2506 4159 c3 -5 12 -9 20 -9 9 0 12 -5 8 -11 -4 -7 -2 -10 5 -8 20
7 12 24 -14 31 -14 3 -23 2 -19 -3z"/>
<path d="M2626 4114 c-18 -18 -21 -34 -5 -34 5 0 7 5 4 10 -3 6 -2 10 3 10 6
0 12 7 16 15 7 19 1 19 -18 -1z"/>
<path d="M2703 4068 c-13 -6 -23 -15 -23 -21 0 -5 -8 -16 -17 -23 -16 -12 -14
-13 19 -14 29 0 36 3 32 15 -4 9 0 15 8 15 7 0 14 9 15 20 2 22 -2 23 -34 8z"/>
<path d="M2602 4051 c-16 -10 0 -29 19 -22 13 5 14 8 4 18 -6 6 -17 8 -23 4z"/>
<path d="M2891 4021 c-10 -7 -11 -13 -2 -27 7 -13 10 -14 11 -5 0 11 5 10 20
-4 17 -16 20 -16 15 -3 -4 9 -13 19 -21 22 -9 3 -12 10 -9 16 8 12 4 12 -14 1z"/>
<path d="M2730 4011 c0 -6 5 -13 10 -16 6 -3 10 1 10 9 0 9 -4 16 -10 16 -5 0
-10 -4 -10 -9z"/>
<path d="M2638 3993 c7 -3 16 -2 19 1 4 3 -2 6 -13 5 -11 0 -14 -3 -6 -6z"/>
<path d="M1255 3970 c3 -5 -8 -16 -25 -25 -145 -75 -190 -249 -88 -340 52 -47
101 -67 169 -69 95 -4 137 17 172 86 15 29 27 62 27 73 0 19 0 19 15 -1 19
-26 19 -32 -5 -39 -11 -4 -18 -11 -14 -16 3 -5 10 -7 15 -3 11 6 75 -31 83
-49 3 -9 8 -8 16 3 8 10 13 11 16 4 3 -7 14 -10 24 -7 11 3 20 0 20 -6 0 -6
-6 -11 -12 -11 -7 0 0 -7 16 -15 15 -8 38 -15 50 -15 14 0 26 -11 36 -33 13
-28 20 -32 55 -33 73 -2 85 -4 86 -16 0 -7 24 -24 52 -38 29 -14 56 -36 62
-48 6 -13 19 -22 32 -22 12 0 29 -3 39 -7 13 -5 15 -3 9 8 -5 8 5 3 22 -11 18
-14 32 -33 32 -42 1 -25 -10 -49 -20 -42 -5 3 -9 1 -9 -5 0 -11 38 -26 56 -23
14 3 28 -44 18 -60 -4 -6 -3 -8 3 -5 15 10 38 -22 52 -73 8 -25 22 -72 33
-104 20 -63 19 -106 -7 -232 -13 -65 -28 -99 -42 -99 -4 0 -7 -10 -5 -22 2
-18 -2 -23 -20 -24 -13 0 -35 -3 -49 -5 -16 -3 -31 2 -39 11 -7 8 -22 15 -34
16 -15 0 -16 2 -6 6 8 3 18 10 21 16 4 5 10 0 14 -12 3 -11 11 -21 16 -21 5 0
4 8 -2 19 -13 20 -6 51 11 51 7 0 9 -8 5 -20 -5 -15 -2 -20 12 -19 11 0 13 3
5 6 -10 4 -10 8 -1 19 9 11 15 12 26 3 11 -9 17 -9 26 1 7 7 7 10 1 7 -6 -3
-22 5 -37 19 -25 23 -32 23 -28 1 1 -4 -8 -3 -20 4 -19 10 -21 9 -16 -4 4 -10
-1 -18 -13 -22 -11 -3 -17 -12 -14 -20 4 -9 0 -12 -13 -9 -11 3 -26 -3 -37
-15 -11 -12 -25 -21 -33 -21 -7 0 -13 -4 -13 -8 0 -9 -81 -52 -98 -52 -5 0
-12 -7 -16 -15 -7 -18 15 -20 33 -2 11 10 12 9 6 -2 -6 -11 -4 -13 8 -8 30 11
26 -8 -4 -22 -16 -7 -27 -17 -23 -22 3 -5 -1 -9 -8 -9 -10 0 -9 -3 2 -10 46
-29 -58 -10 -175 32 -494 180 -643 249 -894 417 -166 111 -246 178 -279 233
l-23 38 50 0 c58 0 70 14 14 16 -21 1 -47 2 -59 3 -24 1 -78 49 -81 71 -1 8
-5 27 -9 41 -4 19 0 33 18 51 23 26 24 26 83 13 33 -8 81 -21 107 -29 29 -9
50 -11 53 -5 4 5 -1 9 -10 9 -9 0 -34 9 -55 20 -22 11 -40 16 -40 12 0 -5 -25
-2 -55 6 l-55 15 -31 -29 c-27 -26 -30 -34 -26 -72 4 -33 14 -53 49 -90 24
-26 55 -66 68 -90 66 -118 577 -428 885 -536 55 -19 163 -58 240 -86 186 -68
183 -67 304 -85 198 -29 296 -48 321 -60 30 -16 57 -46 128 -145 64 -89 92
-142 162 -310 71 -171 90 -206 100 -190 10 16 -4 55 -61 175 -20 43 -10 58 21
30 29 -26 32 -2 5 38 -14 20 -25 44 -25 54 0 10 -7 29 -16 41 -9 13 -14 32
-11 42 3 10 -2 28 -10 39 -8 12 -11 21 -7 21 4 0 -1 10 -12 22 -19 22 -19 22
0 8 19 -15 19 -14 3 17 -10 18 -17 35 -17 39 0 22 127 -187 152 -251 9 -22 28
-76 43 -120 34 -98 53 -136 120 -240 55 -86 181 -232 196 -227 5 1 8 -3 7 -10
-2 -7 4 -12 12 -13 8 0 15 -7 15 -15 0 -8 32 -41 70 -73 39 -33 69 -63 68 -68
-2 -5 20 -21 49 -35 29 -15 75 -44 104 -65 51 -39 213 -130 299 -168 77 -34
49 -14 -47 35 -126 63 -238 130 -295 177 -65 53 -203 184 -203 192 0 4 -6 12
-12 19 -7 8 -20 24 -28 36 -8 13 -26 35 -39 49 -12 14 -30 39 -37 54 -9 17
-20 25 -27 21 -7 -4 -4 1 5 12 17 19 15 23 -25 88 -23 38 -49 79 -57 91 -49
75 -70 117 -73 143 -2 17 -10 41 -18 54 -20 31 -44 86 -58 127 -8 25 -8 38 1
48 6 8 11 27 10 44 0 18 5 32 14 36 8 3 14 11 14 19 0 17 5 17 32 3 25 -14 35
-4 17 18 -12 14 -12 16 1 11 8 -3 41 -13 73 -23 41 -13 70 -31 106 -66 27 -26
52 -45 55 -42 3 4 -1 14 -9 23 -14 16 -14 17 8 13 47 -9 145 -170 228 -375 23
-59 44 -106 46 -104 7 7 -78 210 -128 304 -58 111 -117 195 -130 186 -5 -3 -9
-3 -9 1 0 3 10 10 23 15 16 6 18 9 5 9 -10 1 -82 19 -160 40 -79 22 -240 63
-358 91 -118 29 -219 55 -225 60 -5 4 -23 8 -40 8 -16 0 -76 10 -132 21 -55
12 -112 21 -125 21 -19 0 -12 11 49 68 59 54 80 84 116 157 45 91 59 154 59
258 -1 28 -6 63 -13 79 -9 22 -9 31 1 43 11 13 10 14 -3 9 -12 -4 -17 3 -22
33 -8 46 -35 103 -52 110 -7 3 -13 12 -13 21 0 12 3 13 12 4 16 -16 65 -15 71
1 4 9 8 8 16 -3 7 -10 6 -18 -1 -27 -7 -9 -7 -13 0 -13 6 0 13 4 17 9 3 6 18
6 36 1 l31 -9 -18 21 c-18 20 -18 21 -1 15 10 -4 21 -7 23 -7 13 0 0 -29 -28
-58 -26 -27 -28 -32 -10 -23 12 6 22 17 22 24 0 8 3 8 9 -1 4 -8 11 -13 15
-13 3 1 14 1 24 1 13 0 14 -2 3 -9 -8 -5 -9 -11 -3 -15 5 -3 17 3 27 14 10 11
29 20 42 20 12 0 23 4 23 9 0 5 12 10 28 11 15 0 41 2 57 3 17 2 34 1 39 -1
15 -8 -45 -50 -68 -48 -12 2 -23 -2 -23 -9 0 -7 17 -12 44 -11 24 0 43 4 43 8
0 5 10 4 21 -3 15 -8 19 -8 15 0 -4 6 0 18 8 26 19 19 27 20 36 4 6 -8 15 -5
35 14 17 15 37 24 52 23 33 -4 38 -13 10 -20 -14 -3 -28 -14 -31 -23 -6 -15
-5 -16 5 -5 7 6 21 12 31 12 11 0 29 9 41 20 30 28 51 22 55 -18 2 -17 7 -32
12 -32 5 0 8 -15 6 -32 -4 -32 13 -98 36 -145 6 -12 8 -33 6 -48 -4 -16 -1
-24 6 -22 6 2 12 9 12 15 1 7 2 20 3 30 1 11 7 5 16 -16 13 -30 16 -32 37 -20
12 7 29 19 36 26 19 17 33 3 35 -32 2 -31 27 -35 45 -6 7 12 17 18 23 15 5 -4
8 -1 7 5 -2 6 7 19 20 27 20 14 22 14 22 0 0 -9 -7 -23 -16 -32 -9 -9 -14 -19
-11 -22 3 -3 -1 -13 -10 -22 -16 -15 -15 -16 7 -19 17 -3 31 4 47 24 19 24 23
26 29 11 3 -9 17 -17 30 -17 23 0 26 -4 28 -44 2 -29 31 -43 50 -23 9 8 25 19
36 22 11 3 20 12 20 20 0 16 32 14 43 -3 5 -7 5 -21 2 -32 -4 -12 -2 -20 5
-20 6 0 8 5 5 10 -3 6 -2 10 4 10 17 0 24 -22 10 -31 -11 -7 -10 -9 4 -9 10 0
17 8 17 20 0 11 5 20 10 20 6 0 10 -5 10 -11 0 -5 4 -8 10 -4 14 8 1 32 -20
38 -13 3 -17 0 -13 -9 3 -8 1 -14 -5 -14 -5 0 -12 9 -15 20 -4 16 0 20 20 20
18 0 24 4 20 15 -4 8 -2 17 2 20 5 2 14 -17 21 -43 7 -26 14 -42 17 -36 3 8
16 6 44 -7 38 -19 41 -19 91 -2 39 14 52 15 55 6 6 -18 38 -16 53 2 7 8 16 13
20 10 4 -2 20 9 35 25 33 35 45 38 38 10 -3 -11 -12 -20 -19 -20 -8 0 -14 -4
-14 -10 0 -5 7 -7 15 -4 8 4 15 1 15 -5 0 -6 -6 -11 -12 -12 -7 0 -3 -4 10 -9
27 -12 29 -30 2 -23 -11 3 -20 0 -20 -6 0 -6 -9 -11 -19 -11 -11 0 -23 -4 -26
-10 -8 -12 -7 -12 32 -1 36 10 48 4 32 -16 -9 -9 -8 -13 0 -13 6 0 14 7 18 16
4 12 14 14 34 10 19 -3 29 -1 29 6 0 6 -3 8 -6 5 -8 -8 -44 11 -44 23 0 6 10
6 26 0 20 -8 31 -6 51 10 42 33 59 26 53 -24 -1 -10 3 -15 8 -12 6 3 21 2 34
-3 12 -6 17 -10 10 -10 -7 -1 -10 -6 -7 -11 4 -7 20 -3 42 11 37 23 51 17 54
-23 1 -10 2 -24 3 -30 0 -7 8 -13 16 -13 15 0 15 11 6 70 -2 11 1 25 6 32 5 7
5 13 0 17 -11 7 -3 56 9 56 5 0 9 -8 9 -18 0 -10 7 -19 15 -19 8 0 15 4 15 9
0 4 -4 8 -10 8 -16 0 -12 15 11 41 15 18 22 20 28 10 6 -9 10 -6 14 10 4 13 9
21 11 18 3 -3 2 -19 -2 -35 -4 -16 -6 -39 -4 -52 3 -19 6 -21 18 -11 16 13 30
6 19 -10 -3 -6 -17 -11 -31 -11 -14 0 -22 -4 -19 -10 4 -6 -5 -10 -20 -10 -15
0 -24 4 -20 10 3 6 1 10 -4 10 -17 0 -13 -21 7 -36 16 -12 15 -13 -5 -14 -13
0 -23 -3 -24 -7 0 -5 -2 -16 -4 -25 -5 -25 9 -30 39 -16 23 10 29 9 45 -8 31
-34 43 -62 29 -70 -7 -4 -8 -3 -4 4 4 7 3 12 -2 12 -10 0 -22 -29 -26 -64 -2
-16 2 -13 21 10 35 42 43 66 29 89 -18 33 -5 165 14 134 6 -9 12 -10 22 -2 7
6 26 11 42 11 25 0 27 -3 23 -27 -3 -15 -2 -33 3 -41 7 -12 11 -9 19 10 8 22
10 22 10 5 1 -20 -30 -55 -49 -55 -6 0 -10 -6 -10 -12 0 -9 -4 -8 -10 2 -6 10
-10 11 -10 2 0 -6 -3 -11 -7 -11 -23 4 -30 -3 -25 -26 2 -14 8 -28 13 -30 9
-6 59 41 59 55 0 6 10 6 25 0 16 -6 25 -6 25 0 0 5 7 7 16 3 14 -5 15 -3 6 13
-9 17 -6 22 19 33 15 7 34 9 41 5 7 -4 10 -3 5 1 -7 9 20 45 35 45 4 0 6 -13
3 -30 -6 -31 0 -36 25 -20 18 11 22 60 3 53 -9 -4 -10 5 -6 33 4 27 3 35 -5
30 -7 -4 -12 -3 -12 1 0 5 -9 9 -21 10 -17 2 -19 -1 -8 -13 10 -13 10 -17 -2
-25 -11 -7 -16 0 -23 31 -10 45 -16 48 -41 20 -20 -22 -45 -27 -45 -7 0 9 -3
8 -9 -2 -13 -21 -82 -5 -88 20 -3 10 -10 19 -15 19 -6 0 -8 6 -5 14 3 8 -1 20
-9 26 -11 10 -14 10 -14 0 0 -7 -7 -10 -15 -6 -8 3 -15 1 -15 -5 0 -6 -7 -8
-16 -5 -10 4 -25 -1 -34 -9 -16 -15 -19 -14 -34 1 -21 21 -12 32 11 13 14 -12
15 -12 9 0 -6 9 -5 12 5 9 7 -2 23 5 36 16 l23 20 -24 25 c-14 14 -29 37 -34
51 l-9 24 -12 -22 c-8 -14 -8 -22 -1 -22 5 0 10 -11 10 -25 0 -19 -4 -23 -17
-18 -11 4 -12 8 -5 11 23 7 12 19 -15 16 -14 -1 -40 -18 -57 -36 -28 -30 -73
-64 -93 -71 -4 -1 -9 10 -10 26 -1 15 3 27 8 27 6 0 17 7 25 15 9 8 12 15 7
15 -5 0 -14 -5 -20 -11 -7 -7 -11 -3 -11 16 0 37 -13 47 -64 49 -24 1 -43 6
-43 11 0 6 -4 16 -8 23 -5 6 -4 12 1 12 6 0 13 7 16 16 4 9 2 13 -5 8 -8 -4
-9 1 -4 15 9 29 -18 28 -42 -1 -20 -25 -73 -32 -80 -10 -3 6 2 12 11 12 9 0
16 5 16 10 0 19 -31 10 -40 -12 -7 -18 -9 -19 -9 -5 -1 9 -5 17 -10 17 -5 0
-11 9 -14 20 -7 28 -21 25 -34 -7 l-10 -28 -11 28 c-6 15 -18 27 -27 27 -8 0
-15 4 -15 9 0 12 -41 10 -58 -3 -10 -7 -12 -4 -7 17 5 17 3 27 -4 27 -6 0 -8
8 -5 18 4 13 1 12 -14 -5 l-20 -23 -6 25 c-7 28 -27 32 -50 10 -8 -8 -19 -15
-24 -15 -6 0 -12 -6 -15 -12 -3 -10 -7 -10 -20 1 -15 12 -17 11 -15 -9 2 -17
-3 -23 -19 -26 -15 -3 -23 1 -23 11 0 8 6 15 13 15 8 0 7 4 -3 10 -10 6 -11
10 -2 10 6 0 12 8 12 19 0 24 25 45 45 37 8 -3 15 -1 15 4 0 15 19 12 37 -5
19 -19 33 -11 33 21 0 14 -4 22 -10 19 -5 -3 -10 0 -10 8 0 8 9 17 20 20 24 6
27 27 4 27 -11 0 -15 6 -11 20 3 13 0 20 -9 20 -13 0 -18 -23 -15 -62 1 -9 -3
-19 -9 -23 -5 -3 -10 -1 -10 4 0 6 -11 11 -25 11 -21 0 -25 5 -25 31 0 24 4
30 15 25 13 -4 13 -2 5 14 -6 10 -11 30 -12 44 -2 20 -5 23 -20 15 -16 -9 -23
-33 -19 -66 1 -7 -4 -13 -11 -13 -10 0 -10 -2 1 -9 9 -6 12 -20 9 -40 -2 -17
0 -33 6 -36 6 -2 1 -2 -12 1 -15 4 -28 0 -35 -10 -10 -12 -15 -13 -27 -3 -24
20 -41 55 -30 62 6 3 10 16 10 29 0 13 13 43 29 67 17 24 28 46 25 48 -6 6
-57 -53 -90 -105 -15 -24 -33 -43 -38 -41 -6 2 -15 19 -20 38 -5 19 -10 35
-12 37 -1 2 -19 -4 -39 -13 -21 -8 -40 -13 -43 -10 -3 3 0 5 7 5 11 0 10 16
-5 72 -3 9 -11 18 -18 21 -10 4 -13 -4 -12 -29 1 -18 5 -37 9 -40 29 -29 -20
-144 -53 -124 -10 6 -10 9 1 13 11 5 10 8 -3 17 -10 6 -18 16 -18 21 0 6 5 7
10 4 17 -11 11 7 -7 20 -16 12 -15 15 15 41 36 32 43 50 12 34 -16 -9 -20 -8
-20 5 0 9 3 14 8 12 4 -3 5 17 4 44 -2 27 -8 49 -13 49 -5 0 -9 6 -9 14 0 8
-4 17 -8 20 -4 2 -8 -19 -8 -47 -1 -65 -12 -127 -24 -127 -4 0 -6 8 -3 19 3
10 0 22 -6 25 -7 4 -8 1 -5 -8 3 -9 1 -16 -5 -16 -6 0 -11 -11 -11 -24 0 -13
-6 -28 -12 -33 -19 -15 -58 -22 -58 -11 0 5 -4 6 -10 3 -5 -3 -10 -2 -10 4 0
5 -3 18 -6 28 -6 16 -5 16 9 -2 15 -19 15 -17 4 20 -13 47 -36 68 -54 53 -7
-6 -13 -16 -13 -23 0 -15 -22 -25 -55 -25 -33 0 -68 39 -60 67 5 23 -4 28 -48
23 -22 -2 -49 19 -41 31 3 5 -2 9 -10 9 -9 0 -16 -4 -16 -8 0 -4 -9 -8 -20 -8
-11 0 -20 6 -20 13 0 16 -26 17 -36 1 -5 -8 -10 -6 -14 8 -4 10 -11 19 -16 20
-21 2 -43 17 -38 25 3 5 -9 9 -25 9 -21 0 -31 5 -31 15 0 8 -8 15 -18 15 -14
0 -19 8 -20 31 0 17 -4 34 -7 37 -9 9 -24 -19 -18 -35 3 -9 -3 -13 -21 -13
-14 0 -26 4 -26 9 0 5 -9 11 -19 14 -15 4 -18 0 -16 -19 3 -31 -14 -42 -31
-20 -8 12 -19 16 -33 11 -14 -4 -21 -2 -21 7 0 10 -2 11 -8 0 -11 -17 -39 -6
-45 18 -7 27 4 70 17 70 20 0 42 48 28 62 -8 8 -9 5 -5 -12 5 -18 3 -22 -9
-17 -16 6 -43 -36 -40 -59 2 -7 -10 -11 -30 -9 -18 1 -25 0 -15 -2 9 -2 17
-11 17 -19 0 -16 -16 -19 -24 -5 -3 5 -16 7 -29 4 -12 -3 -18 -1 -12 4 21 17
13 32 -21 43 -48 16 -68 7 -59 -27 6 -24 5 -25 -12 -13 -10 8 -24 21 -31 30
-10 11 -33 15 -97 14 -47 0 -80 3 -74 7 8 4 3 11 -12 20 -13 6 -30 19 -38 26
-11 11 -16 12 -22 2 -4 -7 -22 -12 -41 -12 -37 0 -52 -15 -36 -34 21 -25 -4
-12 -34 18 -17 16 -37 28 -44 25 -25 -10 -44 5 -44 34 0 69 -85 147 -169 156
-28 2 -63 9 -77 14 -16 6 -23 6 -19 0z m65 -45 c-7 -9 -20 -14 -29 -13 -9 2
-25 -4 -35 -14 -13 -12 -23 -14 -31 -8 -7 6 -19 4 -33 -6 -12 -8 -22 -11 -22
-7 0 15 57 43 74 37 9 -3 16 -1 16 4 0 10 21 17 59 21 11 1 11 -2 1 -14z m0
-35 c0 -5 -7 -10 -15 -10 -8 0 -15 5 -15 10 0 6 7 10 15 10 8 0 15 -4 15 -10z
m145 -21 c11 -17 -1 -21 -15 -4 -8 9 -8 15 -2 15 6 0 14 -5 17 -11z m-219 -72
c-15 -19 -26 -42 -26 -51 0 -27 19 -56 42 -65 13 -5 17 -10 11 -14 -20 -13
-73 42 -73 75 0 34 34 88 56 88 11 0 8 -9 -10 -33z m126 16 c29 -26 24 -86
-11 -125 -16 -18 -33 -30 -37 -25 -4 4 5 20 19 35 35 36 35 75 1 107 -23 21
-24 25 -9 25 10 0 27 -7 37 -17z m-189 -186 c4 3 7 1 7 -6 0 -7 14 -17 31 -23
16 -6 28 -12 26 -15 -8 -8 -72 23 -87 43 -14 17 -13 18 1 7 9 -7 19 -10 22 -6z
m227 -22 c-7 -9 -15 -13 -19 -10 -3 3 1 10 9 15 21 14 24 12 10 -5z m2102
-227 c-7 -7 -12 -8 -12 -2 0 6 3 14 7 17 3 4 9 5 12 2 2 -3 -1 -11 -7 -17z
m-611 -48 c6 0 7 5 4 10 -9 15 4 12 21 -5 9 -8 11 -15 6 -15 -16 0 -22 -28
-12 -55 8 -21 7 -25 -9 -25 -10 0 -21 -7 -25 -15 -3 -8 -9 -15 -14 -15 -12 0
-9 45 5 62 7 8 9 19 5 23 -4 5 -1 5 6 1 14 -9 17 20 2 29 -5 3 -10 12 -9 18 0
9 2 9 6 0 2 -7 9 -13 14 -13z m163 -28 c2 -4 -4 -8 -14 -8 -10 0 -16 4 -14 8
3 4 9 8 14 8 5 0 11 -4 14 -8z m216 -23 c-10 -7 -11 -12 -4 -15 13 -5 7 -41
-10 -63 -8 -11 -8 -13 0 -8 7 4 14 1 16 -6 7 -17 -2 -38 -13 -31 -6 3 -15 1
-22 -4 -7 -5 -23 -12 -37 -15 -25 -6 -26 -4 -22 28 3 25 0 35 -9 35 -8 1 0 9
18 18 17 9 41 29 53 45 12 15 27 27 33 27 7 0 6 -5 -3 -11z m-637 -40 c-8 -8
-13 -8 -17 0 -4 6 -2 11 4 11 6 0 8 6 4 13 -6 10 -4 10 7 0 9 -10 10 -16 2
-24z m723 -2 c0 -13 -11 -32 -23 -41 -23 -17 -23 -16 -23 13 0 18 7 34 18 40
26 15 30 13 28 -12z m-286 -1 c0 -3 -4 -8 -10 -11 -5 -3 -10 -1 -10 4 0 6 5
11 10 11 6 0 10 -2 10 -4z m-234 -25 c0 -11 -4 -17 -8 -15 -4 3 -8 12 -8 20 0
8 4 14 8 14 4 0 8 -9 8 -19z m-256 5 c0 -3 -4 -8 -10 -11 -5 -3 -10 -1 -10 4
0 6 5 11 10 11 6 0 10 -2 10 -4z m-110 -25 c-19 -31 -51 -64 -57 -57 -3 3 5
15 18 27 13 11 23 26 21 33 -1 7 4 13 12 13 11 0 12 -5 6 -16z m298 -16 c-2
-1 -18 -10 -36 -19 -33 -17 -33 -17 -23 3 12 22 30 30 49 23 7 -2 12 -6 10 -7z
m662 -21 c0 -19 -4 -25 -15 -20 -8 3 -15 0 -15 -6 0 -7 -5 -6 -15 2 -12 10
-13 16 -4 27 7 8 18 12 26 9 7 -3 13 -1 13 4 0 6 2 10 5 10 3 0 5 -12 5 -26z
m-11 -78 c-1 -23 -3 -33 -6 -22 -3 10 -16 29 -31 41 l-25 22 31 0 c31 0 32 -2
31 -41z m187 6 c-2 -24 -12 -48 -24 -60 -26 -26 -28 -26 -36 -6 -3 8 -2 13 3
9 5 -3 8 11 7 31 -3 36 14 64 39 64 9 0 13 -11 11 -38z m149 -20 c-3 -3 0 -11
6 -19 9 -9 8 -13 0 -13 -6 0 -11 5 -11 11 0 6 -13 1 -30 -11 -16 -12 -30 -18
-30 -14 0 11 44 50 58 50 6 0 10 -2 7 -4z m41 -99 c-5 -13 -9 -14 -19 -4 -9 9
-9 14 3 21 8 5 11 10 7 10 -5 0 -5 6 0 13 10 16 17 -17 9 -40z m-126 27 c0 -5
-4 -10 -10 -10 -5 0 -10 5 -10 10 0 6 5 10 10 10 6 0 10 -4 10 -10z m-90 -10
c0 -5 -4 -10 -10 -10 -5 0 -10 5 -10 10 0 6 5 10 10 10 6 0 10 -4 10 -10z
m348 -22 c0 -49 1 -52 17 -38 12 10 15 9 15 -8 0 -24 -16 -38 -53 -47 -15 -4
-27 -11 -27 -15 0 -14 -31 -20 -48 -10 -16 9 -16 9 0 10 11 0 17 7 15 18 -1 9
3 18 8 20 6 2 14 10 18 18 5 8 13 11 19 8 7 -5 9 -1 5 9 -4 12 -1 17 11 17 13
0 14 2 4 8 -7 5 -10 16 -6 25 10 28 22 19 22 -15z m-638 3 c0 -5 -7 -11 -14
-14 -10 -4 -13 -1 -9 9 6 15 23 19 23 5z m702 -11 c-2 -7 2 -16 8 -20 7 -5 6
-11 -5 -20 -9 -8 -15 -9 -15 -2 0 6 -10 21 -22 33 -13 12 -18 19 -11 15 6 -3
15 -2 18 4 9 15 31 6 27 -10z m83 -41 c-3 -12 -7 -24 -9 -27 -3 -3 2 -18 11
-33 9 -16 15 -30 12 -32 -2 -2 -19 -15 -37 -30 -19 -15 -39 -27 -45 -27 -7 0
-6 4 3 10 13 9 13 11 0 19 -8 6 -11 13 -7 17 3 4 -2 15 -13 24 -20 18 -20 18
24 46 34 22 42 31 34 41 -8 10 -5 13 10 13 16 0 20 -5 17 -21z m-641 -29 c-6
-6 -10 -3 -10 10 0 13 4 16 10 10 7 -7 7 -13 0 -20z m176 -26 c0 -8 -4 -12
-10 -9 -5 3 -10 10 -10 16 0 5 5 9 10 9 6 0 10 -7 10 -16z m626 -47 c13 5 13
7 2 14 -10 7 -9 9 5 9 10 0 17 -8 17 -20 0 -13 -7 -20 -19 -20 -11 0 -22 -9
-26 -20 -6 -20 -51 -60 -67 -60 -6 0 -7 11 -4 25 4 14 2 25 -4 25 -13 0 -13
27 0 35 5 3 7 0 5 -7 -4 -9 2 -14 15 -15 11 -1 20 2 20 8 0 5 -4 9 -10 9 -5 0
-10 5 -10 10 0 6 6 10 13 10 7 0 19 9 27 21 15 20 15 20 18 -5 2 -18 8 -23 18
-19z m-601 -1 c18 -13 17 -14 -12 -29 -30 -16 -31 -16 -26 3 3 11 0 20 -6 20
-6 0 -11 5 -11 10 0 15 33 12 55 -4z m813 -34 c6 -18 -15 -14 -22 4 -4 10 -1
14 6 12 6 -2 14 -10 16 -16z m52 -17 c-7 -8 -16 -12 -21 -9 -13 8 -1 24 18 24
13 0 13 -3 3 -15z m90 5 c0 -5 -5 -10 -11 -10 -5 0 -7 5 -4 10 3 6 8 10 11 10
2 0 4 -4 4 -10z m30 0 c0 -5 -5 -10 -11 -10 -5 0 -7 5 -4 10 3 6 8 10 11 10 2
0 4 -4 4 -10z m-60 -35 c0 -8 6 -15 14 -15 11 0 12 -5 3 -24 -14 -28 -27 -24
-27 8 0 12 -5 27 -12 34 -9 9 -8 12 5 12 9 0 17 -7 17 -15z m35 5 c3 -5 1 -10
-4 -10 -6 0 -11 5 -11 10 0 6 2 10 4 10 3 0 8 -4 11 -10z m-2403 -158 c-20
-33 -77 -85 -107 -97 -33 -13 -55 -15 -55 -5 0 6 11 10 25 10 14 0 23 5 21 13
-1 6 -1 9 1 5 3 -4 18 -1 35 8 23 12 29 21 26 39 -4 18 -1 22 10 17 11 -4 14
-1 9 11 -3 9 -2 17 3 17 6 0 10 -6 10 -12 0 -7 5 -5 11 5 5 9 14 17 19 17 5 0
2 -13 -8 -28z m-86 -59 c-10 -10 -19 5 -10 18 6 11 8 11 12 0 2 -7 1 -15 -2
-18z m-123 -37 c-17 -6 -28 -16 -26 -23 7 -19 -14 -16 -21 3 -4 9 -5 18 -4 18
19 11 65 21 72 18 6 -3 -4 -10 -21 -16z m69 -20 c6 4 9 1 6 -7 -2 -8 -18 -15
-34 -17 -24 -2 -30 1 -30 16 0 17 4 18 24 11 13 -5 28 -6 34 -3z m993 -276 c3
-5 2 -10 -4 -10 -5 0 -13 5 -16 10 -3 6 -2 10 4 10 5 0 13 -4 16 -10z m-206
-442 c11 -23 19 -44 16 -46 -3 -4 -45 72 -45 83 0 14 10 1 29 -37z m62 -95
c13 -16 12 -17 -3 -4 -17 13 -22 21 -14 21 2 0 10 -8 17 -17z m59 -43 c6 -11
8 -20 6 -20 -3 0 -10 9 -16 20 -6 11 -8 20 -6 20 3 0 10 -9 16 -20z"/>
<path d="M2742 3955 c11 -25 23 -32 31 -17 3 4 -6 15 -19 25 l-24 18 12 -26z"/>
<path d="M2540 3949 c0 -5 5 -7 10 -4 6 3 10 8 10 11 0 2 -4 4 -10 4 -5 0 -10
-5 -10 -11z"/>
<path d="M3175 3900 c3 -5 8 -10 11 -10 2 0 4 5 4 10 0 6 -5 10 -11 10 -5 0
-7 -4 -4 -10z"/>
<path d="M3090 3840 c0 -5 5 -10 11 -10 5 0 7 5 4 10 -3 6 -8 10 -11 10 -2 0
-4 -4 -4 -10z"/>
<path d="M1820 3791 c0 -10 30 -24 37 -17 3 3 2 9 -2 15 -8 13 -35 15 -35 2z"/>
<path d="M3449 3773 c-1 -5 -1 -11 0 -15 0 -4 -11 -5 -24 -2 -28 5 -35 -18
-11 -41 17 -17 90 -9 79 9 -4 6 -8 16 -9 21 0 6 -2 16 -2 23 -2 13 -31 17 -33
5z"/>
<path d="M2525 3760 c3 -5 8 -10 11 -10 2 0 4 5 4 10 0 6 -5 10 -11 10 -5 0
-7 -4 -4 -10z"/>
<path d="M2500 3750 c0 -5 5 -10 11 -10 5 0 7 5 4 10 -3 6 -8 10 -11 10 -2 0
-4 -4 -4 -10z"/>
<path d="M5889 3720 c-31 -26 -15 -26 18 0 14 11 21 20 15 20 -5 0 -20 -9 -33
-20z"/>
<path d="M3573 3724 c-7 -3 -9 -12 -6 -20 4 -10 0 -15 -8 -14 -34 5 -50 -2
-64 -30 -12 -23 -13 -35 -5 -48 11 -16 11 -16 6 1 -4 13 1 17 24 17 24 0 30 4
30 20 0 13 10 25 28 33 18 8 26 18 24 30 -4 17 -8 19 -29 11z"/>
<path d="M2240 3681 c-10 -19 11 -53 26 -43 5 4 10 19 10 33 2 29 -22 36 -36
10z"/>
<path d="M3400 3660 c0 -5 5 -10 11 -10 5 0 7 5 4 10 -3 6 -8 10 -11 10 -2 0
-4 -4 -4 -10z"/>
<path d="M2630 3570 c0 -5 4 -10 9 -10 6 0 13 5 16 10 3 6 -1 10 -9 10 -9 0
-16 -4 -16 -10z"/>
<path d="M1536 3555 c-3 -8 -1 -15 4 -15 6 0 10 7 10 15 0 8 -2 15 -4 15 -2 0
-6 -7 -10 -15z"/>
<path d="M1495 3539 c-4 -6 -14 -8 -21 -5 -8 3 -34 -3 -57 -14 -23 -11 -60
-23 -82 -28 -33 -7 -40 -12 -40 -32 0 -24 9 -30 72 -46 7 -2 15 -19 19 -39 5
-28 11 -36 24 -32 13 3 17 -2 17 -26 0 -17 5 -33 11 -35 7 -2 12 -12 12 -22 0
-10 5 -22 10 -25 6 -3 10 -19 10 -35 0 -42 29 -110 47 -110 13 0 13 4 -2 27
-13 19 -14 25 -4 21 8 -4 22 -9 32 -13 10 -4 17 -3 17 5 0 6 -4 9 -9 6 -5 -3
-20 3 -32 14 -13 11 -20 19 -16 20 5 0 1 7 -8 16 -9 9 -14 23 -11 30 3 8 1 14
-4 14 -6 0 -10 5 -10 11 0 22 25 2 26 -21 1 -13 9 -29 18 -36 10 -7 17 -16 16
-20 -1 -5 4 -10 11 -13 8 -2 10 4 5 24 -4 15 -10 41 -13 59 -3 17 -10 37 -16
43 -5 7 -6 24 -3 39 4 14 3 31 -2 37 -5 7 -12 23 -14 37 -3 14 -9 33 -13 42
-5 12 -2 20 11 25 9 3 25 14 34 23 16 16 15 19 -6 43 -14 16 -25 23 -29 16z"/>
<path d="M3867 3533 c-4 -3 -7 -11 -7 -17 0 -6 5 -5 12 2 6 6 9 14 7 17 -3 3
-9 2 -12 -2z"/>
<path d="M1636 3500 c-5 -13 -4 -25 4 -60 0 -3 5 2 10 12 6 10 7 25 1 40 -7
17 -10 19 -15 8z"/>
<path d="M3828 3478 c-21 -26 -23 -39 -4 -32 14 6 40 54 28 54 -4 0 -15 -10
-24 -22z"/>
<path d="M3920 3491 c0 -5 7 -11 15 -15 9 -3 15 0 15 9 0 8 -7 15 -15 15 -8 0
-15 -4 -15 -9z"/>
<path d="M2955 3480 c-3 -5 -1 -10 4 -10 6 0 11 5 11 10 0 6 -2 10 -4 10 -3 0
-8 -4 -11 -10z"/>
<path d="M3313 3464 c-10 -22 -9 -25 4 -22 9 2 17 13 18 26 2 29 -7 28 -22 -4z"/>
<path d="M1666 3464 c-10 -26 -6 -30 9 -10 11 15 15 16 15 5 0 -8 -6 -21 -12
-29 -7 -8 -3 -6 9 4 22 18 21 46 -2 46 -7 0 -16 -7 -19 -16z"/>
<path d="M530 3444 c8 -8 23 -20 34 -26 16 -8 15 -4 -6 16 -30 28 -48 35 -28
10z"/>
<path d="M3615 3449 c-11 -17 -2 -18 19 -3 17 12 17 14 4 14 -9 0 -20 -5 -23
-11z"/>
<path d="M4160 3452 c0 -4 9 -8 20 -8 11 0 20 4 20 8 0 4 -9 8 -20 8 -11 0
-20 -4 -20 -8z"/>
<path d="M4118 3433 c6 -2 18 -2 25 0 6 3 1 5 -13 5 -14 0 -19 -2 -12 -5z"/>
<path d="M3305 3420 c-3 -6 1 -7 9 -4 18 7 21 14 7 14 -6 0 -13 -4 -16 -10z"/>
<path d="M3775 3410 c-26 -29 -15 -32 15 -4 13 13 20 24 14 24 -6 0 -19 -9
-29 -20z"/>
<path d="M3726 3398 c-9 -12 -16 -27 -16 -33 0 -5 -11 -23 -25 -39 -29 -34
-30 -37 -10 -30 8 4 15 10 15 15 0 5 5 9 10 9 6 0 11 -24 11 -52 l2 -53 9 55
c5 30 9 68 9 84 0 16 4 37 10 47 14 26 4 24 -15 -3z"/>
<path d="M942 3356 c7 -8 15 -12 17 -11 5 6 -10 25 -20 25 -5 0 -4 -6 3 -14z"/>
<path d="M4340 3361 c0 -5 5 -13 10 -16 6 -3 10 -2 10 4 0 5 -4 13 -10 16 -5
3 -10 2 -10 -4z"/>
<path d="M931 3312 c-6 -12 -11 -27 -11 -34 1 -7 8 0 16 15 9 16 13 31 11 34
-3 2 -10 -4 -16 -15z"/>
<path d="M4160 3310 c0 -5 5 -10 10 -10 6 0 10 5 10 10 0 6 -4 10 -10 10 -5 0
-10 -4 -10 -10z"/>
<path d="M1540 3299 c0 -5 5 -7 10 -4 6 3 10 8 10 11 0 2 -4 4 -10 4 -5 0 -10
-5 -10 -11z"/>
<path d="M720 3218 c-19 -6 -30 -12 -24 -15 7 -2 27 3 45 11 39 17 29 19 -21
4z"/>
<path d="M4450 3182 c0 -14 6 -22 16 -22 14 0 15 3 3 18 -7 9 -15 19 -16 21
-2 2 -3 -5 -3 -17z"/>
<path d="M3730 3176 c0 -8 7 -16 15 -20 9 -3 15 0 15 8 0 8 -7 16 -15 20 -9 3
-15 0 -15 -8z"/>
<path d="M3890 3146 c0 -9 5 -16 10 -16 6 0 10 4 10 9 0 6 -4 13 -10 16 -5 3
-10 -1 -10 -9z"/>
<path d="M4450 3136 c0 -9 5 -16 10 -16 6 0 10 4 10 9 0 6 -4 13 -10 16 -5 3
-10 -1 -10 -9z"/>
<path d="M4025 3116 c-19 -17 -23 -24 -12 -22 18 2 64 46 49 46 -5 0 -22 -11
-37 -24z"/>
<path d="M4158 3064 c-7 -16 -17 -33 -23 -37 -6 -5 -4 -7 5 -4 8 2 23 0 32 -5
25 -12 37 37 15 59 -15 15 -17 14 -29 -13z"/>
<path d="M2312 3066 c7 -8 15 -12 17 -11 5 6 -10 25 -20 25 -5 0 -4 -6 3 -14z"/>
<path d="M2388 3073 c7 -3 16 -2 19 1 4 3 -2 6 -13 5 -11 0 -14 -3 -6 -6z"/>
<path d="M2528 3073 c7 -3 16 -2 19 1 4 3 -2 6 -13 5 -11 0 -14 -3 -6 -6z"/>
<path d="M2697 3066 c-4 -10 -5 -21 -2 -24 9 -9 17 6 13 25 -3 17 -4 17 -11
-1z"/>
<path d="M4046 3072 c-2 -4 -1 -14 3 -21 6 -9 10 -7 14 8 5 20 -7 29 -17 13z"/>
<path d="M2911 3053 c-9 -10 -10 -18 -3 -25 7 -7 12 -3 17 12 9 27 4 32 -14
13z"/>
<path d="M4480 3060 c0 -5 5 -10 11 -10 5 0 7 5 4 10 -3 6 -8 10 -11 10 -2 0
-4 -4 -4 -10z"/>
<path d="M4740 3060 c0 -5 4 -10 9 -10 6 0 13 5 16 10 3 6 -1 10 -9 10 -9 0
-16 -4 -16 -10z"/>
<path d="M2355 3050 c-3 -6 1 -7 9 -4 18 7 21 14 7 14 -6 0 -13 -4 -16 -10z"/>
<path d="M2766 3052 c-2 -4 4 -9 15 -9 10 -1 19 2 19 8 0 11 -27 12 -34 1z"/>
<path d="M4490 3025 c0 -8 4 -15 10 -15 5 0 7 7 4 15 -4 8 -8 15 -10 15 -2 0
-4 -7 -4 -15z"/>
<path d="M4179 2957 c-5 -56 1 -64 24 -37 14 16 14 21 3 33 -8 7 -16 22 -18
33 -3 10 -6 -3 -9 -29z"/>
<path d="M4645 2990 c4 -6 11 -8 16 -5 14 9 11 15 -7 15 -8 0 -12 -5 -9 -10z"/>
<path d="M4230 2960 c-9 -6 -10 -10 -3 -10 6 0 15 5 18 10 8 12 4 12 -15 0z"/>
<path d="M4493 2962 c-8 -5 -9 -13 -3 -22 7 -12 10 -12 16 3 8 21 3 29 -13 19z"/>
<path d="M4600 2955 c7 -9 15 -13 17 -11 7 7 -7 26 -19 26 -6 0 -6 -6 2 -15z"/>
<path d="M4660 2958 c0 -7 5 -20 10 -28 8 -11 9 -9 8 13 -2 26 -18 40 -18 15z"/>
<path d="M4521 2906 c-10 -11 -10 -19 -1 -33 9 -14 10 -14 7 -2 -3 9 0 22 6
28 6 6 8 13 5 16 -3 3 -11 -1 -17 -9z"/>
<path d="M6795 2910 c-91 -8 -199 -29 -191 -37 3 -3 29 1 58 8 63 17 429 18
450 3 21 -16 97 -36 110 -28 7 5 8 3 4 -5 -5 -8 0 -14 13 -18 12 -3 21 -10 21
-15 0 -5 5 -6 10 -3 6 4 8 11 5 16 -14 22 9 6 46 -32 22 -23 42 -51 45 -63 19
-99 26 -214 22 -361 -4 -130 -3 -154 4 -100 11 82 4 393 -11 449 -21 85 -108
146 -246 174 -71 15 -246 21 -340 12z"/>
<path d="M4460 2890 c0 -11 7 -20 15 -20 8 0 15 9 15 20 0 11 -7 20 -15 20 -8
0 -15 -9 -15 -20z"/>
<path d="M4673 2858 c-10 -37 -10 -45 4 -55 13 -10 18 -9 28 4 14 19 9 43 -8
40 -7 -1 -11 9 -9 26 5 40 -2 33 -15 -15z"/>
<path d="M4720 2851 c0 -5 9 -7 20 -4 11 3 20 7 20 9 0 2 -9 4 -20 4 -11 0
-20 -4 -20 -9z"/>
<path d="M4573 2843 c4 -3 -1 -12 -11 -19 -16 -13 -16 -13 1 -14 9 0 17 2 17
4 0 2 3 11 6 20 4 10 1 16 -7 16 -7 0 -9 -3 -6 -7z"/>
<path d="M6843 2843 c-13 -2 -23 -9 -23 -14 0 -5 -6 -9 -12 -8 -7 1 -20 1 -27
0 -27 -2 3 -20 41 -25 29 -4 36 -2 32 9 -4 10 1 12 18 8 20 -6 21 -4 10 10
-12 13 -10 16 15 20 l28 4 -30 0 c-16 0 -40 -2 -52 -4z"/>
<path d="M6970 2840 c0 -5 8 -6 18 -3 14 6 15 4 4 -9 -11 -13 -9 -16 15 -21
25 -5 61 8 74 27 4 5 12 5 18 2 6 -4 11 -2 11 3 0 7 -27 11 -70 11 -38 0 -70
-4 -70 -10z m75 -10 c-3 -5 -10 -10 -16 -10 -5 0 -9 5 -9 10 0 6 7 10 16 10 8
0 12 -4 9 -10z"/>
<path d="M4485 2830 c4 -6 11 -8 16 -5 14 9 11 15 -7 15 -8 0 -12 -5 -9 -10z"/>
<path d="M7135 2830 c28 -12 37 -12 30 0 -3 6 -16 10 -28 9 -21 0 -21 -1 -2
-9z"/>
<path d="M6905 2820 c3 -5 8 -10 11 -10 2 0 4 5 4 10 0 6 -5 10 -11 10 -5 0
-7 -4 -4 -10z"/>
<path d="M6940 2826 c0 -2 7 -7 16 -10 8 -3 12 -2 9 4 -6 10 -25 14 -25 6z"/>
<path d="M4515 2810 c3 -5 8 -10 11 -10 2 0 4 5 4 10 0 6 -5 10 -11 10 -5 0
-7 -4 -4 -10z"/>
<path d="M7114 2797 c3 -11 2 -16 -4 -12 -6 4 -25 2 -43 -4 -37 -12 -73 -19
-137 -27 -25 -3 -47 -7 -49 -10 -8 -7 204 1 217 9 7 5 12 3 12 -4 0 -10 3 -10
12 -1 14 14 95 16 100 3 2 -5 16 -7 31 -4 l28 6 -31 18 c-17 11 -37 16 -43 12
-20 -12 -71 -3 -86 15 -13 16 -13 16 -7 -1z"/>
<path d="M6674 2783 c-11 -12 -13 -18 -5 -21 7 -2 19 4 27 14 13 18 13 17 5
-7 -9 -24 -8 -25 35 -25 31 -1 44 3 44 13 0 9 8 11 26 7 19 -5 25 -4 20 5 -4
6 -11 9 -16 6 -5 -3 -11 -1 -14 4 -4 5 -17 8 -31 6 -14 -1 -25 2 -25 6 0 16
-48 10 -66 -8z"/>
<path d="M2370 2777 c0 -7 9 -13 21 -14 17 -2 18 1 9 13 -15 17 -30 18 -30 1z"/>
<path d="M3312 2770 c0 -14 2 -19 5 -12 2 6 2 18 0 25 -3 6 -5 1 -5 -13z"/>
<path d="M4315 2780 c-3 -5 -1 -10 4 -10 6 0 11 5 11 10 0 6 -2 10 -4 10 -3 0
-8 -4 -11 -10z"/>
<path d="M4900 2770 c-14 -11 -35 -20 -47 -20 -12 0 -25 -5 -28 -11 -12 -18 2
-21 32 -7 15 8 36 13 46 10 19 -4 49 26 41 40 -8 12 -17 9 -44 -12z"/>
<path d="M3480 2769 c0 -5 5 -7 10 -4 6 3 10 8 10 11 0 2 -4 4 -10 4 -5 0 -10
-5 -10 -11z"/>
<path d="M2185 2750 c-3 -5 -1 -10 4 -10 6 0 11 5 11 10 0 6 -2 10 -4 10 -3 0
-8 -4 -11 -10z"/>
<path d="M4335 2750 c-3 -5 -2 -10 4 -10 5 0 13 5 16 10 3 6 2 10 -4 10 -5 0
-13 -4 -16 -10z"/>
<path d="M6830 2740 c0 -5 5 -10 11 -10 5 0 7 5 4 10 -3 6 -8 10 -11 10 -2 0
-4 -4 -4 -10z"/>
<path d="M3871 2726 c-7 -8 -8 -17 -3 -20 6 -3 13 1 16 10 9 23 2 28 -13 10z"/>
<path d="M4973 2725 c-3 -9 -3 -18 -1 -21 3 -3 8 4 11 16 6 23 -1 27 -10 5z"/>
<path d="M3340 2716 c0 -2 7 -6 15 -10 8 -3 15 -1 15 4 0 6 -7 10 -15 10 -8 0
-15 -2 -15 -4z"/>
<path d="M3576 2707 c-12 -9 -16 -19 -11 -27 5 -9 4 -11 -3 -6 -7 4 -12 3 -12
-3 0 -5 -3 -17 -7 -27 -5 -13 2 -11 22 9 17 15 36 27 43 27 7 0 11 4 7 9 -3 5
0 13 6 17 8 4 9 3 5 -5 -10 -15 21 -26 38 -12 7 6 16 7 21 3 4 -4 6 0 3 8 -6
20 -87 25 -112 7z"/>
<path d="M3706 2694 c-15 -14 -26 -27 -23 -30 2 -3 20 9 38 25 40 37 26 41
-15 5z"/>
<path d="M3778 2713 c6 -2 18 -2 25 0 6 3 1 5 -13 5 -14 0 -19 -2 -12 -5z"/>
<path d="M4460 2708 c-12 -8 -12 -9 3 -4 12 4 21 -1 27 -17 6 -15 9 -17 9 -6
1 25 -21 40 -39 27z"/>
<path d="M4841 2707 c-15 -19 -1 -30 18 -13 9 8 25 16 36 19 14 3 10 5 -11 6
-17 0 -37 -5 -43 -12z"/>
<path d="M5576 2699 c-20 -29 -23 -63 -2 -37 7 10 15 15 18 12 9 -9 17 22 8
35 -5 10 -12 7 -24 -10z"/>
<path d="M4775 2697 c-17 -13 -17 -14 3 -19 16 -5 19 -2 15 11 -5 13 -2 12 18
-4 l24 -20 -19 23 c-23 26 -18 25 -41 9z"/>
<path d="M3821 2681 c-8 -5 -9 -11 -3 -15 5 -3 12 1 16 9 6 17 6 18 -13 6z"/>
<path d="M4898 2683 c7 -3 16 -2 19 1 4 3 -2 6 -13 5 -11 0 -14 -3 -6 -6z"/>
<path d="M3375 2660 c20 -23 29 -21 19 4 -3 9 -13 16 -22 16 -13 0 -12 -3 3
-20z"/>
<path d="M5000 2670 c0 -5 5 -10 10 -10 6 0 10 5 10 10 0 6 -4 10 -10 10 -5 0
-10 -4 -10 -10z"/>
<path d="M7033 2667 c1 -5 6 -8 10 -8 4 1 36 1 72 1 36 0 65 4 65 9 0 5 -34 9
-75 8 -41 -1 -74 -5 -72 -10z"/>
<path d="M3894 2655 c-18 -14 -18 -14 4 -8 12 3 22 9 22 14 0 12 -3 11 -26 -6z"/>
<path d="M4835 2651 c-5 -14 -7 -14 -15 -1 -8 12 -10 11 -11 -5 -1 -11 -1 -24
0 -30 1 -5 -9 3 -21 18 -17 21 -31 28 -48 25 -23 -3 -25 -8 -28 -61 -2 -32 -7
-55 -12 -52 -5 3 -7 12 -3 20 3 8 1 15 -4 15 -17 0 -33 -24 -33 -51 0 -30 24
-57 35 -39 13 21 24 10 15 -15 -9 -23 -6 -29 13 -26 13 2 7 -17 -8 -23 -19 -7
-20 -36 -1 -36 8 0 16 7 20 15 3 8 15 15 26 15 12 0 20 7 20 16 0 9 5 13 13
10 6 -3 20 -9 30 -12 22 -8 20 -65 -3 -76 -9 -4 -3 -7 18 -7 31 -1 43 12 22
22 -6 3 -5 4 1 3 7 -1 16 -12 20 -25 6 -14 5 -20 -1 -16 -6 3 -10 1 -10 -4 0
-9 27 -16 51 -13 4 1 5 -8 2 -19 -5 -18 -2 -20 14 -15 14 4 23 1 27 -9 3 -8
15 -15 26 -15 18 0 19 -3 10 -20 -6 -12 -7 -20 -1 -20 5 0 11 6 14 13 2 6 8 9
12 5 4 -4 2 -14 -5 -23 -7 -9 -10 -18 -6 -22 3 -3 6 0 6 7 0 10 3 11 11 3 6
-6 18 -9 25 -6 8 3 14 1 14 -5 0 -5 9 -12 21 -15 13 -3 19 -12 17 -24 -2 -12
2 -17 14 -15 10 1 23 -6 30 -18 7 -11 20 -20 28 -20 9 0 21 -5 27 -11 6 -6 21
-9 34 -6 l24 4 -22 8 c-17 5 -19 10 -10 20 9 10 14 9 23 -3 15 -20 47 -25 40
-6 -3 8 -1 14 5 14 6 0 13 -9 16 -20 3 -11 12 -20 19 -20 8 0 14 -7 14 -15 0
-8 9 -19 20 -25 11 -6 20 -7 20 -2 0 5 14 7 30 4 18 -3 30 0 30 7 0 6 8 19 18
29 9 9 25 29 34 44 9 14 25 25 34 24 10 0 23 10 30 22 8 16 13 19 16 11 8 -24
42 42 42 82 1 22 7 43 15 48 7 5 10 14 6 20 -4 7 -1 19 7 28 11 14 11 16 -2 9
-8 -4 -7 -1 4 8 12 10 17 22 13 38 -4 13 -7 28 -7 33 -1 6 -10 13 -20 17 -14
5 -18 15 -15 42 2 20 -1 39 -6 42 -5 3 -9 17 -9 32 0 20 -3 23 -9 13 -8 -12
-14 -11 -41 6 -20 13 -28 23 -21 27 6 4 11 12 11 17 0 5 -13 0 -29 -12 -16
-12 -36 -19 -45 -16 -9 4 -13 1 -10 -7 6 -16 -40 -38 -63 -29 -12 5 -14 3 -8
-7 5 -8 4 -11 -3 -6 -5 3 -13 0 -16 -6 -2 -7 -3 7 -1 32 2 25 1 39 -2 33 -7
-18 -38 -16 -53 2 -11 13 -16 13 -46 -5 l-33 -21 -4 23 c-3 17 -5 15 -6 -9 0
-17 -6 -35 -13 -39 -8 -5 -9 -2 -5 11 6 14 3 17 -18 13 -22 -5 -25 -2 -25 23
0 19 -4 27 -13 23 -8 -3 -11 -17 -9 -39 3 -21 0 -35 -7 -35 -6 0 -11 14 -11
31 0 26 -3 29 -14 20 -11 -9 -15 -9 -19 1 -3 7 -6 2 -6 -11 -1 -16 -5 -21 -16
-17 -9 3 -15 0 -15 -10 0 -11 -6 -14 -16 -10 -9 3 -18 6 -20 6 -9 0 -3 29 7
32 7 2 5 9 -5 17 -14 12 -16 9 -16 -22 0 -20 -4 -39 -10 -42 -5 -3 -10 1 -10
9 0 9 -5 16 -11 16 -6 0 -7 5 -2 13 12 20 15 57 3 57 -5 0 -10 -9 -10 -20 0
-11 -4 -20 -10 -20 -5 0 -9 -20 -8 -45 1 -66 -9 -66 -17 -1 -4 31 -11 59 -16
61 -4 3 -6 11 -3 19 3 9 -7 12 -35 12 -27 0 -42 -5 -46 -15z m-62 -15 c6 -16
-2 -28 -14 -20 -12 7 -11 34 0 34 5 0 11 -6 14 -14z m96 -87 c1 -20 -2 -38 -5
-41 -8 -9 -44 3 -44 14 0 5 5 6 10 3 14 -9 12 8 -2 24 -9 10 -10 12 -1 7 8 -4
14 6 19 31 6 31 8 34 15 18 4 -11 8 -36 8 -56z m-109 35 c0 -8 -4 -14 -9 -14
-11 0 -22 26 -14 34 9 9 23 -3 23 -20z m585 6 c-3 -5 -10 -10 -16 -10 -5 0 -9
5 -9 10 0 6 7 10 16 10 8 0 12 -4 9 -10z m-522 -117 c4 -3 13 0 22 7 11 9 15
9 15 1 0 -18 -29 -25 -54 -13 -18 8 -25 6 -34 -7 -9 -14 -11 -14 -11 -1 -1 9
8 23 18 32 13 11 18 26 16 49 -5 60 10 56 16 -4 4 -32 9 -60 12 -64z m774 81
c-3 -3 -12 -4 -19 -1 -8 3 -5 6 6 6 11 1 17 -2 13 -5z m-645 -69 c3 -14 2 -25
-2 -25 -4 0 -10 11 -12 25 -3 14 -2 25 2 25 4 0 10 -11 12 -25z"/>
<path d="M7278 2653 c6 -2 18 -2 25 0 6 3 1 5 -13 5 -14 0 -19 -2 -12 -5z"/>
<path d="M3340 2640 c0 -5 7 -10 16 -10 8 0 12 5 9 10 -3 6 -10 10 -16 10 -5
0 -9 -4 -9 -10z"/>
<path d="M4120 2640 c0 -5 5 -10 10 -10 6 0 10 5 10 10 0 6 -4 10 -10 10 -5 0
-10 -4 -10 -10z"/>
<path d="M3915 2630 c4 -6 11 -8 16 -5 14 9 11 15 -7 15 -8 0 -12 -5 -9 -10z"/>
<path d="M4660 2611 c0 -14 5 -19 15 -14 17 6 15 25 -3 31 -7 2 -12 -5 -12
-17z"/>
<path d="M7240 2617 c0 -5 -9 -7 -20 -4 -11 3 -20 2 -20 -3 0 -4 14 -10 31
-14 43 -8 46 -8 52 8 4 9 -3 16 -19 19 -13 2 -24 0 -24 -6z"/>
<path d="M7150 2610 c19 -13 30 -13 30 0 0 6 -10 10 -22 10 -19 0 -20 -2 -8
-10z"/>
<path d="M4575 2591 c-6 -11 2 -88 11 -102 9 -15 34 -10 28 6 -4 8 1 17 10 21
16 6 23 25 9 23 -22 -4 -32 3 -39 24 -5 12 -7 25 -6 30 3 10 -6 9 -13 -2z"/>
<path d="M4547 2575 c-4 -8 -2 -17 2 -20 5 -3 7 -15 5 -28 -4 -19 -3 -20 4 -3
7 17 5 66 -3 66 -2 0 -5 -7 -8 -15z"/>
<path d="M1775 2539 c-3 -4 1 -9 9 -12 14 -6 26 0 26 13 0 9 -30 9 -35 -1z"/>
<path d="M4430 2525 c0 -8 5 -15 10 -15 6 0 10 7 10 15 0 8 -4 15 -10 15 -5 0
-10 -7 -10 -15z"/>
<path d="M4406 2484 c-5 -14 -4 -15 9 -4 17 14 19 20 6 20 -5 0 -12 -7 -15
-16z"/>
<path d="M4561 2449 c-14 -39 -14 -39 1 -39 6 0 9 3 5 6 -3 4 0 19 9 35 8 16
10 29 5 29 -5 0 -14 -14 -20 -31z"/>
<path d="M4602 2435 c1 -20 4 -31 8 -25 7 11 2 60 -6 60 -2 0 -3 -16 -2 -35z"/>
<path d="M6080 2200 c8 -5 20 -10 25 -10 6 0 3 5 -5 10 -8 5 -19 10 -25 10 -5
0 -3 -5 5 -10z"/>
<path d="M7373 2160 c0 -25 2 -35 4 -22 2 12 2 32 0 45 -2 12 -4 2 -4 -23z"/>
<path d="M3185 2160 c53 -18 386 -68 499 -75 l108 -6 122 -76 c168 -106 639
-345 663 -337 12 4 14 3 6 -3 -8 -6 12 -24 65 -56 42 -27 140 -89 217 -139
146 -94 335 -198 442 -241 34 -14 115 -37 180 -52 65 -15 145 -34 178 -42 33
-9 79 -19 102 -23 l42 -7 -18 23 c-10 13 -28 51 -41 84 -12 33 -25 59 -27 57
-5 -5 23 -81 42 -118 l14 -26 -42 8 c-73 14 -97 21 -97 30 0 5 -6 6 -14 3 -16
-6 -164 33 -182 47 -6 5 -19 7 -28 3 -9 -3 -28 -3 -43 1 -22 5 -24 8 -12 16
10 8 9 9 -8 4 -35 -10 -238 93 -271 138 -8 11 -24 16 -40 15 -20 -2 -29 3 -37
19 -11 25 -35 39 -35 20 0 -8 -4 -7 -10 3 -5 9 -5 19 1 27 11 13 4 33 -12 33
-5 0 -9 -5 -9 -11 0 -5 5 -7 11 -3 7 4 10 1 7 -7 -8 -23 -38 -22 -62 0 -12 12
-26 18 -31 14 -4 -5 -5 -2 -1 4 5 8 2 11 -7 7 -8 -3 -20 2 -27 11 -11 13 -10
18 6 29 16 12 20 12 31 -3 7 -9 13 -21 13 -27 0 -6 10 -19 21 -30 21 -19 22
-19 15 4 -6 16 -3 22 8 22 9 0 16 5 16 11 0 7 10 9 25 7 35 -7 24 3 -40 37
-32 16 -60 35 -62 42 -3 7 -10 13 -15 13 -5 0 -29 14 -53 31 -27 19 -48 28
-57 23 -7 -4 -10 -4 -6 1 10 11 -29 38 -42 30 -6 -3 -10 0 -10 8 0 14 -64 39
-74 29 -3 -3 -6 -14 -6 -24 0 -31 -30 -20 -45 16 -8 19 -20 36 -27 39 -9 4 -7
6 3 6 9 1 20 -6 23 -15 3 -8 11 -12 17 -8 8 5 9 3 4 -6 -6 -10 -4 -12 9 -7 10
4 20 7 22 7 2 0 4 6 4 14 0 8 -19 25 -42 38 -23 13 -48 34 -54 46 -13 27 -48
54 -58 45 -3 -3 -6 -1 -6 5 0 7 -4 12 -10 12 -5 0 -7 -8 -4 -17 5 -17 4 -16
-9 0 -8 10 -17 17 -20 15 -3 -2 -9 1 -14 5 -4 5 1 8 12 7 60 -7 22 27 -45 40
-28 5 -63 19 -77 30 -14 11 -33 20 -42 20 -14 0 -14 -2 -1 -10 8 -5 10 -10 5
-10 -6 0 -20 6 -31 14 -15 11 -30 12 -57 6 -21 -4 -39 -4 -43 1 -3 5 -2 9 3 9
4 0 0 5 -9 11 -10 5 -18 14 -18 19 0 4 8 6 18 4 9 -2 44 -6 77 -8 33 -2 119
-10 190 -17 72 -7 238 -13 371 -13 188 -1 245 -4 257 -15 10 -7 17 -9 17 -4 0
39 345 -21 397 -69 64 -59 233 -287 233 -314 0 -7 6 -14 13 -17 10 -4 16 -38
20 -119 7 -107 22 -196 33 -185 3 3 1 22 -5 44 -6 21 -11 81 -11 133 0 91 -2
98 -35 153 -47 79 -204 286 -227 300 -69 44 78 -2 158 -48 23 -14 61 -48 85
-77 230 -279 547 -589 719 -703 77 -51 232 -113 304 -121 l53 -6 69 59 c78 68
243 267 306 369 47 77 118 230 118 255 0 9 9 37 20 61 32 74 87 278 93 348 5
56 5 59 -3 20 -33 -168 -61 -267 -102 -362 -15 -37 -28 -74 -28 -83 0 -33
-124 -266 -177 -332 -30 -37 -66 -84 -80 -103 -33 -43 -211 -220 -222 -220
-27 0 -121 24 -121 31 0 5 -9 9 -19 9 -30 0 -52 11 -45 22 4 6 -2 7 -17 3 -21
-7 -22 -6 -11 7 10 13 10 19 -3 31 -8 9 -15 20 -15 26 0 6 -6 11 -13 11 -7 0
-33 18 -57 40 -24 22 -48 40 -53 40 -5 0 -3 8 4 17 12 15 12 16 -3 11 -9 -4
-23 1 -32 11 -16 17 -15 18 11 15 31 -3 73 -24 73 -36 0 -5 12 -13 26 -18 19
-8 24 -15 19 -29 -4 -15 -2 -18 12 -15 10 3 27 -3 38 -14 16 -15 24 -17 40 -8
11 6 22 12 24 13 1 1 -4 12 -13 25 -9 12 -16 18 -16 13 0 -6 -8 3 -19 18 -15
23 -20 25 -24 13 -4 -10 -1 -16 8 -16 8 0 15 -5 15 -11 0 -20 -35 -4 -38 19
-2 12 -16 29 -33 37 -16 9 -29 20 -29 25 0 6 -12 8 -27 5 -15 -2 -30 -1 -33 3
-14 19 -110 93 -110 84 0 -5 21 -28 47 -51 26 -22 44 -44 40 -48 -5 -4 -18 4
-30 18 -12 14 -35 36 -52 49 l-30 25 25 -30 c14 -16 32 -36 41 -45 9 -8 14
-21 11 -28 -2 -7 6 -22 19 -32 12 -11 19 -20 15 -20 -7 0 -103 78 -153 124
-16 15 -30 21 -32 15 -2 -6 1 -14 7 -18 6 -4 7 -12 3 -19 -6 -10 -16 -4 -39
22 -17 20 -37 36 -43 36 -16 0 -279 267 -364 369 -123 148 -168 187 -221 195
-26 3 -52 10 -58 15 -16 13 -74 28 -236 62 -146 30 -225 33 -565 25 -58 -1
-250 13 -395 29 -69 7 -179 16 -245 20 -66 4 -167 13 -225 21 -58 7 -131 14
-164 14 -32 0 -86 5 -120 10 -121 20 -302 50 -336 55 -35 5 -35 5 -5 -5z
m1015 -195 c7 -8 8 -15 2 -15 -5 0 -15 7 -22 15 -7 8 -8 15 -2 15 5 0 15 -7
22 -15z m310 -186 c0 -6 -4 -7 -10 -4 -5 3 -10 11 -10 16 0 6 5 7 10 4 6 -3
10 -11 10 -16z m-57 -20 c-8 -8 -16 -8 -30 0 -16 9 -14 10 12 11 21 0 26 -3
18 -11z m47 -29 c0 -5 -5 -10 -11 -10 -5 0 -7 5 -4 10 3 6 8 10 11 10 2 0 4
-4 4 -10z m246 -97 c13 2 21 0 18 -4 -3 -5 -14 -9 -25 -9 -10 0 -19 -5 -19
-12 0 -6 -9 -3 -20 7 -26 24 -26 39 1 24 12 -6 32 -9 45 -6z m27 -39 c-2 -5
-14 -9 -27 -10 -16 -1 -23 3 -19 12 5 15 50 13 46 -2z m9 -44 c18 -11 27 -20
20 -20 -8 0 -25 9 -39 20 -33 26 -23 26 19 0z m1700 -458 c16 -7 16 -9 -5 -21
-12 -7 -19 -10 -15 -6 4 5 3 14 -3 22 -12 14 -4 16 23 5z"/>
<path d="M6350 2100 c20 -13 33 -13 25 0 -3 6 -14 10 -23 10 -15 0 -15 -2 -2
-10z"/>
<path d="M6730 2096 c0 -2 9 -6 20 -9 11 -3 18 -1 14 4 -5 9 -34 13 -34 5z"/>
<path d="M6790 2074 c0 -2 9 -8 20 -14 11 -6 20 -7 20 -2 0 6 -9 12 -20 15
-11 3 -20 3 -20 1z"/>
<path d="M6920 1875 c0 -8 7 -15 16 -15 14 0 14 3 4 15 -7 8 -14 15 -16 15 -2
0 -4 -7 -4 -15z"/>
<path d="M5750 1800 c6 -11 13 -20 16 -20 2 0 0 9 -6 20 -6 11 -13 20 -16 20
-2 0 0 -9 6 -20z"/>
<path d="M5785 1750 c3 -5 8 -10 11 -10 2 0 4 5 4 10 0 6 -5 10 -11 10 -5 0
-7 -4 -4 -10z"/>
<path d="M7025 1740 c6 -10 4 -12 -10 -6 -15 5 -16 4 -5 -9 10 -12 10 -15 -1
-16 -8 -1 -3 -4 11 -8 29 -9 62 -3 55 10 -3 4 -12 6 -20 2 -9 -3 -15 1 -15 10
0 9 -5 19 -12 23 -7 5 -8 3 -3 -6z"/>
<path d="M6845 1720 c3 -5 8 -10 11 -10 2 0 4 5 4 10 0 6 -5 10 -11 10 -5 0
-7 -4 -4 -10z"/>
<path d="M2690 1693 c0 -21 180 -199 294 -291 124 -100 243 -179 253 -168 3 3
-3 9 -13 13 -55 20 -355 252 -414 320 -87 100 -120 134 -120 126z"/>
<path d="M5017 1675 c3 -9 8 -13 11 -11 3 3 11 1 19 -5 7 -6 13 -8 13 -4 0 9
-31 34 -42 35 -4 0 -5 -7 -1 -15z"/>
<path d="M7120 1681 c0 -5 -8 -12 -17 -14 -15 -4 -15 -5 -2 -6 9 0 22 6 29 14
9 10 9 15 1 15 -6 0 -11 -4 -11 -9z"/>
<path d="M3380 1647 c0 -4 25 -83 56 -175 80 -242 108 -284 259 -400 122 -92
297 -243 290 -250 -2 -3 -40 16 -83 41 -75 43 -152 80 -152 72 0 -2 52 -31
115 -64 63 -34 147 -88 187 -120 94 -75 272 -251 323 -318 22 -29 44 -53 49
-53 6 0 -4 15 -20 32 -16 18 -56 68 -88 110 -62 84 -181 204 -261 264 -27 20
-88 71 -135 114 -91 82 -252 209 -287 229 -12 6 -43 40 -68 75 -42 59 -93 182
-150 366 -17 54 -34 93 -35 77z m742 -926 c21 -18 37 -36 34 -39 -3 -3 -27 15
-53 39 -27 24 -64 57 -83 72 -26 21 -22 20 14 -5 26 -18 66 -48 88 -67z m138
-138 c0 -8 -9 0 -50 45 l-45 47 48 -45 c26 -24 47 -45 47 -47z"/>
<path d="M5104 1616 c35 -33 76 -52 76 -35 0 5 -7 9 -15 9 -7 0 -18 6 -22 13
-9 15 -54 47 -65 47 -5 0 7 -15 26 -34z"/>
<path d="M5007 1528 c7 -8 10 -17 7 -21 -3 -3 3 -3 14 0 14 3 22 -1 27 -16 3
-12 11 -19 16 -15 5 3 6 10 3 16 -4 7 -2 8 4 4 7 -4 12 -16 12 -27 0 -22 30
-24 37 -3 4 12 -66 56 -110 70 -18 6 -20 5 -10 -8z m113 -58 c0 -5 -2 -10 -4
-10 -3 0 -8 5 -11 10 -3 6 -1 10 4 10 6 0 11 -4 11 -10z"/>
<path d="M4835 1520 c-3 -5 -2 -10 4 -10 5 0 13 5 16 10 3 6 2 10 -4 10 -5 0
-13 -4 -16 -10z"/>
<path d="M5582 1488 c2 -6 10 -14 16 -16 7 -2 10 2 6 12 -7 18 -28 22 -22 4z"/>
<path d="M5020 1482 c0 -12 19 -26 26 -19 2 2 -2 10 -11 17 -9 8 -15 8 -15 2z"/>
<path d="M5150 1460 c0 -5 5 -10 11 -10 5 0 7 5 4 10 -3 6 -8 10 -11 10 -2 0
-4 -4 -4 -10z"/>
<path d="M6050 1454 c0 -2 9 -8 20 -14 11 -6 20 -7 20 -2 0 6 -9 12 -20 15
-11 3 -20 3 -20 1z"/>
<path d="M6121 1379 c-11 -19 -11 -21 3 -16 8 3 23 -1 31 -10 21 -20 27 -13 9
11 -8 11 -14 16 -15 10 0 -5 -4 -1 -7 8 -7 16 -8 16 -21 -3z"/>
<path d="M5097 1379 c7 -7 15 -10 18 -7 3 3 -2 9 -12 12 -14 6 -15 5 -6 -5z"/>
<path d="M6475 1370 c-9 -15 47 -39 70 -29 18 7 17 8 -6 8 -15 1 -29 8 -33 16
-6 17 -22 20 -31 5z"/>
<path d="M6570 1335 c0 -8 5 -15 10 -15 6 0 10 7 10 15 0 8 -4 15 -10 15 -5 0
-10 -7 -10 -15z"/>
<path d="M5250 1300 c-9 -6 -10 -10 -3 -10 6 0 15 5 18 10 8 12 4 12 -15 0z"/>
<path d="M6772 1300 c4 -15 99 -72 107 -64 9 8 -35 41 -64 48 -16 4 -34 13
-38 19 -6 8 -7 7 -5 -3z"/>
<path d="M6738 1293 c7 -3 16 -2 19 1 4 3 -2 6 -13 5 -11 0 -14 -3 -6 -6z"/>
<path d="M6632 1276 c7 -8 16 -12 21 -9 11 7 -2 23 -19 23 -12 0 -12 -2 -2
-14z"/>
<path d="M6550 1266 c0 -7 45 -48 82 -74 15 -11 17 -11 12 3 -3 8 -10 15 -14
15 -5 0 -15 6 -22 13 -37 34 -58 49 -58 43z"/>
<path d="M6610 1256 c0 -2 7 -9 15 -16 13 -11 14 -10 9 4 -5 14 -24 23 -24 12z"/>
<path d="M5385 1230 c-3 -5 -1 -10 4 -10 6 0 11 5 11 10 0 6 -2 10 -4 10 -3 0
-8 -4 -11 -10z"/>
<path d="M6655 1220 c3 -5 8 -10 11 -10 2 0 4 5 4 10 0 6 -5 10 -11 10 -5 0
-7 -4 -4 -10z"/>
<path d="M6946 1221 c-4 -7 -5 -15 -2 -18 9 -9 19 4 14 18 -4 11 -6 11 -12 0z"/>
<path d="M6749 1193 c-13 -16 -12 -17 4 -4 16 13 21 21 13 21 -2 0 -10 -8 -17
-17z"/>
<path d="M6807 1199 c7 -7 15 -10 18 -7 3 3 -2 9 -12 12 -14 6 -15 5 -6 -5z"/>
<path d="M6720 1174 c0 -11 43 -34 63 -34 7 0 20 7 30 14 17 13 16 14 -2 19
-12 3 -19 0 -18 -6 1 -6 -6 -13 -17 -15 -13 -3 -16 0 -11 9 6 8 4 11 -7 6 -9
-3 -21 0 -27 6 -7 7 -11 7 -11 1z"/>
<path d="M6705 1140 c3 -5 10 -10 16 -10 5 0 9 5 9 10 0 6 -7 10 -16 10 -8 0
-12 -4 -9 -10z"/>
<path d="M6590 1110 c0 -5 14 -15 30 -24 39 -19 39 -6 0 16 -17 9 -30 13 -30
8z"/>
<path d="M6670 1055 c7 -9 15 -13 17 -11 7 7 -7 26 -19 26 -6 0 -6 -6 2 -15z"/>
<path d="M6615 1030 c3 -5 11 -10 16 -10 6 0 7 5 4 10 -3 6 -11 10 -16 10 -6
0 -7 -4 -4 -10z"/>
<path d="M6715 1030 c-3 -5 1 -10 10 -10 9 0 13 5 10 10 -3 6 -8 10 -10 10 -2
0 -7 -4 -10 -10z"/>
</g>
</svg>
