<svg version="1.0" xmlns="http://www.w3.org/2000/svg" width="1066.667" height="744" viewBox="0 0 800 558"><path d="M421 31.5c-3 .8-7.8 1.4-10.5 1.5-5.9 0-14.5 2.4-29.8 8.1-42.9 16.1-67.5 30.3-85.6 49.5-4 4.4-9.3 9.9-11.6 12.4-4.4 4.6-11 8.8-12.1 7.7-.4-.4.6-3.2 2.1-6.4 2-4 5.7-8.6 12.2-15l9.4-9.3-7.8 3.6c-9.5 4.3-25.1 16-30.5 22.7-5.1 6.5-11.4 17.3-14.4 24.4l-2.3 5.8-13.3-.3c-13-.4-42.4 1.7-54.3 3.8-19.4 3.5-62.7 18.2-77.6 26.4-7.9 4.3-20.8 14.6-31 24.6-4.2 4.1-8.8 8.6-10.3 9.9-2.1 1.8-2.6 3.1-2.5 6.5l.2 4.1.6-4.2c.4-2.3 1.3-4.8 1.9-5.6 1.9-2.2 5.9-2.9 8.5-1.5 1.2.7 2.5 1.1 2.9 1 .5-.1.7.3.5 1-.1.7 1.9 2.4 4.5 3.8 2.7 1.4 4.8 2.9 4.8 3.4 0 .4 1.2 2.3 2.8 4.2 1.5 1.8 3.7 4.7 5 6.3 2.5 3.3 5.2 3.2 5.2-.1 0-1.2.5-1.8 1.3-1.5.8.3 1.2-.6 1.3-2.7.2-4 1.5-9.6 2.3-9.6.3 0 1.9-1.1 3.4-2.5 3-2.8 3.5-6 1.2-6.8-1.6-.7-11.7 1-15.5 2.6-1.4.5-4.9 1-7.7 1.1-4.9.1-5.3-.1-5.8-2.6-.7-3.2 0-4.8 2.1-4.8.8 0 1.4-.4 1.4-.9s1.5-1.8 3.3-3c1.7-1.1 4-2.6 5-3.3 1.4-1.1 1.9-1 2.6.1.7 1.1 1.2 1 2.7-.8 1-1.1 2.6-2.1 3.6-2.1s1.8-.6 1.8-1.3c0-.7.9-2.3 2-3.5 2.4-2.5 2.7-4 .5-2.2-1.3 1-1.8 1.1-2.8.1-.7-.7-.7-1.1-.2-1 .6.2 2.1-.3 3.4-1 1.9-1.1 2.1-1.5 1-2.3-1-.7-.6-.8 1.3-.4 2.6.6 4.2-.5 4.3-2.9 0-.6.8-.9 1.8-.9.9.1 1.5-.2 1.2-.6-.3-.4.4-1 1.5-1.3 1.1-.3 2.3-.1 2.6.4.9 1.6 2.8 1 6.4-2.1 2.7-2.4 4.2-2.9 6.5-2.5 1.7.3 2.4.2 1.6-.1-1.8-.8 5.4-4.3 8.9-4.4 2 0 2.2-.2 1-1-1.3-.8-1.2-1 .3-1 1 0 2.5.7 3.3 1.5 2 1.9 5.8.5 6.2-2.4.2-1.1 1-2.1 1.9-2.1 1.3 0 1.3-.3.3-1.5-.8-.9-.9-1.5-.2-1.5.6 0 1.4.4 1.7 1 1 1.7 2.5 1.1 1.8-.7-.5-1.3-.2-1.5 1.5-1.1 1.2.4 2.2.3 2.2 0 0-.4 2-.7 4.5-.7 3.5 0 4.8-.5 6.1-2.3 1.7-2.5 3.4-2.9 3.4-.8 0 1.2.5 1.2 3 .3 1.6-.6 2.7-1.3 2.4-1.6-.6-.6 9.2-3 12.1-3h2l-2 .9c-1.8.8-1.8.9.6.9 1.4.1 3.1-.5 3.8-1.2 1.1-1 1.4-1 1.8 0 .3.7 1.1 1.3 1.9 1.3.8 0 1.4-.6 1.4-1.3 0-.9.2-.9.8 0 .8 1.3 10.1 1.1 12.2-.2.6-.3 3-.6 5.3-.5 6 .3 6.9.1 6.2-1-.3-.6.6-1.1 2.2-1.2 9.1-.5 29.3 1.1 29.3 2.3 0 .6.5.7 1.1.3 1.8-1.1 16.9 3.9 17 5.6 0 1 .2 1.1.6.2.6-1.6 2.3-1.5 2.3.2 0 .7 1 1.6 2.3 2 3.2.8 3.9.7 3.2-.4-.9-1.4-1-1.5 11.1 3.4 18.2 7.4 18.9 7.7 17.4 8.6-.7.5-2.2.7-3.2.5-2.5-.5-2.3.4 1 3.1 2.6 2.3 9 3.4 7.7 1.4-.7-1.2 3.9-2.4 6.1-1.6.8.3 1.2 1.1.8 1.7-.4.8-.3.9.5.5.6-.4 2.7-.2 4.6.4 3.1 1 3.5 1.5 3.5 4.6 0 2.1.4 3.3 1 2.9.6-.3 1-1.5 1-2.5 0-2.4 1.1-2 14.6 4.6 5 2.4 9.5 4.4 10.1 4.4.6 0 1.6.7 2.3 1.5 1 1.2.8 1.4-.9 1-1.2-.2-2.1 0-2.1.4 0 1.3 4.8 1.9 5.9.8.8-.8 1.1-.7 1.1.2 0 .7.4 1 .8.7.5-.3 3.1.6 5.8 1.9 3.9 1.9 4.5 2.5 3.1 3.1-1 .3-1.6 1.2-1.4 1.8.6 1.6-1.9 5-3.1 4.2-.9-.5-3.7 4.3-2.9 5.1.2.2 2-1.2 3.9-3.2l3.4-3.5 2.2 2c1.2 1.2 2.2 2.8 2.2 3.6 0 .9.5 1.2 1.3.8.9-.6.9-.4.1.7-.6.8-1.5 2.5-1.9 3.9l-.8 2.5 2.2-2.5 2.1-2.5-.4 6.2c-.2 3.5 0 6.3.4 6.3 1.3 0 1.7-2.2 1.5-8.3-.1-3.1.2-5.7.6-5.7.3 0 .9-.9 1.2-2 .4-1.6.2-1.8-1.3-1-2.9 1.6-3.5 1.2-3.7-2.3-.2-1.7-.9-3.7-1.8-4.3-5.3-3.9 5.6.5 11.6 4.7 1.4 1 3.7 2.1 5.1 2.4 1.9.5 2.4 1.1 2.1 2.6-.4 1.4 0 1.9 1.3 1.9 1.6 0 1.6-.2.4-1-2.3-1.5-.3-2.4 2.7-1.2 1.5.6 4.1 1.6 5.6 2.2l2.8 1-2.5 3.3c-2.8 3.7-3.2 4.7-1.6 4.7.6 0 1-.6 1-1.4 0-1.6 2.7-2.9 3.2-1.6.2.6.9.6 1.8 0 1.2-.7 1-1.1-.9-1.8-2-.7-2.1-1-.8-1.5 1.7-.6 21.5 6.6 23.2 8.5.7.8.6.9-.4.3-.9-.5-1.2-.4-.7.3.4.6 1.3.9 2.1.6 1.2-.5 6.1 1.8 19.4 9.4 4.1 2.3 4.3 2.6 2.6 3.8-1 .8-1.6 1.6-1.3 2 .3.3 0 1.7-.8 3.2-1.5 3-.8 4.7.8 1.8.8-1.5 1.2-1.6 1.9-.5 1.1 1.9 1.8.8 2.1-3.4.2-2 .4-3.7.6-3.7.8 0 12.2 8.1 12.8 9.1.4.7.3.9-.3.6-.8-.5-2.3 1.2-2.3 2.7 0 .1 1.2.3 2.6.4 2 .1 2.5-.2 2-1.4-.7-1.8 5.9 1.7 12.4 6.5 1.9 1.4 5 3.5 6.9 4.5 4 2.2 6.3 4 10.4 7.9 1.6 1.5 3.2 2.5 3.5 2.2.3-.3 1.5.1 2.6.9 5.4 3.5 30.9 16.7 35.8 18.6 3 1.1 7.4 2.2 9.7 2.5 2.3.2 6.5.9 9.4 1.5 7.8 1.6 24.6 2.7 39.2 2.5 14-.2 13.2 0 40-8.6 8.3-2.6 16.7-5.1 18.8-5.4 2.1-.4 3.6-1 3.3-1.2-.8-.8-9.9 1.6-24.1 6.3-22.5 7.4-24.6 7.7-48.7 7.1-20-.4-30.6-1.6-43.1-4.8-3.3-.9-3.7-1.2-2.6-2.5 2.2-2.6 10.2-6.1 15.7-6.8 7.3-.9 18.5-5.2 25.9-9.8 6.1-3.8 12.8-10.8 23.1-23.9 5.5-7.1 21.1-22.4 29.5-29 7.3-5.8 14-8.9 21.1-9.8 5.1-.6 3.2-.8-11.6-1.5-9.8-.4-20.6-1.2-24-1.7-3.5-.5-9.6-.9-13.7-.9-6.2 0-8.5-.5-13.9-3.1l-6.4-3 2.2-2.4c1.2-1.3 3.7-2.5 5.4-2.7 1.7-.2-2.3-.7-8.9-1.2-6.6-.5-12.6-1.3-13.3-1.8-.6-.6-2.6-.8-4.2-.4-4.9.9-3.3-.7 4.1-4.2 3.9-1.9 6.9-3.5 6.7-3.6-.8-.7-20.6 1.5-23 2.5-2.2.9-3 .8-4.3-.5-.9-.8-3.1-1.8-5.1-2.2-2.6-.5-3.2-.9-2.4-1.9.5-.6.7-1.4.4-1.8-.8-.7 5-3.7 7.3-3.7 1.7-.1 1.7-.1-.1-1.1-2-1.3-9.5-.6-20.3 1.6-6.5 1.4-6.8 1.3-9-.7-1.3-1.2-2.2-2.7-2-3.2.4-1.3-2.6-3.6-6.7-5.5-2.1-.8-5.2-1-10.2-.6-12.6 1.2-8.9-1.8 6.1-4.9 1.1-.2.2-.4-2-.4-2.2-.1-6 .3-8.4.7-4.2.9-15.8-1-17.1-2.7-1.7-2.3-7.4-4.8-13.5-5.7l-7-1.2 3.5-1.6c1.9-.8 5-2.1 6.9-2.8l3.5-1.3-3-.8c-1.6-.5-6.7-.8-11.4-.7-18.8.3-19.3.2-17.2-2.4 1.4-1.6 10.6-4.4 17.4-5.2 4.9-.6 6.8-1.9 4.3-2.8-.7-.3-6.9-.9-13.7-1.3-10.1-.5-14.6-.2-24.8 1.5-6.9 1.1-14.5 2.1-17 2.1-3.8 0-4.2-.2-3-1.4.8-.8 6.5-3.3 12.5-5.6 6.1-2.2 16.4-6.8 23.1-10.1 11.2-5.5 12.8-6 21.5-6.8l9.4-.8-10-.4c-23.5-.9-36.2.4-52.9 5.3-5.6 1.6-14.8 4.3-20.6 5.9-5.8 1.6-13 3.8-16.2 5-4.7 1.7-6 1.9-8 .8-2.2-1.2-2.2-1.3 2.7-3.5 2.8-1.2 8.7-3.2 13-4.4 4.4-1.2 14.2-4.9 21.7-8.1 16.1-6.9 44.6-17.3 50.3-18.3 2.2-.4 6.8-2.1 10.2-3.7 3.4-1.7 9-3.6 12.5-4.4l6.3-1.5-9 .5c-28.2 1.6-72.1 9.8-92 17.2-8.4 3.2-23.8 10.7-31.9 15.7-5.7 3.4-7.6 4.2-7.6 3.1 0-.2 4.7-4.2 10.5-8.8 18.9-15 38.9-25.4 67.8-35.4 7.1-2.4 15.6-5.8 19-7.5 8.2-4.1 18.1-7.8 24.2-9 2.8-.5 8.2-1.5 12-2.3 8.8-1.6 7.2-1.7-8-.5-23.9 2-44.8 7.3-80.8 20.4-33.2 12.1-52 21.7-67.2 34.5-4.9 4.1-9 6-10.2 4.7-1-.9 18.3-20.1 28.8-28.7 22.6-18.3 50.1-35 63.5-38.3C407 37 421.2 32.9 427 31c4-1.3 0-1-6 .5zm-87.2 47c-.7.8-4.8 1.5-4.8.9s4.4-2.3 4.9-1.8c.2.2.2.6-.1.9zM442 79c-1.4.4-3.8.8-5.5.8h-3l3-.8c1.7-.4 4.1-.8 5.5-.8h2.5l-2.5.8zm-19.6 4.1c-.3.5-1.1.9-1.9.9-.8 0-1.6-.4-1.9-.9-.3-.5.5-.9 1.9-.9s2.2.4 1.9.9zm-11.7 2.5c-.3.3-1.2.4-1.9.1-.8-.3-.5-.6.6-.6 1.1-.1 1.7.2 1.3.5zm-99.2 13.3c-.3.6-1.6 1.6-2.8 2.2-2.1 1.1-2.1 1 .2-1.5 2.3-2.5 4-2.9 2.6-.7zm7.1 8.3c0 1-.4 1.8-.8 1.8s-.8-.5-.8-1c0-.6-.4-1-1-1-.5 0-.9.3-.9.7.4 2.7-.4 4.5-2.6 5.5-1.4.6-2.5 1.7-2.5 2.5 0 .7-.4 1.3-.9 1.3s-1.1.7-1.4 1.4c-.4 1-.1 1.3.8 1 1.1-.5 1.2 0 .5 2.5-.6 2.1-.5 3.3.3 3.8.6.3 1.3.1 1.5-.5.2-.7.8-1.2 1.4-1.2.6 0 3.2-1.8 5.8-4 5.5-4.6 6-4.8 6-2 0 1.3-1 2.5-2.8 3.3-1.8.7-2.7 1.8-2.4 2.6.3 1 0 1.2-1.2.8-1-.4-1.4-.3-1.1.3.6 1-1.5 3.9-5.7 7.8-1.6 1.4-2.8 3-2.8 3.6 0 1.5-4.2 5.6-5.8 5.6-.8 0-1.2.6-.8 1.5.7 1.8-.5 2-2.3.2-1.1-1-1.3-.9-.8.5.4 1.1 0 1.9-1.4 2.3-1.4.5-1.8 1.2-1.3 2.9.7 2.7-1.1 3.7-4.3 2.5-2.7-1-2.9-3-.6-6.6 1.3-1.9 1.4-2.8.5-3.1-1.4-.4-1.6-3.8-.2-4.7.6-.3 1-1.7 1-2.9 0-1.3 1.1-3.5 2.5-5s2.5-3 2.5-3.4c0-.4 1.4-2.2 3-4 1.6-1.9 3.2-4.2 3.5-5.3.4-1 1.1-1.9 1.7-1.9.6 0 2.4-1.2 3.9-2.7 2.2-2.3 2.4-2.9 1.2-3.8-1.2-.9-1-1.1.8-1.2 1.2-.1 2.6-.6 3.2-1.2 1.5-1.5 4.3-.9 4.3 1.1zm10.4-.2c0 .5-.4 1-1 1-.5 0-1-.5-1-1 0-.6.5-1 1-1 .6 0 1 .4 1 1zm-3 1.6c0 .8-.5 1.2-1 .9-1.3-.8-3.7 1.6-3.4 3.3.1.7 0 .8-.3.2-.2-.5-.9-.8-1.4-.4-1.9 1.2-.8-.8 1.9-3.1 3.2-2.9 4.2-3.1 4.2-.9zm15 7.8c0 1.8 3 3 4.4 1.6 1.7-1.7 4.8-1.2 4.4.7-.2 1.1-1.2 1.8-2.6 1.7-1.2 0-2.2.3-2.2.8 0 .4-.5.8-1.1.8-.6 0-3 1.6-5.3 3.5-2.4 1.9-4.7 3.1-5.1 2.7-.5-.4-.1.6 1 2.3 1.1 1.9 1.3 2.6.4 1.9-1.5-1.2-5.1-1.5-4.4-.4.4.7-2.7 5.4-4.5 7-.3.3-1.3 1.7-2.3 3.2-1.3 2.2-1.4 2.6-.2 2.2 1.2-.5 1.2 0 .5 2.7-.5 1.8-.7 4.3-.4 5.5.3 1.3.2 2.9-.2 3.6-.5.7-.9 1.6-1 2-.1.5-.2 1.1-.3 1.4 0 .3-.8-.2-1.7-1-.8-.9-2.2-1.6-3-1.6-.8 0-1.4-.8-1.4-1.8 0-1.4-.2-1.5-1-.2-1.4 2.1-1.2 6 .2 6 .6 0 .8.3.5.6-.4.4-1.2.2-1.9-.3-.7-.6-3.5-1.8-6.3-2.7-4.7-1.6-10.7-4.5-9.4-4.6.4 0 2.6.7 5 1.5 3.4 1.2 4.4 1.3 5.1.3.4-.7.8-.9.8-.4s1.1-.4 2.5-2c1.8-2.1 2.1-3 1.2-3.6-.9-.6-.8-1.1.4-2.1.9-.7 2.9-3.7 4.5-6.7 4-7.7 6.3-11 13.5-19 5.8-6.5 9.9-8.9 9.9-5.6zm36.2 1.4c-3.5 3.1-3.9 4.2-1.8 4.2.8 0 1.6.5 1.8 1.1.2.6 1.6 1.2 3.1 1.2 1.5.1 2.7.8 2.7 1.6 0 1 1 1.2 3.8.9 3.2-.5 3.8-.3 3.9 1.4.1 1-.6 2.4-1.7 3-1 .7-1.6 1.8-1.3 2.7.4 1 0 .9-1-.4l-1.6-2-.6 2c-1.2 3.7-2.2 5-4.1 5.4-1 .2-2.5.8-3.3 1.4-.8.7-2.4 1-3.7.9-2-.3-2.4.1-2.4 2.3 0 2.2-.4 2.6-2 2.2-1.1-.3-1.8-.1-1.5.3.3.5-.3 1.3-1.2 1.9-1.5.9-1.6 1.2-.4 2 .9.6 2.2.6 3.2 0 2.2-1.1 2.9-1.1 2.9 0 0 .5-.9 1.1-2 1.4-1.1.3-2 1-2 1.5 0 .6 1.3.4 3-.4 2.8-1.4 2.9-1.9 2.4-5.3-.4-2.5-.2-4.1.6-4.6.9-.5 1-.2.6 1.2-.5 1.5-.2 1.9 1.3 1.8 1.1-.1 2.7-.7 3.6-1.5 1.3-1.1 1.3-1.5.3-2.2-.9-.6-.6-.7.8-.3 1.4.4 2.4 0 2.7-1 .4-.8 1.2-1.2 1.9-1 .7.3 3.1-1.1 5.2-3 4.4-3.9 5.1-4.2 4.3-2.1-.4 1-.1 1.3.9.9.7-.3 1.4-1.4 1.4-2.5s.8-2.2 2-2.5c1-.3 2.2-1.3 2.5-2.2.4-1.5 1.9-1.8 9.1-1.8 8.3-.1 11.2.9 3.7 1.2-2.9.1-3.8.5-3.7 1.8.1.9-.2 1.8-.7 1.8-.5.1-1.3.3-1.9.4-.5.1-1.7.3-2.5.4-.8 0-1.2.7-.9 1.4.3.8.1 2.4-.4 3.8-1.2 3-1.3 3.9-.7 3.9 1.2-.1 3.5 3 3.5 4.7 0 1.4.2 1.5.9.5.7-1.1.9-1.1 1.4.2.4.9 1.8 1.6 3.3 1.6h2.6l-2.3 2.1-2.4 2 3.2-1.7c1.7-.9 2.9-2.3 2.6-3-.6-1.5 10-6.6 13-6.2 1.8.3 1.9.5.6 1.8-3.6 3.7-8.9 10.4-8.9 11.2 0 1.2 4-.1 5.8-1.8 1.6-1.7 3.2-1.8 3.2-.3 0 .8.4.8 1.4 0 .8-.7 1.2-1.9 1-2.9-.3-1.1.5-2.1 2.2-2.9 1.5-.7 3-1.1 3.2-.8.8.7-.8 5.5-1.8 5.5-1.3 0-5 3.2-5 4.3 0 .4.5.5 1 .2.6-.3 1-.2 1 .3 0 1.5-1.2 2.2-2.4 1.4-1.7-1.1-7.6-.8-7.5.3.4 3.7-.2 4.7-2.4 4.2-1.2-.4-2.9-.2-3.7.3-1.3.8-1.3 1.1-.1 2.2 1.1 1 1.4 1 1.8 0 .3-.6.9-1.2 1.5-1.2.7 0 .7.5-.1 1.3-.8 1.1-.6 1.8.9 3.2 1.8 1.7 2 1.6 5.7-1.9 2.1-2 4.3-3.6 4.9-3.6.6 0 1.9-.9 2.9-2 2.4-2.7 10.5-7.1 11.6-6.4 1.5.9 1 2.4-.7 2.4-.8 0-1.2.5-.9 1.1.5.7 1.4.4 2.6-.7 1.1-.9 2.2-1.4 2.6-1 .4.4-1 2.2-3.2 4.1-3.1 2.6-3.7 3.6-2.8 4.6.9.9.8 1.5-.3 2.7-1.6 1.6-1.5 6.3.1 6.9.6.2 2.9-1.3 5-3.2 2.2-2 6.5-4.9 9.7-6.5 4.8-2.5 5.8-2.7 6.8-1.5.7.8 1.9 1.5 2.7 1.5.8 0-.7 2-3.4 4.5-8.8 8.2-11.3 10.9-10.8 11.3.2.3 1.1-.1 2-.8 3-2.5 1.5.9-2.5 5.5-6.2 7.1-4.8 6.4 3.8-2 6.1-6 7.4-7.8 6.2-8.5-1.2-.8-1.2-1 .2-1.5 2.9-1.1 5.3-.1 5.6 2.5.2 1.4.9 3.1 1.4 3.8.6.7.9 1.4.7 1.5-.2.2-2.5 2-5.1 4.1-3 2.4-5.4 3.6-6.4 3.2-1-.4-1.4-.2-1.1.6.2.7-.8 3.1-2.3 5.3-1.5 2.2-3.9 6.2-5.5 9l-2.8 5 5.6-5.8c6-6 7.5-7 5.7-3.7-2.2 4.1 1 1.8 7.2-5.1 5.6-6.3 9.8-9.5 12-9.1.4.1 3.1-1.4 6-3.3s5.7-3.5 6.3-3.5c.5 0 .4.4-.4.9-.9.6-1 1.1-.3 1.5.6.4 1.9-.5 2.8-1.9 1.9-2.9 3.4-3.3 3.4-.8 0 1.4.2 1.5.9.4.6-.9 1.1-1 1.5-.2.4.6.4 1.5.1 2.1-.9 1.4.1 1.3 3.5-.5 2.5-1.3 2.9-1.3 3.4.1.3.8 1.1 1.4 1.8 1.3.7-.1 2.3-.1 3.5 0 2 .1 2.1.4 1.1 2.6-.6 1.3-1.6 2.3-2.2 2.2-.7-.1-1 1.1-.8 3.3.2 2.9-.2 3.8-2.8 5.5-1.6 1.1-3 2.3-3 2.7 0 .4-.7 1.4-1.6 2.3-.9.9-1.3 1.9-1 2.3.4.3 1 .2 1.4-.3 2.2-2.9 9.3-8.8 10.9-9 2.8-.3 8.3-2.6 8.3-3.5 0-.4.9-1 2.1-1.3 1.2-.3 1.8-1 1.4-1.6-.3-.6-.1-1.1.5-1.1s.8-.5.5-1c-.3-.6.2-1.3 1.2-1.7 1-.3 3.7-2 6-3.6 5.8-4.1 7.7-2.5 2.5 2.2-3.3 3.1-3.9 4.1-3.5 6.8.5 2.9.7 3.1 2.4 2 1.6-1 2.1-.9 2.9.3.6.9 1 1 1 .3s.7-1 1.4-.7c.8.3 3.2-.8 5.3-2.5 4-3.2 9.6-4.9 8.7-2.7-.3.7-1.9 2.1-3.6 3.1-3.6 2.1-8.3 6-10.7 8.9-.9 1.1-2.8 3.3-4.3 4.9-2.9 3.1-3.5 4.3-1.8 3.2.6-.3 1-.1 1 .6s1.3.1 2.8-1.4c1.5-1.5 3.3-2.7 4-2.7.7 0 1.2-.3 1.2-.8 0-.4 1-1.3 2.1-2.1 2.7-1.6 4.1.1 3.2 3.8-.5 1.9-.3 2.3.9 1.9.8-.4 2.1-.2 2.9.3 1.1.7 1 1.1-.7 2.4-1.2.8-2.7 2.8-3.2 4.4-1 2.7-.9 3 1.1 2.8 1.2-.1 2.7-.7 3.2-1.5.6-.7 1.8-1 2.8-.6 2.1.8 2.2 1.8.1 3.5-1.5 1.2-1.6 1.1-1-1.1.6-2.2.5-2.3-.4-.7-2.2 3.5-1.9 6.5.7 7 1.3.2 2.6 0 2.9-.4.3-.5-.2-.9-1-.9-2.2 0-2-1.7.3-3 2.5-1.3 4.1-1.3 2.1 0-.8.5-1 1-.4 1s2.3-1.2 3.7-2.6c2.1-2.1 2.9-2.3 4.6-1.5 1.3.7 2.2.8 2.6.1.3-.5 1.1-1 1.8-1 2.1 0-2.7 2.7-6 3.5-1.8.3-3.3 1.3-3.3 2 0 .9-.6 1.2-1.7.8-1.3-.5-1.5-.2-.9 1.2.4 1.3-.2 2.7-2.1 4.7-2.1 2.2-2.4 3.1-1.5 4 .8.8 1.2.8 1.2.1 0-.6.7-1.4 1.6-1.7.8-.3 1.2-.2.9.4-.3.6.3 1 1.4 1 2.4 0 2.8 1.8.6 2.6-.8.4-1.5 1.3-1.5 2.1 0 1.2 1 .9 4.4-1.1 2.5-1.4 5.4-2.6 6.5-2.6 2.7 0 2.7 2.6.1 4.2s-2.6 3.1 0 2.3c1-.3 3.2.1 4.7.9l2.8 1.4-2.8 1.1c-1.5.6-3 1.8-3.4 2.6-.3.9-1.2 1.4-2 1.1-.9-.4-1.7.1-2 1.3-.3 1.2-1.1 1.7-1.9 1.4-.8-.3-1.4 0-1.4.5 0 .6-.9 1.3-2 1.7-1.1.3-1.9 1-1.7 1.5.1.5-.5 1.5-1.3 2.2-.8.7-1.3 1.2-1.1 1.1.2-.2 1 .2 1.8.8 1 .9 1.7.8 2.8-.1.9-.7 1.3-1.5 1.1-1.8-.9-.8 2.4-3.3 3.5-2.6.6.3 3.5-1.8 6.5-5 3-3.1 5.4-5.4 5.4-5.1 0 1.5 3.8-1.7 4.3-3.5.5-2 .4-2-1.8-.6-2 1.3-2.9 1.3-5.9.3l-3.5-1.2 2.5-2.4c1.9-1.8 2.3-1.9 1.7-.5-.6 1.7-.5 1.7 1.7.1 1.4-.9 3.7-1.7 5.3-1.7 1.6 0 2.6-.4 2.2-1-1-1.7 3.5-1.1 5.3.7.9.9 1.6 1.9 1.5 2.2-.2.3.4.6 1.1.6.8 0 1.8.4 2.2.8.4.4-.2.7-1.4.7s-2.2.4-2.2 1c0 .5.5 1 1.2 1 .9 0 .9.3 0 1.2-1.3 1.3.1 3.8 2.1 3.8.6 0 .8-.3.4-.6-.7-.7 2.9-4.4 4.3-4.4.6 0 1 .5 1 1.2 0 .6.2.9.5.6.9-.8-.6-3.8-1.6-3.2-.5.3-.9 0-.9-.5 0-.6 1.1-1.1 2.4-1.1 2.1 0 4.4-2.6 3.3-3.7-.6-.5-3.7.8-3.7 1.6 0 1.3-3.7.5-5.4-1.1-2.7-2.8-1.9-4.4 2-3.9 1.2.1 3.1-1.8 3.4-3.4.1-.6 1-.9 2.1-.8 1.2.2 1.9-.3 1.9-1.3 0-1.1.6-1.4 2.1-.9 1.2.4 1.9.3 1.6-.2-.3-.5.3-.9 1.4-.9 2 0 2.3.5 1.3 3-.3.9-1 1.3-1.5 1-.5-.3-.9 0-.9.5 0 .6-1 2.1-2.2 3.3-1.4 1.4-1.8 2.3-1 2.6.7.2.9.9.6 1.4-.4.7-.2.8.4.4.6-.4.9-1.3.5-2.1-.4-1.1 0-1.4 1.3-.9 1.1.4 1.6.3 1.2-.1-.5-.5.6-1.7 2.4-2.8 2.2-1.3 2.8-2.1 1.9-2.7-1-.6-1-.9-.1-1.5.7-.4 1.6-.1 2.1.6.7.9.7.5.3-1.4-.4-1.7-.2-2.7.5-2.7.6 0 1.1-.5 1.1-1.1 0-.5-.4-.7-1-.4-.6.3-.7-.1-.4-.9.3-.9 1.1-1.6 1.6-1.6.6 0 1.8-.8 2.7-1.8.9-1 2.4-2.1 3.3-2.5.9-.3 2.1-1.5 2.7-2.6.9-1.6.7-2.1-.9-2.6-1.1-.3-2-1.3-2-2.1 0-1.1-1.4-1.4-6.2-1.2-3.5.2-6.7.7-7.1 1.3-.6.7-1 .6-1.3 0-.2-.6-2.1-.9-4.2-.7-3.4.4-3.6.3-2.2-1.2 1.3-1.6 1.1-1.7-2.3-1.1-2.5.5-3.7.4-3.7-.4 0-1.6 13.1-1.4 23.6.5 4.9.8 10.5 1.3 12.5 1 4.2-.7 12.9.3 12.9 1.4 0 .4-1.1 1.1-2.5 1.4-3 .8-24 18.1-31.1 25.7-2.7 3-7 8.1-9.4 11.4-2.4 3.3-8 9.6-12.4 14.1-9.3 9.3-16.3 13.2-29.6 16.5-4.7 1.1-10.3 2.6-12.5 3.2-2.2.6-4.6 1.1-5.3 1-.7 0-1.1.1-.8.4.3.3-.8 1.6-2.4 2.9l-2.9 2.5-4.8-2.3c-2.6-1.2-4.9-2.6-5.1-3-.2-.4-.8-.8-1.4-.8-.9 0-11.9-6.1-23.8-13.2-6.2-3.8-38.4-25-41.5-27.5-1.6-1.3-3.4-2.7-4-3.1-.5-.4-3.9-2.3-7.5-4.1-3.6-1.9-11.6-6-17.7-9.2-6.2-3.3-12.1-5.9-13-5.9-1.6 0-1.6-.2-.3-1.1 1.2-.9 1.1-1-.5-.4-2.4.8-21.7-7.3-20.8-8.8.3-.5.8-.5 1.2 0 .3.5 1.4.1 2.4-.9.9-1 1.5-1.8 1.2-1.8-.3 0 .3-1 1.5-2.2 1.1-1.2 1.8-2.4 1.5-2.7-.3-.2-1.1.2-1.8 1.1-1.5 1.9-4.7 3.1-4.7 1.8 0-.6.5-1 1.1-1 .6 0 .9-.9.6-1.9-.2-1 0-2.5.5-3.2.8-1.1.9-1 .4.3-.3 1-.1 1.8.3 1.8.5 0 1.1-.6 1.4-1.3.3-.9.7-.9 2 .2 1 .7 1.7.9 1.7.4s.8-1.8 1.8-2.9c3.7-4.1 7.3-9.4 6.3-9.4-.5 0-1.3.5-1.6 1-.4.6-1.1.8-1.6.4-.6-.3-1.9.2-3 1.2-1.5 1.3-1.8 2.5-1.3 4.7.4 2 .3 2.7-.5 2.3-.6-.4-1.1-1.4-1.1-2.3 0-.9-.6-1.3-1.5-.9-.8.3-1.5.2-1.5-.1 0-1.4 5.3-8.3 6.4-8.3.6 0 .3-.5-.7-1.1-1-.6-2.1-.8-2.4-.5-.4.3-.1.6.6.6s.9.4.6 1c-.3.5-1.7 1-3.1 1-1.9 0-2.4.5-2.4 2.4 0 1.4-.5 2.8-1.1 3.2-.8.4-.7.9.2 1.5 1.1.7 1 .9-.3.9-.9 0-1.9-.6-2.1-1.3-.4-.8-.8-.9-1.4-.1-.4.6-1.5 1.4-2.3 1.8-.8.3-.5.4.8.2 1.4-.3 2.2.1 2.2 1 0 .8-.5 1.4-1.2 1.4-.6 0-.3.9.8 2.1 1.8 2 1.8 2.1-.1 3.5-1 .8-2.2 1.4-2.7 1.4-1.2 0-1-1.8.3-2.2.7-.2.3-1.3-.8-2.7l-2-2.4.1 3.5c.1 2.6-.2 3.4-1.2 3.1-.7-.3-1.9.2-2.5 1.1-1.1 1.6-2.3 1.2-13-4.4-6.5-3.3-12.5-6.6-13.3-7.3-4.6-3.8-4.5-3.5-1.9-8.7 1.4-2.7 2.9-5.1 3.5-5.5.6-.4.8-1.1.5-1.6-.4-.5-.2-.9.3-.9s1.2-.9 1.5-2c.7-2.6.3-2.5-2.6.3-1.2 1.3-2.1 3-1.9 3.8.5 1.5.4 1.4-1.8-1.5-1.3-1.8-1.3-1.9 0-1.1 1.3.7 1.3.6.1-.6-1-1-1.5-1.1-1.8-.2-.2.7-1.2.9-2.1.6-1.2-.4-1 0 .6 1.4 2.5 2.3 2.9 4.3.7 4.3-.8 0-1.5.6-1.6 1.2-.2 2-1.7-3.4-1.8-6.4-.1-1.5.6-3.3 1.4-4.1.8-.8 1.1-1.7.8-2-.9-.9 2.3-3.7 4.4-3.8 1 0 1.3-.3.6-.6-1.7-.6-1.6-2.3.1-2.3.7 0 1.6-.9 1.9-2 .4-1.6.2-1.8-1.2-1-1.2.6-2.2.5-3-.3-.9-.9-.6-1.6 1.1-2.9 1.7-1.3 1.9-1.8.8-1.8-2.2 0-6 2.9-6 4.5 0 .8-.8 1.9-1.7 2.4-1.1.6-1.3 1.1-.5 1.1.9 0 .8.6-.3 2.4-1.1 1.6-1.3 2.6-.6 3.1.6.3 1.1-.1 1.1-.9 0-.9.4-1.6.9-1.6.9 0 .5 1.6-1.5 7.2-.7 1.9-2.4 2.5-2.4.8 0-.6-.4-1-1-1-1.8 0-1 1.7 1.3 2.8 2 1 2.1 1.1.2 1.1-1.7.1-1.7.3-.5 1.1 1.1.7 1.1 1 .2 1-.7 0-1.1.4-.7 1 .8 1.4-1.7 5-3.6 5-.9 0-3.1-.7-5-1.6-11.8-5.6-17.8-8.8-17.5-9.2.2-.2 1.4.2 2.6.8 3.1 1.7 6.2.5 8.3-3.1 2-3.6 2.2-5.9.5-5.9-.7 0 .2-1.4 2-3 1.7-1.6 3.2-3.5 3.2-4.1 0-.7-1.1 0-2.4 1.6-1.3 1.5-2.8 2.6-3.4 2.4-1.2-.4 3.8-6.4 5.9-7.1.8-.3.2-.7-1.3-1-2.3-.4-2.8-.2-2.8 1.3 0 1.1-.4 1.9-1 1.9-1.1 0-.3-2.6 2-6 1-1.4 1.5-3.1 1.2-3.9-.2-.7 1.2-2.8 3.3-4.6 2-1.9 3.5-4 3.2-4.7-.7-1.9 2.2-4.8 4.1-4.1 1 .4 1.4.3 1-.1-.4-.5-.1-1.4.5-2.1 1-1.1 1.5-.7 2.7 2l1.5 3.4 3.9-2c2.2-1 4.1-1.7 4.3-1.5.2.1-.6 1.5-1.8 2.9-1.1 1.5-1.6 2.7-1 2.7 1.1 0 8.1-8.2 8.1-9.6 0-.7 9.8-4.7 12.9-5.3.3-.1-1 1.2-2.7 2.7zm-11.6 1.3c.3.6.2 1.5-.3 2s-1.4 0-2.1-1.1c-1-1.7-1-2 .2-2 .8 0 1.8.5 2.2 1.1zm-9.2 3.8c.3.5-.3 1.1-1.3 1.4-1.4.3-1.8.1-1.4-.9.6-1.6 1.9-1.8 2.7-.5zM444 135c0 .5-.4 1-1 1-.5 0-1-.5-1-1 0-.6.5-1 1-1 .6 0 1 .4 1 1zm22.7.6c-.3.3-1.2.4-1.9.1-.8-.3-.5-.6.6-.6 1.1-.1 1.7.2 1.3.5zm-25.7.8c0 .2-.7.7-1.6 1-.8.3-1.2.2-.9-.4.6-1 2.5-1.4 2.5-.6zm-63 6.6c0 .5-.5 1-1.1 1-.5 0-.7-.5-.4-1 .3-.6.8-1 1.1-1 .2 0 .4.4.4 1zm-49.6 2.5c-.4.8-1.1 1.2-1.6.9-.6-.4-.5-1 .3-1.5 1.9-1.2 1.9-1.1 1.3.6zm39.7 3.8c-1 .9-1.1.8-.5-.6.3-1 .9-1.5 1.2-1.2.3.3 0 1.1-.7 1.8zm63.4.7c.3.5.1 1-.4 1-.6 0-1.1-.5-1.1-1 0-.6.2-1 .4-1 .3 0 .8.4 1.1 1zm59.2 1.6c-.3.3-1.2.4-1.9.1-.8-.3-.5-.6.6-.6 1.1-.1 1.7.2 1.3.5zm26.1 8.9c-.3.3-.9-.2-1.2-1.2-.6-1.4-.5-1.5.5-.6.7.7 1 1.5.7 1.8zm-197.4 1.7c-.3.4 0 .8.7.8s1 .2.7.5c-1.2 1.3-3.6-.7-3.1-2.6.4-1.5.8-1.7 1.4-.8.4.7.5 1.7.3 2.1zm202.3 5.4c-.3.3-1.2.4-1.9.1-.8-.3-.5-.6.6-.6 1.1-.1 1.7.2 1.3.5zm4 0c-.3.3-1.2.4-1.9.1-.8-.3-.5-.6.6-.6 1.1-.1 1.7.2 1.3.5zm-426.7 2c0 .8-.5 1.2-1 .9-.6-.4-.8-1.1-.5-1.6.9-1.4 1.5-1.1 1.5.7zm444.2 3.1c-.6.2-.9 1-.6 1.5.4.7.2.8-.4.4-1.8-1.1-1.4-2.6.6-2.5 1 0 1.2.3.4.6zm-192.3 5.1c1.4 1 1.3 1.1-.7.4-1.3-.4-2.3-1.1-2.3-1.5.1-.4.1-1.3.2-2 0-.7.3-.6.6.3.4.8 1.3 2.1 2.2 2.8zm215.4-3.1c-1.3.2-3.3.2-4.5 0-1.3-.2-.3-.4 2.2-.4s3.5.2 2.3.4zm-10.8 1.5c-1.1.6-2.4 1.6-3 2.2-1.8 2.1-8.5 5.8-8 4.4.7-1.8 9.6-7.8 11.5-7.8 1.1.1 1 .4-.5 1.2zm-69.5.9c0 1-2.7 1.9-3.4 1.2-1.2-1.2-.5-2.2 1.4-2 1.1.1 2 .4 2 .8zm-77.3 6.1c-.3.7-.5.2-.5-1.2s.2-1.9.5-1.3c.2.7.2 1.9 0 2.5zm162.3-2.3c0 1.3-2.7 2.1-4.6 1.4-1.3-.5-1.3-.7-.2-1.4 1.7-1.1 4.8-1.1 4.8 0zm-30 5.2c0 .6-.4.7-1 .4-.5-.3-1-1.1-1-1.6 0-.6.5-.7 1-.4.6.3 1 1.1 1 1.6zm-28 .9c0 .5-.4 1-1 1-.5 0-1-.5-1-1 0-.6.5-1 1-1 .6 0 1 .4 1 1zm71.5 4c-.3.5-1.4 1-2.3.9-1.4 0-1.3-.2.3-.9 2.7-1.1 2.7-1.1 2 0zm9 2.1c.5.6.3.9-.5.9-2.7 0-6-1.2-6-2.1 0-1.1 5-.1 6.5 1.2zm-201.1 3.4c-.4.8-.1 1.5.7 1.5.7 0 1 .2.7.5-.3.3-1.3.3-2.2-.1-1.3-.5-1.4-.9-.5-2 1.5-1.8 2-1.8 1.3.1zm186 5.1c.5 1.4.4 1.5-.9.4-1.7-1.4-1.9-2-.6-2 .5 0 1.2.7 1.5 1.6zm41.6-.1c0 .8-.5 1.5-1.1 1.5-.7 0-3.5 1.5-6.3 3.3-2.8 1.9-6.7 4-8.6 4.7-1.9.8-3.8 1.9-4.2 2.4-.5.7-.8.4-.8-.6 0-.9.5-2 1-2.3.6-.4.8-1.5.5-2.5-.4-1.3.1-2.2 1.4-2.9 3.3-1.8 4.8-1.2 2.2.9-1.3 1.1-1.9 2-1.4 2 1.8 0 8.4-3.6 7.7-4.2-.3-.4.2-.5 1.3-.2 1 .2 3.2-.4 4.8-1.5 3.7-2.4 3.5-2.4 3.5-.6zm-48 4.9c0 .9-3 1.4-3.5.6-.4-.6.3-1 1.4-1 1.2 0 2.1.2 2.1.4zm26 2.4c0 1.2-2.3 3.2-3.7 3.2-1.1 0-1.1-.4-.1-2 1.3-2 3.8-2.8 3.8-1.2zm-509.3 7.4c-.3.8-.6.5-.6-.6-.1-1.1.2-1.7.5-1.3.3.3.4 1.2.1 1.9zm492.7 2.7c.3.5-.1 1.1-.9 1.4-.9.4-1.2.1-.8-.9.6-1.6 1-1.7 1.7-.5zm4.1 1.1c.3.5-.1 1-.9 1-.9 0-1.6-.5-1.6-1 0-.6.4-1 .9-1 .6 0 1.3.4 1.6 1zm-20.5 1.5c-.7.9-1.5 1.3-1.9 1-.3-.3.1-1 .9-1.5 2.1-1.4 2.4-1.2 1 .5zm5 1.4c0 .5-.7 1.2-1.6 1.5-1.4.5-1.5.4-.4-.9 1.4-1.7 2-1.9 2-.6zm7 3.1c-1.9 1.3-3 1.3-3 0 0-.6 1-1 2.3-1 1.8 0 1.9.2.7 1z"/><path d="M298 137.1c0 .5.5.7 1 .4.6-.3 1-.8 1-1.1 0-.2-.4-.4-1-.4-.5 0-1 .5-1 1.1zM321.5 148c.3.5.8 1 1.1 1 .2 0 .4-.5.4-1 0-.6-.5-1-1.1-1-.5 0-.7.4-.4 1zM350.2 128.6c-.8.8-1.1 2.2-.8 3 .3.7.1 1.4-.4 1.4-.6 0-1-.5-1-1 0-.6-.4-1-1-1-.5 0-.7.7-.4 1.5.8 2 2.4 1.9 5.4-.5 2.2-1.7 2.3-2.1 1-3.4-1.3-1.3-1.7-1.3-2.8 0zM382.7 130.1c.4 1.5.8 1.7 1.9.8 1.8-1.5 1.8-1.6-.5-2.2-1.4-.3-1.7 0-1.4 1.4zM353 134.1c0 .5.5.7 1 .4.6-.3 1-.8 1-1.1 0-.2-.4-.4-1-.4-.5 0-1 .5-1 1.1zM402 134c0 .5.5 1 1.1 1 .5 0 .7-.5.4-1-.3-.6-.8-1-1.1-1-.2 0-.4.4-.4 1zM343.1 138.6c0 1.1.3 1.4.6.6.3-.7.2-1.6-.1-1.9-.3-.4-.6.2-.5 1.3zM395.8 137.7c.7.3 1.6.2 1.9-.1.4-.3-.2-.6-1.3-.5-1.1 0-1.4.3-.6.6zM372 139.1c0 .5.5.7 1 .4.6-.3 1-.8 1-1.1 0-.2-.4-.4-1-.4-.5 0-1 .5-1 1.1zM403 144.1c0 .5.5.7 1 .4.6-.3 1-.8 1-1.1 0-.2-.4-.4-1-.4-.5 0-1 .5-1 1.1zM398.9 152c-1.3 2.2-2.7 4-3.1 4-.4 0-.4.7-.1 1.7.4 1 .2 1.4-.5 1-1.3-.9-6.3 5.3-5.5 6.7.4.6.8.5 1.1-.2.2-.7 1-1.2 1.8-1.2 1.1 0 1 .5-.6 2.2-1.1 1.2-2 2.8-2 3.5 0 .7-.6 1.3-1.4 1.3-.9 0-1.3-.7-1.1-1.8.2-1-.1-2.5-.7-3.3-.8-1.1-.9-1.1-.5.3.3.9.1 1.8-.5 2-.6.2-.5 1.7.5 4.1 1.5 3.4 1.5 3.7 0 3.7-.9 0-1.4.3-1 .6.9.9 4.8-.7 4.5-1.8-.2-.6 1.6-3.1 4-5.7 4.3-4.5 7.9-10.8 6.8-11.8-.3-.3.3-1.8 1.3-3.2 1.6-2.2 1.7-2.9.7-4.3-1.1-1.5-1.5-1.3-3.7 2.2zm2.1 2c0 .5-.5 1-1.1 1-.5 0-.7-.5-.4-1 .3-.6.8-1 1.1-1 .2 0 .4.4.4 1zm-2 5c-.6 1.1-1.5 2-2 2-.6 0-.5-.9.2-2s1.6-2 2.1-2c.4 0 .3.9-.3 2zm-5.5 9c-.3.5-1.1 1-1.6 1-.6 0-.7-.5-.4-1 .3-.6 1.1-1 1.6-1 .6 0 .7.4.4 1zM404.7 153.7c-.4.3-.7 1.1-.7 1.7 0 .6.5.5 1.2-.2.6-.6.9-1.4.7-1.7-.3-.3-.9-.2-1.2.2zM365 157.1c0 .5.5.7 1 .4.6-.3 1-.8 1-1.1 0-.2-.4-.4-1-.4-.5 0-1 .5-1 1.1zM362.4 159.7c1 1.1 3.7 1.2 3 .2-.3-.5-1.2-.9-2.1-.9-.9 0-1.3.3-.9.7zM413.6 165.6c-.4 1-.1 1.4.6 1.2 1.5-.5 2.3-2.8 1-2.8-.5 0-1.3.7-1.6 1.6zM410.3 170c-.4 1.4-.8 1.8-1.3 1s-1-.8-1.4-.2c-.3.5 0 1.2.8 1.5 1.9.7 5.2-2.8 3.6-3.8-.7-.4-1.4.2-1.7 1.5zM418.3 169.7c-.7.2-1.3 1.1-1.3 1.8 0 1.2-3.6 3.1-5.1 2.8-.3-.1-.6.5-.6 1.2 0 1 .4 1.2 1.2.5.6-.5 2.1-.8 3.2-.6 1.4.3 2.5-.3 3.3-2 .8-1.3 1.7-2.4 2.2-2.4.4 0 .8-.5.8-1 0-1-1.6-1.2-3.7-.3zM379 171c0 .5.5 1 1 1 .6 0 1-.5 1-1 0-.6-.4-1-1-1-.5 0-1 .4-1 1zM364 175c-1 .6-.9.9.1 1.3 1.2.4 1.1.7-.1 1.6-1.1.8-1.2 1.1-.2 1.1 1.3 0 4.2-2.3 4.2-3.3s-2.7-1.5-4-.7zM438 177.5c-1.8 1.9-3.1 3.8-2.7 4.2.4.3 1.6-.3 2.7-1.5 1.2-1.2 1.7-2.2 1.3-2.2-.4 0 .2-.6 1.3-1.4 1-.8 1.6-1.7 1.3-2-.3-.3-2.1 1-3.9 2.9zM376.7 178.1c-.3 1.2-1 1.8-1.5 1.5-.6-.3-1.3.1-1.6 1-.4 1.1-.2 1.5.7 1.1.8-.3 1.4.4 1.5 2 .3 3.3 2.1 6.5 3.3 5.8 1.5-1 1-3.5-.8-3.5-.9 0-1.4-.3-1-.6.3-.4 2-.2 3.6.4 1.7.6 3.1.7 3.1.2 0-.5.8-1.7 1.8-2.6 1.6-1.7 1.6-1.8 0-1.1-2 .7-2.5-.8-.5-1.6.9-.4.8-.8-.3-1.6-.9-.6-1.6-.7-1.8-.1-.2.6-1 1-1.8 1s-1.4.7-1.4 1.5-.4 1.5-1 1.5c-1.4 0-1.3-3.7.2-4.2.6-.2.8-1 .4-1.6-1.1-1.8-2.3-1.4-2.9.9zM369 178.5c0 1.7.9 1.9 2.8.6 1.1-.7 1-1-.3-1.5-2.3-.9-2.5-.8-2.5.9zM464.2 179c-1.7 2.8-1.5 3.2.8 2 1.1-.6 2-1.7 2-2.5 0-2.1-1.3-1.9-2.8.5zM491.4 181.8c.3.5-.6 2-2 3.5-1.3 1.4-2.4 2.8-2.4 3.1 0 1 3.3-.7 5.2-2.6 2.2-2.2 2.3-3.4.2-4.2-.8-.3-1.3-.2-1 .2zM433 183c.8.5 2 1 2.5 1 .6 0 .3-.5-.5-1s-1.9-1-2.5-1c-.5 0-.3.5.5 1zM429 185.5c0 .5-1 2.1-2.1 3.5-1.6 1.9-1.9 2-1.5.6.6-1.6.4-1.7-1-.5-.9.7-1.2 1.5-.6 1.7.6.2 1 .9.8 1.5-.1.7-.1.9.1.4.8-1.4 2.5-.7 1.9.8-.6 1.7.9 2 2 .4.3-.6.1-1.5-.6-1.9-1.5-1 .9-5.2 2.7-4.6.9.4 2.3-1.4 2.3-2.9 0-.9-4 .1-4 1zM415.5 190c-.3.5-.1 1 .4 1 .6 0 1.1-.5 1.1-1 0-.6-.2-1-.4-1-.3 0-.8.4-1.1 1zM488.5 194c-1.6 1.6-2.5 3.3-2.2 3.7.4.3.8.4 1 .2.1-.2 1.5-1.9 3.1-3.7 3.7-4 2-4.3-1.9-.2zM421 193.5c0 .5.5 1.7 1 2.5s1 1 1 .5c0-.6-.5-1.7-1-2.5s-1-1.1-1-.5zM481.5 196.1c-.4.6-.5 1.2-.2 1.5.2.3.7-.2 1-1.1.7-1.7.1-2-.8-.4zM483 199.1c0 .5.5.7 1 .4.6-.3 1-.8 1-1.1 0-.2-.4-.4-1-.4-.5 0-1 .5-1 1.1zM411.7 200.6c.4 1.1.3 1.5-.4 1.1-.6-.4-1.3-.1-1.6.6-.3.8.4 1.9 1.5 2.6 1.7 1.1 2.3 1 3.9-.6 2.1-2 1.4-3.7-1.8-4.7-1.9-.6-2.2-.4-1.6 1zM479 199.4c0 .2.7.7 1.6 1 .8.3 1.2.2.9-.4-.6-1-2.5-1.4-2.5-.6zM498.8 209.2c-4.9 4.9-8.8 9.7-8.8 10.6 0 1.3.3 1.2 1.9-.4 1-1 1.7-2.1 1.5-2.3-.5-.6 3.9-3.6 4.8-3.4.4.2.4-.5.1-1.4-.4-1-.2-1.4.5-.9.6.3 1.3-.2 1.7-1.3.3-1.1 1.9-2.6 3.5-3.3 1.9-.8 2.5-1.5 1.7-2s-.4-.8 1.1-.8c1.2 0 2.2-.5 2.2-1 0-.6.7-1 1.6-1 .8 0 1.2-.5.9-1-1.4-2.3-4.5-.4-12.7 8.2zM491.3 207.4c-2.9 2.8-5.3 5.7-5.3 6.4 0 .8-.5 1-1.2.6s-.8-.3-.4.4.1 1.2-.8 1.2-1.6.6-1.6 1.4c0 .8-.7 2.2-1.6 3-.8.9-1.2 1.6-.7 1.6 1.2 0 7.9-7.2 7.6-8.2-.2-.4.5-.8 1.4-.8.9 0 1.3-.3 1-.6-.4-.4.1-1.4 1.1-2.3 3.7-3.6 7.5-8.1 6.6-8-.5.1-3.3 2.5-6.1 5.3zM517.2 203.7c-1.2.3-2.8 1.3-3.5 2.4-.6 1-1.9 1.9-2.7 1.9-.8.1-3.4 2.5-5.7 5.4-4.4 5.5-5.7 8.1-2.5 5.3 1-1 2.2-1.4 2.7-1 .4.5.5.2.1-.5s-.2-1.2.6-1.2c.7-.1 4.5-3 8.3-6.5 3.9-3.6 6.6-6.4 6-6.3-.5 0-2 .3-3.3.5zM474 205c0 .5.5 1 1 1 .6 0 1-.5 1-1 0-.6-.4-1-1-1-.5 0-1 .4-1 1zM526.6 207.6c-2.3 2.3-2 3 .4.9 1.1-1 2-2 2-2.2 0-.7-.9-.2-2.4 1.3zM429.5 208c-.4.6-1.1.8-1.6.5-.5-.3-.6.1-.3.9.3.9 1 1.6 1.6 1.6.5 0 .7-.4.3-.9-.3-.6.3-1.4 1.2-2 1-.6 1.3-1.1.6-1.1-.6 0-1.5.5-1.8 1zM471 209.5c-.7.9-.8 1.5-.2 1.5.5 0 1.2-.7 1.6-1.5.3-.8.4-1.5.2-1.5s-.9.7-1.6 1.5zM430.6 211.6c-.3.7.2 1 1.5.7 2.2-.6 2.6-2 .4-2-.8 0-1.6.6-1.9 1.3zM544.1 217.1c-2.2 2-2.3 3.8-.2 2.4 1.1-.6 3.5-4.5 2.8-4.5-.2 0-1.3.9-2.6 2.1zM461 218c0 .6.7 1 1.5 1s1.5-.2 1.5-.4-.7-.6-1.5-1c-.8-.3-1.5-.1-1.5.4zM459.6 221.4c2.1 1.5 3 1.4 1.9-.3-.3-.6-1.4-1.1-2.3-1.1-1.3 0-1.3.2.4 1.4zM518.1 224.5c-2.4 2.5-3.9 4.5-3.4 4.5 1.2 0 8.8-7.8 8.2-8.5-.3-.2-2.5 1.6-4.8 4zM553 221.5c0 1-.5 1.3-1.2.9s-.8-.3-.4.4 1.1 1.2 1.6 1.2c1.2 0 2-2.9 1-3.5-.6-.4-1 .1-1 1zM510.9 222.7c-1.3 1.6-1.2 1.7.4.4 1.6-1.3 2.1-2.1 1.3-2.1-.2 0-1 .8-1.7 1.7zM540.7 222.7c-1.2 1.2-.7 2.2.8 1.7.8-.4 1.5-1 1.5-1.5 0-1.1-1.4-1.2-2.3-.2zM483 226.6c0 .8.5 1.2 1 .9.6-.3 1-1 1-1.6 0-.5-.4-.9-1-.9-.5 0-1 .7-1 1.6zM474.5 228c-1.6 1.7-1.6 2-.3 1.5.9-.4 1.9-1.3 2.2-2.1.7-1.9.2-1.8-1.9.6zM550.6 226.7c.5.5 1.2 1.2 1.6 1.8.4.6.8.2.8-.8 0-.9-.7-1.7-1.7-1.7-.9 0-1.2.3-.7.7zM507.5 228c-.3.5-.1 1 .4 1 .6 0 1.1-.5 1.1-1 0-.6-.2-1-.4-1-.3 0-.8.4-1.1 1zM489.7 233.1c-2.2 4.5-2.2 4.8-.4 3.2 2.2-2 2.2-2.2.1 4.7-.9 2.9.9 2.4 4.4-1.2 3.9-3.9 4.2-9 .6-10.6-2-1-2.4-.6-4.7 3.9zm5.3 3.4c-.7.9-1.5 1.3-1.8 1-.3-.2.1-1.1.8-2 .7-.9 1.5-1.3 1.8-1 .3.2-.1 1.1-.8 2zM533.6 230.1c-1.1 1-1.6 1.9-1.2 1.9 1.4 0 4.6-2.1 4.6-3 0-1.5-1.3-1.1-3.4 1.1zM580.2 231.1c-1.2 1.9-1.1 1.9.8.9 1.1-.6 2-1.5 2-2 0-1.7-1.5-1.1-2.8 1.1zM503.9 231.7c-1.3 1.6-1.2 1.7.4.4 1.6-1.3 2.1-2.1 1.3-2.1-.2 0-1 .8-1.7 1.7zM511.5 231c-.3.5-.1 1 .4 1 .6 0 1.1-.5 1.1-1 0-.6-.2-1-.4-1-.3 0-.8.4-1.1 1zM590 233.2c0 .9-.3 2.3-.6 3.2-.3.9-.2 1.6.4 1.6 1.4 0 2.1-3.5 1.1-5.1-.7-1.1-.9-1.1-.9.3zM499.3 236.6c-1.5 1.6-1.6 2.4-.4 2.4.8 0 2.4-3 1.9-3.5-.2-.2-.9.3-1.5 1.1zM509 236c0 .5.5 1 1 1 .6 0 1-.5 1-1 0-.6-.4-1-1-1-.5 0-1 .4-1 1zM562.2 238.2c-5.2 3.6-7.2 6.8-4.3 6.8 1.1 0 2.6-.6 3.3-1.4.8-.7 2.4-1.7 3.6-2 2-.7 2.7-1.7 2.3-3.9 0-.4.2-.6.7-.6 1.4.3 4.5-.1 4.1-.5-2-1.7-5.8-1.1-9.7 1.6zM526 237c-.8.5-1 1-.5 1 .6 0 1.7-.5 2.5-1s1.1-1 .5-1c-.5 0-1.7.5-2.5 1zM583 238c0 .5.5 1 1.1 1 .5 0 .7-.5.4-1-.3-.6-.8-1-1.1-1-.2 0-.4.4-.4 1zM550.6 239.2c.3.5 1 .6 1.5.3 1.3-.9 1.1-1.2-.6-1.2-.8 0-1.2.4-.9.9zM504.6 241.5c-1.8 2.7-2 3.5-.8 3.5.4 0 1.6-1.4 2.5-3 2.2-3.6.6-4.1-1.7-.5zM523 240.5c-.8.9-.8 1.5-.2 1.5 1.2 0 2.6-1.9 1.9-2.6-.2-.2-1 .2-1.7 1.1zM590 240c0 .5.4 1 .9 1 .6 0 1.3-.5 1.6-1 .3-.6-.1-1-.9-1-.9 0-1.6.4-1.6 1zM547 241c0 .5.4 1 .9 1 .6 0 1.3-.5 1.6-1 .3-.6-.1-1-.9-1-.9 0-1.6.4-1.6 1zM583.5 242c-.7 1.1 3 1.9 4.5 1 .7-.5.2-.9-1.4-1.2-1.5-.3-2.9-.2-3.1.2zM590 245c-1.3.8-1.2 1 .3 1 .9 0 1.7-.5 1.7-1 0-1.2-.1-1.2-2 0zM573.8 247.4c-2.4 1.8-2.2 2.8.5 2.5 1.2-.2 2.8.1 3.6.5.9.6 1.2.5.7-.2-.3-.5 0-1.3.6-1.5 1-.4.9-.8-.2-1.6-2-1.4-3.1-1.3-5.2.3zM532.5 253.1c-.4.6-.5 1.2-.2 1.5.2.3.7-.2 1-1.1.7-1.7.1-2-.8-.4zM506.6 256.4c.3.9 1.1 1.6 1.6 1.6 1.3 0 .5-2.3-1-2.8-.7-.2-1 .2-.6 1.2zM510.5 260c-.4 1.2-.5 2.4-.2 2.7.3.2.8-.5 1.2-1.7.4-1.2.5-2.4.2-2.7-.3-.2-.8.5-1.2 1.7zM543 263.8c0 .5.7.9 1.5.9s1.5-.4 1.5-.9c0-.4-.7-.8-1.5-.8s-1.5.4-1.5.8zM535.1 273.7c0 1 .3 1.3.5.7.3-.7 1.5-1 2.7-.8 2.1.4 2.1.4.2-.5-2.9-1.4-3.5-1.3-3.4.6zM483.1 72.4c.2.2 4.7.6 9.9.9 6.8.4 8.1.3 4.5-.3-5.2-.9-15.2-1.3-14.4-.6zM250.6 142.1c.3.5 1.2.9 2 .9.9 0 1.2.5.8 1.1-.4.7-.2 1 .5.8 2-.7 1.2-2.4-1.4-3.1-1.4-.3-2.3-.2-1.9.3zM262.6 146.6c-1.8 1.8-2.1 3.4-.5 3.4.5 0 .7-.5.4-1-.3-.6-.2-1 .3-1 .6 0 1.2-.7 1.6-1.5.7-1.9.1-1.9-1.8.1zM270.3 151.2c-1.3.6-2.3 1.5-2.3 2.1 0 .5-.8 1.6-1.7 2.3-1.6 1.2-1.4 1.3 1.9 1.4 2.9 0 3.6-.3 3.2-1.5-.4-.9 0-1.5.8-1.5.7 0 1.4-.9 1.5-2 .2-2.2-.2-2.3-3.4-.8zM260.2 152.9c-1.6 1 0 2.9 1.9 2.2 1.3-.5 1.4-.8.4-1.8-.6-.6-1.7-.8-2.3-.4zM289.1 155.9c-1 .7-1.1 1.3-.2 2.7.7 1.3 1 1.4 1.1.5 0-1.1.5-1 2 .4 1.7 1.6 2 1.6 1.5.3-.4-.9-1.3-1.9-2.1-2.2-.9-.3-1.2-1-.9-1.6.8-1.2.4-1.2-1.4-.1zM273 156.9c0 .6.5 1.3 1 1.6.6.3 1-.1 1-.9 0-.9-.4-1.6-1-1.6-.5 0-1 .4-1 .9zM263.8 158.7c.7.3 1.6.2 1.9-.1.4-.3-.2-.6-1.3-.5-1.1 0-1.4.3-.6.6zM125.5 161c.3.5-.8 1.6-2.5 2.5-14.5 7.5-19 24.9-8.8 34 5.2 4.7 10.1 6.7 16.9 6.9 9.5.4 13.7-1.7 17.2-8.6 1.5-2.9 2.7-6.2 2.7-7.3 0-1.9 0-1.9 1.5.1 1.9 2.6 1.9 3.2-.5 3.9-1.1.4-1.8 1.1-1.4 1.6.3.5 1 .7 1.5.3 1.1-.6 7.5 3.1 8.3 4.9.3.9.8.8 1.6-.3.8-1 1.3-1.1 1.6-.4.3.7 1.4 1 2.4.7 1.1-.3 2 0 2 .6s-.6 1.1-1.2 1.1c-.7 0 0 .7 1.6 1.5 1.5.8 3.8 1.5 5 1.5 1.4 0 2.6 1.1 3.6 3.3 1.3 2.8 2 3.2 5.5 3.3 7.3.2 8.5.4 8.6 1.6 0 .7 2.4 2.4 5.2 3.8 2.9 1.4 5.6 3.6 6.2 4.8.6 1.3 1.9 2.2 3.2 2.2 1.2 0 2.9.3 3.9.7 1.3.5 1.5.3.9-.8-.5-.8.5-.3 2.2 1.1 1.8 1.4 3.2 3.3 3.2 4.2.1 2.5-1 4.9-2 4.2-.5-.3-.9-.1-.9.5 0 1.1 3.8 2.6 5.6 2.3 1.4-.3 2.8 4.4 1.8 6-.4.6-.3.8.3.5 1.5-1 3.8 2.2 5.2 7.3.8 2.5 2.2 7.2 3.3 10.4 2 6.3 1.9 10.6-.7 23.2-1.3 6.5-2.8 9.9-4.2 9.9-.4 0-.7 1-.5 2.2.2 1.8-.2 2.3-2 2.4-1.3 0-3.5.3-4.9.5-1.6.3-3.1-.2-3.9-1.1-.7-.8-2.2-1.5-3.4-1.6-1.5 0-1.6-.2-.6-.6.8-.3 1.8-1 2.1-1.6.4-.5 1 0 1.4 1.2.3 1.1 1.1 2.1 1.6 2.1s.4-.8-.2-1.9c-1.3-2-.6-5.1 1.1-5.1.7 0 .9.8.5 2-.5 1.5-.2 2 1.2 1.9 1.1 0 1.3-.3.5-.6-1-.4-1-.8-.1-1.9.9-1.1 1.5-1.2 2.6-.3 1.1.9 1.7.9 2.6-.1.7-.7.7-1 .1-.7-.6.3-2.2-.5-3.7-1.9-2.5-2.3-3.2-2.3-2.8-.1.1.4-.8.3-2-.4-1.9-1-2.1-.9-1.6.4.4 1-.1 1.8-1.3 2.2-1.1.3-1.7 1.2-1.4 2 .4.9 0 1.2-1.3.9-1.1-.3-2.6.3-3.7 1.5s-2.5 2.1-3.3 2.1c-.7 0-1.3.4-1.3.8 0 .9-8.1 5.2-9.8 5.2-.5 0-1.2.7-1.6 1.5-.7 1.8 1.5 2 3.3.2 1.1-1 1.2-.9.6.2s-.4 1.3.8.8c3-1.1 2.6.8-.4 2.2-1.6.7-2.7 1.7-2.3 2.2.3.5-.1.9-.8.9-1 0-.9.3.2 1 4.6 2.9-5.8 1-17.5-3.2-49.4-18-64.3-24.9-89.4-41.7-16.6-11.1-24.6-17.8-27.9-23.3l-2.3-3.8h5c5.8 0 7-1.4 1.4-1.6-2.1-.1-4.7-.2-5.9-.3-2.4-.1-7.8-4.9-8.1-7.1-.1-.8-.5-2.7-.9-4.1-.4-1.9 0-3.3 1.8-5.1 2.3-2.6 2.4-2.6 8.3-1.3 3.3.8 8.1 2.1 10.7 2.9 2.9.9 5 1.1 5.3.5.4-.5-.1-.9-1-.9s-3.4-.9-5.5-2c-2.2-1.1-4-1.6-4-1.2 0 .5-2.5.2-5.5-.6l-5.5-1.5-3.1 2.9c-2.7 2.6-3 3.4-2.6 7.2.4 3.3 1.4 5.3 4.9 9 2.4 2.6 5.5 6.6 6.8 9 6.6 11.8 57.7 42.8 88.5 53.6 5.5 1.9 16.3 5.8 24 8.6 18.6 6.8 18.3 6.7 30.4 8.5 19.8 2.9 29.6 4.8 32.1 6 3 1.6 5.7 4.6 12.8 14.5 6.4 8.9 9.2 14.2 16.2 31 7.1 17.1 9 20.6 10 19 1-1.6-.4-5.5-6.1-17.5-2-4.3-1-5.8 2.1-3 2.9 2.6 3.2.2.5-3.8-1.4-2-2.5-4.4-2.5-5.4s-.7-2.9-1.6-4.1c-.9-1.3-1.4-3.2-1.1-4.2.3-1-.2-2.8-1-3.9-.8-1.2-1.1-2.1-.7-2.1.4 0-.1-1-1.2-2.2-1.9-2.2-1.9-2.2 0-.8 1.9 1.5 1.9 1.4.3-1.7-1-1.8-1.7-3.5-1.7-3.9 0-2.2 12.7 18.7 15.2 25.1.9 2.2 2.8 7.6 4.3 12 3.4 9.8 5.3 13.6 12 24 5.5 8.6 18.1 23.2 19.6 22.7.5-.1.8.3.7 1-.2.7.4 1.2 1.2 1.3.8 0 1.5.7 1.5 1.5s3.2 4.1 7 7.3c3.9 3.3 6.9 6.3 6.8 6.8-.2.5 2 2.1 4.9 3.5 2.9 1.5 7.5 4.4 10.4 6.5 5.1 3.9 21.3 13 29.9 16.8 7.7 3.4 4.9 1.4-4.7-3.5-12.6-6.3-23.8-13-29.5-17.7-6.5-5.3-20.3-18.4-20.3-19.2 0-.4-.6-1.2-1.2-1.9-.7-.8-2-2.4-2.8-3.6-.8-1.3-2.6-3.5-3.9-4.9-1.2-1.4-3-3.9-3.7-5.4-.9-1.7-2-2.5-2.7-2.1-.7.4-.4-.1.5-1.2 1.7-1.9 1.5-2.3-2.5-8.8-2.3-3.8-4.9-7.9-5.7-9.1-4.9-7.5-7-11.7-7.3-14.3-.2-1.7-1-4.1-1.8-5.4-2-3.1-4.4-8.6-5.8-12.7-.8-2.5-.8-3.8.1-4.8.6-.8 1.1-2.7 1-4.4 0-1.8.5-3.2 1.4-3.6.8-.3 1.4-1.1 1.4-1.9 0-1.7.5-1.7 3.2-.3 2.5 1.4 3.5.4 1.7-1.8-1.2-1.4-1.2-1.6.1-1.1.8.3 4.1 1.3 7.3 2.3 4.1 1.3 7 3.1 10.6 6.6 2.7 2.6 5.2 4.5 5.5 4.2.3-.4-.1-1.4-.9-2.3-1.4-1.6-1.4-1.7.8-1.3 4.7.9 14.5 17 22.8 37.5 2.3 5.9 4.4 10.6 4.6 10.4.7-.7-7.8-21-12.8-30.4-5.8-11.1-11.7-19.5-13-18.6-.5.3-.9.3-.9-.1 0-.3 1-1 2.3-1.5 1.6-.6 1.8-.9.5-.9-1-.1-8.2-1.9-16-4-7.9-2.2-24-6.3-35.8-9.1-11.8-2.9-21.9-5.5-22.5-6-.5-.4-2.3-.8-4-.8-1.6 0-7.6-1-13.2-2.1-5.5-1.2-11.2-2.1-12.5-2.1-1.9 0-1.2-1.1 4.9-6.8 5.9-5.4 8-8.4 11.6-15.7 4.5-9.1 5.9-15.4 5.9-25.8-.1-2.8-.6-6.3-1.3-7.9-.9-2.2-.9-3.1.1-4.3 1.1-1.3 1-1.4-.3-.9-1.2.4-1.7-.3-2.2-3.3-.8-4.6-3.5-10.3-5.2-11-.7-.3-1.3-1.2-1.3-2.1 0-1.2.3-1.3 1.2-.4 1.6 1.6 6.5 1.5 7.1-.1.4-.9.8-.8 1.6.3.7 1 .6 1.8-.1 2.7-.7.9-.7 1.3 0 1.3.6 0 1.3-.4 1.7-.9.3-.6 1.8-.6 3.6-.1l3.1.9-1.8-2.1c-1.8-2-1.8-2.1-.1-1.5 1 .4 2.1.7 2.3.7 1.3 0 0 2.9-2.8 5.8-2.6 2.7-2.8 3.2-1 2.3 1.2-.6 2.2-1.7 2.2-2.4 0-.8.3-.8.9.1.4.8 1.1 1.3 1.5 1.3.3-.1 1.4-.1 2.4-.1 1.3 0 1.4.2.3.9-.8.5-.9 1.1-.3 1.5.5.3 1.7-.3 2.7-1.4 1-1.1 2.9-2 4.2-2 1.2 0 2.3-.4 2.3-.9s1.2-1 2.8-1.1c1.5 0 4.1-.2 5.7-.3 1.7-.2 3.4-.1 3.9.1 1.5.8-4.5 5-6.8 4.8-1.2-.2-2.3.2-2.3.9s1.7 1.2 4.4 1.1c2.4 0 4.3-.4 4.3-.8 0-.5 1-.4 2.1.3 1.5.8 1.9.8 1.5 0-.4-.6 0-1.8.8-2.6 1.9-1.9 2.7-2 3.6-.4.6.8 1.5.5 3.5-1.4 1.7-1.5 3.7-2.4 5.2-2.3 3.3.4 3.8 1.3 1 2-1.4.3-2.8 1.4-3.1 2.3-.6 1.5-.5 1.6.5.5.7-.6 2.1-1.2 3.1-1.2 1.1 0 2.9-.9 4.1-2 3-2.8 5.1-2.2 5.5 1.8.2 1.7.7 3.2 1.2 3.2s.8 1.5.6 3.2c-.4 3.2 1.3 9.8 3.6 14.5.6 1.2.8 3.3.6 4.8-.4 1.6-.1 2.4.6 2.2.6-.2 1.2-.9 1.2-1.5.1-.7.2-2 .3-3 .1-1.1.7-.5 1.6 1.6 1.3 3 1.6 3.2 3.7 2 1.2-.7 2.9-1.9 3.6-2.6 1.9-1.7 3.3-.3 3.5 3.2.2 3.1 2.7 3.5 4.5.6.7-1.2 1.7-1.8 2.3-1.5.5.4.8.1.7-.5-.2-.6.7-1.9 2-2.7 2-1.4 2.2-1.4 2.2 0 0 .9-.7 2.3-1.6 3.2-.9.9-1.4 1.9-1.1 2.2.3.3-.1 1.3-1 2.2-1.6 1.5-1.5 1.6.7 1.9 1.7.3 3.1-.4 4.7-2.4 1.9-2.4 2.3-2.6 2.9-1.1.3.9 1.7 1.7 3 1.7 2.3 0 2.6.4 2.8 4.4.2 2.9 3.1 4.3 5 2.3.9-.8 2.5-1.9 3.6-2.2 1.1-.3 2-1.2 2-2 0-1.6 3.2-1.4 4.3.3.5.7.5 2.1.2 3.2-.4 1.2-.2 2 .5 2 .6 0 .8-.5.5-1-.3-.6-.2-1 .4-1 1.7 0 2.4 2.2 1 3.1-1.1.7-1 .9.4.9 1 0 1.7-.8 1.7-2 0-1.1.5-2 1-2 .6 0 1 .5 1 1.1 0 .5.4.8 1 .4 1.4-.8.1-3.2-2-3.8-1.3-.3-1.7 0-1.3.9.3.8.1 1.4-.5 1.4-.5 0-1.2-.9-1.5-2-.4-1.6 0-2 2-2 1.8 0 2.4-.4 2-1.5-.4-.8-.2-1.7.2-2 .5-.2 1.4 1.7 2.1 4.3.7 2.6 1.4 4.2 1.7 3.6.3-.8 1.6-.6 4.4.7 3.8 1.9 4.1 1.9 9.1.2 3.9-1.4 5.2-1.5 5.5-.6.6 1.8 3.8 1.6 5.3-.2.7-.8 1.6-1.3 2-1 .4.2 2-.9 3.5-2.5 3.3-3.5 4.5-3.8 3.8-1-.3 1.1-1.2 2-1.9 2-.8 0-1.4.4-1.4 1 0 .5.7.7 1.5.4.8-.4 1.5-.1 1.5.5s-.6 1.1-1.2 1.2c-.7 0-.3.4 1 .9 2.7 1.2 2.9 3 .2 2.3-1.1-.3-2 0-2 .6s-.9 1.1-1.9 1.1c-1.1 0-2.3.4-2.6 1-.8 1.2-.7 1.2 3.2.1 3.6-1 4.8-.4 3.2 1.6-.9.9-.8 1.3 0 1.3.6 0 1.4-.7 1.8-1.6.4-1.2 1.4-1.4 3.4-1 1.9.3 2.9.1 2.9-.6 0-.6-.3-.8-.6-.5-.8.8-4.4-1.1-4.4-2.3 0-.6 1-.6 2.6 0 2 .8 3.1.6 5.1-1 4.2-3.3 5.9-2.6 5.3 2.4-.1 1 .3 1.5.8 1.2.6-.3 2.1-.2 3.4.3 1.2.6 1.7 1 1 1-.7.1-1 .6-.7 1.1.4.7 2 .3 4.2-1.1 3.7-2.3 5.1-1.7 5.4 2.3.1 1 .2 2.4.3 3 0 .7.8 1.3 1.6 1.3 1.5 0 1.5-1.1.6-7-.2-1.1.1-2.5.6-3.2.5-.7.5-1.3 0-1.7-1.1-.7-.3-5.6.9-5.6.5 0 .9.8.9 1.8s.7 1.9 1.5 1.9 1.5-.4 1.5-.9c0-.4-.4-.8-1-.8-1.6 0-1.2-1.5 1.1-4.1 1.5-1.8 2.2-2 2.8-1 .6.9 1 .6 1.4-1 .4-1.3.9-2.1 1.1-1.8.3.3.2 1.9-.2 3.5s-.6 3.9-.4 5.2c.3 1.9.6 2.1 1.8 1.1 1.6-1.3 3-.6 1.9 1-.3.6-1.7 1.1-3.1 1.1-1.4 0-2.2.4-1.9 1 .4.6-.5 1-2 1s-2.4-.4-2-1c.3-.6.1-1-.4-1-1.7 0-1.3 2.1.7 3.6 1.6 1.2 1.5 1.3-.5 1.4-1.3 0-2.3.3-2.4.7 0 .5-.2 1.6-.4 2.5-.5 2.5.9 3 3.9 1.6 2.3-1 2.9-.9 4.5.8 3.1 3.4 4.3 6.2 2.9 7-.7.4-.8.3-.4-.4s.3-1.2-.2-1.2c-1 0-2.2 2.9-2.6 6.4-.2 1.6.2 1.3 2.1-1 3.5-4.2 4.3-6.6 2.9-8.9-1.8-3.3-.5-16.5 1.4-13.4.6.9 1.2 1 2.2.2.7-.6 2.6-1.1 4.2-1.1 2.5 0 2.7.3 2.3 2.7-.3 1.5-.2 3.3.3 4.1.7 1.2 1.1.9 1.9-1 .8-2.2 1-2.2 1-.5.1 2-3 5.5-4.9 5.5-.6 0-1 .6-1 1.2 0 .9-.4.8-1-.2s-1-1.1-1-.2c0 .6-.3 1.1-.7 1.1-2.3-.4-3 .3-2.5 2.6.2 1.4.8 2.8 1.3 3 .9.6 5.9-4.1 5.9-5.5 0-.6 1-.6 2.5 0 1.6.6 2.5.6 2.5 0 0-.5.7-.7 1.6-.3 1.4.5 1.5.3.6-1.3-.9-1.7-.6-2.2 1.9-3.3 1.5-.7 3.4-.9 4.1-.5.7.4 1 .3.5-.1-.7-.9 2-4.5 3.5-4.5.4 0 .6 1.3.3 3-.6 3.1 0 3.6 2.5 2 1.8-1.1 2.2-6 .3-5.3-.9.4-1-.5-.6-3.3.4-2.7.3-3.5-.5-3-.7.4-1.2.3-1.2-.1 0-.5-.9-.9-2.1-1-1.7-.2-1.9.1-.8 1.3 1 1.3 1 1.7-.2 2.5-1.1.7-1.6 0-2.3-3.1-1-4.5-1.6-4.8-4.1-2-2 2.2-4.5 2.7-4.5.7 0-.9-.3-.8-.9.2-1.3 2.1-8.2.5-8.8-2-.3-1-1-1.9-1.5-1.9-.6 0-.8-.6-.5-1.4.3-.8-.1-2-.9-2.6-1.1-1-1.4-1-1.4 0 0 .7-.7 1-1.5.6-.8-.3-1.5-.1-1.5.5s-.7.8-1.6.5c-1-.4-2.5.1-3.4.9-1.6 1.5-1.9 1.4-3.4-.1-2.1-2.1-1.2-3.2 1.1-1.3 1.4 1.2 1.5 1.2.9 0-.6-.9-.5-1.2.5-.9.7.2 2.3-.5 3.6-1.6l2.3-2-2.4-2.5c-1.4-1.4-2.9-3.7-3.4-5.1l-.9-2.4-1.2 2.2c-.8 1.4-.8 2.2-.1 2.2.5 0 1 1.1 1 2.5 0 1.9-.4 2.3-1.7 1.8-1.1-.4-1.2-.8-.5-1.1 2.3-.7 1.2-1.9-1.5-1.6-1.4.1-4 1.8-5.7 3.6-2.8 3-7.3 6.4-9.3 7.1-.4.1-.9-1-1-2.6-.1-1.5.3-2.7.8-2.7.6 0 1.7-.7 2.5-1.5.9-.8 1.2-1.5.7-1.5s-1.4.5-2 1.1c-.7.7-1.1.3-1.1-1.6 0-3.7-1.3-4.7-6.4-4.9-2.4-.1-4.3-.6-4.3-1.1 0-.6-.4-1.6-.8-2.3-.5-.6-.4-1.2.1-1.2.6 0 1.3-.7 1.6-1.6.4-.9.2-1.3-.5-.8-.8.4-.9-.1-.4-1.5.9-2.9-1.8-2.8-4.2.1-2 2.5-7.3 3.2-8 1-.3-.6.2-1.2 1.1-1.2.9 0 1.6-.5 1.6-1 0-1.9-3.1-1-4 1.2-.7 1.8-.9 1.9-.9.5-.1-.9-.5-1.7-1-1.7s-1.1-.9-1.4-2c-.7-2.8-2.1-2.5-3.4.7l-1 2.8-1.1-2.8c-.6-1.5-1.8-2.7-2.7-2.7-.8 0-1.5-.4-1.5-.9 0-1.2-4.1-1-5.8.3-1 .7-1.2.4-.7-1.7.5-1.7.3-2.7-.4-2.7-.6 0-.8-.8-.5-1.8.4-1.3.1-1.2-1.4.5l-2 2.3-.6-2.5c-.7-2.8-2.7-3.2-5-1-.8.8-1.9 1.5-2.4 1.5-.6 0-1.2.6-1.5 1.2-.3 1-.7 1-2-.1-1.5-1.2-1.7-1.1-1.5.9.2 1.7-.3 2.3-1.9 2.6-1.5.3-2.3-.1-2.3-1.1 0-.8.6-1.5 1.3-1.5.8 0 .7-.4-.3-1s-1.1-1-.2-1c.6 0 1.2-.8 1.2-1.9 0-2.4 2.5-4.5 4.5-3.7.8.3 1.5.1 1.5-.4 0-1.5 1.9-1.2 3.7.5 1.9 1.9 3.3 1.1 3.3-2.1 0-1.4-.4-2.2-1-1.9-.5.3-1 0-1-.8s.9-1.7 2-2c2.4-.6 2.7-2.7.4-2.7-1.1 0-1.5-.6-1.1-2 .3-1.3 0-2-.9-2-1.3 0-1.8 2.3-1.5 6.2.1.9-.3 1.9-.9 2.3-.5.3-1 .1-1-.4 0-.6-1.1-1.1-2.5-1.1-2.1 0-2.5-.5-2.5-3.1 0-2.4.4-3 1.5-2.5 1.3.4 1.3.2.5-1.4-.6-1-1.1-3-1.2-4.4-.2-2-.5-2.3-2-1.5-1.6.9-2.3 3.3-1.9 6.6.1.7-.4 1.3-1.1 1.3-1 0-1 .2.1.9.9.6 1.2 2 .9 4-.2 1.7 0 3.3.6 3.6.6.2.1.2-1.2-.1-1.5-.4-2.8 0-3.5 1-1 1.2-1.5 1.3-2.7.3-2.4-2-4.1-5.5-3-6.2.6-.3 1-1.6 1-2.9 0-1.3 1.3-4.3 2.9-6.7 1.7-2.4 2.8-4.6 2.5-4.8-.6-.6-5.7 5.3-9 10.5-1.5 2.4-3.3 4.3-3.8 4.1-.6-.2-1.5-1.9-2-3.8s-1-3.5-1.2-3.7c-.1-.2-1.9.4-3.9 1.3-2.1.8-4 1.3-4.3 1-.3-.3 0-.5.7-.5 1.1 0 1-1.6-.5-7.2-.3-.9-1.1-1.8-1.8-2.1-1-.4-1.3.4-1.2 2.9.1 1.8.5 3.7.9 4 2.9 2.9-2 14.4-5.3 12.4-1-.6-1-.9.1-1.3 1.1-.5 1-.8-.3-1.7-1-.6-1.8-1.6-1.8-2.1 0-.6.5-.7 1-.4 1.7 1.1 1.1-.7-.7-2-1.6-1.2-1.5-1.5 1.5-4.1 3.6-3.2 4.3-5 1.2-3.4-1.6.9-2 .8-2-.5 0-.9.3-1.4.8-1.2.4.3.5-1.7.4-4.4-.2-2.7-.8-4.9-1.3-4.9s-.9-.6-.9-1.4c0-.8-.4-1.7-.8-2-.4-.2-.8 1.9-.8 4.7-.1 6.5-1.2 12.7-2.4 12.7-.4 0-.6-.8-.3-1.9.3-1 0-2.2-.6-2.5-.7-.4-.8-.1-.5.8.3.9.1 1.6-.5 1.6s-1.1 1.1-1.1 2.4c0 1.3-.6 2.8-1.2 3.3-1.9 1.5-5.8 2.2-5.8 1.1 0-.5-.4-.6-1-.3-.5.3-1 .2-1-.4 0-.5-.3-1.8-.6-2.8-.6-1.6-.5-1.6.9.2 1.5 1.9 1.5 1.7.4-2-1.3-4.7-3.6-6.8-5.4-5.3-.7.6-1.3 1.6-1.3 2.3 0 1.5-2.2 2.5-5.5 2.5s-6.8-3.9-6-6.7c.5-2.3-.4-2.8-4.8-2.3-2.2.2-4.9-1.9-4.1-3.1.3-.5-.2-.9-1-.9-.9 0-1.6.4-1.6.8s-.9.8-2 .8-2-.6-2-1.3c0-1.6-2.6-1.7-3.6-.1-.5.8-1 .6-1.4-.8-.4-1-1.1-1.9-1.6-2-2.1-.2-4.3-1.7-3.8-2.5.3-.5-.9-.9-2.5-.9-2.1 0-3.1-.5-3.1-1.5 0-.8-.8-1.5-1.8-1.5-1.4 0-1.9-.8-2-3.1 0-1.7-.4-3.4-.7-3.7-.9-.9-2.4 1.9-1.8 3.5.3.9-.3 1.3-2.1 1.3-1.4 0-2.6-.4-2.6-.9s-.9-1.1-1.9-1.4c-1.5-.4-1.8 0-1.6 1.9.3 3.1-1.4 4.2-3.1 2-.8-1.2-1.9-1.6-3.3-1.1-1.4.4-2.1.2-2.1-.7 0-1-.2-1.1-.8 0-1.1 1.7-3.9.6-4.5-1.8-.7-2.7.4-7 1.7-7 2 0 4.2-4.8 2.8-6.2-.8-.8-.9-.5-.5 1.2.5 1.8.3 2.2-.9 1.7-1.6-.6-4.3 3.6-4 5.9.2.7-1 1.1-3 .9-1.8-.1-2.5 0-1.5.2.9.2 1.7 1.1 1.7 1.9 0 1.6-1.6 1.9-2.4.5-.3-.5-1.6-.7-2.9-.4-1.2.3-1.8.1-1.2-.4 2.1-1.7 1.3-3.2-2.1-4.3-4.8-1.6-6.8-.7-5.9 2.7.6 2.4.5 2.5-1.2 1.3-1-.8-2.4-2.1-3.1-3-1-1.1-3.3-1.5-9.7-1.4-4.7 0-8-.3-7.4-.7.8-.4.3-1.1-1.2-2-1.3-.6-3-1.9-3.8-2.6-1.1-1.1-1.6-1.2-2.2-.2-.4.7-2.2 1.2-4.1 1.2-3.7 0-5.2 1.5-3.6 3.4 2.1 2.5-.4 1.2-3.4-1.8-1.7-1.6-3.7-2.8-4.4-2.5-2.5 1-4.4-.5-4.4-3.4 0-6.9-8.5-14.7-16.9-15.6-2.8-.2-6.3-.9-7.7-1.4-1.6-.6-2.3-.6-1.9 0zm6.5 4.5c-.7.9-2 1.4-2.9 1.3-.9-.2-2.5.4-3.5 1.4-1.3 1.2-2.3 1.4-3.1.8-.7-.6-1.9-.4-3.3.6-1.2.8-2.2 1.1-2.2.7 0-1.5 5.7-4.3 7.4-3.7.9.3 1.6.1 1.6-.4 0-1 2.1-1.7 5.9-2.1 1.1-.1 1.1.2.1 1.4zm0 3.5c0 .5-.7 1-1.5 1s-1.5-.5-1.5-1c0-.6.7-1 1.5-1s1.5.4 1.5 1zm14.5 2.1c1.1 1.7-.1 2.1-1.5.4-.8-.9-.8-1.5-.2-1.5.6 0 1.4.5 1.7 1.1zm-21.9 7.2c-1.5 1.9-2.6 4.2-2.6 5.1 0 2.7 1.9 5.6 4.2 6.5 1.3.5 1.7 1 1.1 1.4-2 1.3-7.3-4.2-7.3-7.5 0-3.4 3.4-8.8 5.6-8.8 1.1 0 .8.9-1 3.3zm12.6-1.6c2.9 2.6 2.4 8.6-1.1 12.5-1.6 1.8-3.3 3-3.7 2.5-.4-.4.5-2 1.9-3.5 3.5-3.6 3.5-7.5.1-10.7-2.3-2.1-2.4-2.5-.9-2.5 1 0 2.7.7 3.7 1.7zm-18.9 18.6c.4-.3.7-.1.7.6s1.4 1.7 3.1 2.3c1.6.6 2.8 1.2 2.6 1.5-.8.8-7.2-2.3-8.7-4.3-1.4-1.7-1.3-1.8.1-.7.9.7 1.9 1 2.2.6zm22.7 2.2c-.7.9-1.5 1.3-1.9 1-.3-.3.1-1 .9-1.5 2.1-1.4 2.4-1.2 1 .5zm210.2 22.7c-.7.7-1.2.8-1.2.2 0-.6.3-1.4.7-1.7.3-.4.9-.5 1.2-.2.2.3-.1 1.1-.7 1.7zm-61.1 4.8c.6 0 .7-.5.4-1-.9-1.5.4-1.2 2.1.5.9.8 1.1 1.5.6 1.5-1.6 0-2.2 2.8-1.2 5.5.8 2.1.7 2.5-.9 2.5-1 0-2.1.7-2.5 1.5-.3.8-.9 1.5-1.4 1.5-1.2 0-.9-4.5.5-6.2.7-.8.9-1.9.5-2.3-.4-.5-.1-.5.6-.1 1.4.9 1.7-2 .2-2.9-.5-.3-1-1.2-.9-1.8 0-.9.2-.9.6 0 .2.7.9 1.3 1.4 1.3zm16.3 2.8c.2.4-.4.8-1.4.8-1 0-1.6-.4-1.4-.8.3-.4.9-.8 1.4-.8.5 0 1.1.4 1.4.8zm21.6 2.3c-1 .7-1.1 1.2-.4 1.5 1.3.5.7 4.1-1 6.3-.8 1.1-.8 1.3 0 .8.7-.4 1.4-.1 1.6.6.7 1.7-.2 3.8-1.3 3.1-.6-.3-1.5-.1-2.2.4-.7.5-2.3 1.2-3.7 1.5-2.5.6-2.6.4-2.2-2.8.3-2.5 0-3.5-.9-3.5-.8-.1 0-.9 1.8-1.8 1.7-.9 4.1-2.9 5.3-4.5 1.2-1.5 2.7-2.7 3.3-2.7.7 0 .6.5-.3 1.1zm-63.7 4c-.8.8-1.3.8-1.7 0-.4-.6-.2-1.1.4-1.1.6 0 .8-.6.4-1.3-.6-1-.4-1 .7 0 .9 1 1 1.6.2 2.4zm72.3.2c0 1.3-1.1 3.2-2.3 4.1-2.3 1.7-2.3 1.6-2.3-1.3 0-1.8.7-3.4 1.8-4 2.6-1.5 3-1.3 2.8 1.2zm-28.6.1c0 .3-.4.8-1 1.1-.5.3-1 .1-1-.4 0-.6.5-1.1 1-1.1.6 0 1 .2 1 .4zm-23.4 2.5c0 1.1-.4 1.7-.8 1.5-.4-.3-.8-1.2-.8-2s.4-1.4.8-1.4.8.9.8 1.9zm-25.6-.5c0 .3-.4.8-1 1.1-.5.3-1 .1-1-.4 0-.6.5-1.1 1-1.1.6 0 1 .2 1 .4zm-11 2.5c-1.9 3.1-5.1 6.4-5.7 5.7-.3-.3.5-1.5 1.8-2.7 1.3-1.1 2.3-2.6 2.1-3.3-.1-.7.4-1.3 1.2-1.3 1.1 0 1.2.5.6 1.6zm29.8 1.6c-.2.1-1.8 1-3.6 1.9-3.3 1.7-3.3 1.7-2.3-.3 1.2-2.2 3-3 4.9-2.3.7.2 1.2.6 1 .7zm66.2 2.1c0 1.9-.4 2.5-1.5 2-.8-.3-1.5 0-1.5.6 0 .7-.5.6-1.5-.2-1.2-1-1.3-1.6-.4-2.7.7-.8 1.8-1.2 2.6-.9.7.3 1.3.1 1.3-.4 0-.6.2-1 .5-1s.5 1.2.5 2.6zm-1.1 7.8c-.1 2.3-.3 3.3-.6 2.2-.3-1-1.6-2.9-3.1-4.1l-2.5-2.2h3.1c3.1 0 3.2.2 3.1 4.1zm18.7-.6c-.2 2.4-1.2 4.8-2.4 6-2.6 2.6-2.8 2.6-3.6.6-.3-.8-.2-1.3.3-.9.5.3.8-1.1.7-3.1-.3-3.6 1.4-6.4 3.9-6.4.9 0 1.3 1.1 1.1 3.8zm14.9 2c-.3.3 0 1.1.6 1.9.9.9.8 1.3 0 1.3-.6 0-1.1-.5-1.1-1.1 0-.6-1.3-.1-3 1.1-1.6 1.2-3 1.8-3 1.4 0-1.1 4.4-5 5.8-5 .6 0 1 .2.7.4zm4.1 9.9c-.5 1.3-.9 1.4-1.9.4-.9-.9-.9-1.4.3-2.1.8-.5 1.1-1 .7-1-.5 0-.5-.6 0-1.3 1-1.6 1.7 1.7.9 4zM368 259c0 .5-.4 1-1 1-.5 0-1-.5-1-1 0-.6.5-1 1-1 .6 0 1 .4 1 1zm-9 1c0 .5-.4 1-1 1-.5 0-1-.5-1-1 0-.6.5-1 1-1 .6 0 1 .4 1 1zm34.8 2.2c0 4.9.1 5.2 1.7 3.8 1.2-1 1.5-.9 1.5.8 0 2.4-1.6 3.8-5.3 4.7-1.5.4-2.7 1.1-2.7 1.5 0 1.4-3.1 2-4.8 1-1.6-.9-1.6-.9 0-1 1.1 0 1.7-.7 1.5-1.8-.1-.9.3-1.8.8-2 .6-.2 1.4-1 1.8-1.8.5-.8 1.3-1.1 1.9-.8.7.5.9.1.5-.9-.4-1.2-.1-1.7 1.1-1.7 1.3 0 1.4-.2.4-.8-.7-.5-1-1.6-.6-2.5 1-2.8 2.2-1.9 2.2 1.5zm-63.8-.3c0 .5-.7 1.1-1.4 1.4-1 .4-1.3.1-.9-.9.6-1.5 2.3-1.9 2.3-.5zm70.2 1.1c-.2.7.2 1.6.8 2 .7.5.6 1.1-.5 2-.9.8-1.5.9-1.5.2 0-.6-1-2.1-2.2-3.3-1.3-1.2-1.8-1.9-1.1-1.5.6.3 1.5.2 1.8-.4.9-1.5 3.1-.6 2.7 1zm8.3 4.1c-.3 1.2-.7 2.4-.9 2.7-.3.3.2 1.8 1.1 3.3.9 1.6 1.5 3 1.2 3.2-.2.2-1.9 1.5-3.7 3-1.9 1.5-3.9 2.7-4.5 2.7-.7 0-.6-.4.3-1 1.3-.9 1.3-1.1 0-1.9-.8-.6-1.1-1.3-.7-1.7.3-.4-.2-1.5-1.3-2.4-2-1.8-2-1.8 2.4-4.6 3.4-2.2 4.2-3.1 3.4-4.1-.8-1-.5-1.3 1-1.3 1.6 0 2 .5 1.7 2.1zm-64.1 2.9c-.6.6-1 .3-1-1s.4-1.6 1-1c.7.7.7 1.3 0 2zm17.6 2.6c0 .8-.4 1.2-1 .9-.5-.3-1-1-1-1.6 0-.5.5-.9 1-.9.6 0 1 .7 1 1.6zm62.6 4.7c1.3-.5 1.3-.7.2-1.4-1-.7-.9-.9.5-.9 1 0 1.7.8 1.7 2 0 1.3-.7 2-1.9 2-1.1 0-2.2.9-2.6 2-.6 2-5.1 6-6.7 6-.6 0-.7-1.1-.4-2.5.4-1.4.2-2.5-.4-2.5-1.3 0-1.3-2.7 0-3.5.5-.3.7 0 .5.7-.4.9.2 1.4 1.5 1.5 1.1.1 2-.2 2-.8 0-.5-.4-.9-1-.9-.5 0-1-.5-1-1 0-.6.6-1 1.3-1 .7 0 1.9-.9 2.7-2.1 1.5-2 1.5-2 1.8.5.2 1.8.8 2.3 1.8 1.9zm-60.1.1c1.8 1.3 1.7 1.4-1.2 2.9-3 1.6-3.1 1.6-2.6-.3.3-1.1 0-2-.6-2s-1.1-.5-1.1-1c0-1.5 3.3-1.2 5.5.4zm81.3 3.4c.6 1.8-1.5 1.4-2.2-.4-.4-1-.1-1.4.6-1.2.6.2 1.4 1 1.6 1.6zm5.2 1.7c-.7.8-1.6 1.2-2.1.9-1.3-.8-.1-2.4 1.8-2.4 1.3 0 1.3.3.3 1.5zm9-.5c0 .5-.5 1-1.1 1-.5 0-.7-.5-.4-1 .3-.6.8-1 1.1-1 .2 0 .4.4.4 1zm3 0c0 .5-.5 1-1.1 1-.5 0-.7-.5-.4-1 .3-.6.8-1 1.1-1 .2 0 .4.4.4 1zm-6 3.5c0 .8.6 1.5 1.4 1.5 1.1 0 1.2.5.3 2.4-1.4 2.8-2.7 2.4-2.7-.8 0-1.2-.5-2.7-1.2-3.4-.9-.9-.8-1.2.5-1.2.9 0 1.7.7 1.7 1.5zm3.5-.5c.3.5.1 1-.4 1-.6 0-1.1-.5-1.1-1 0-.6.2-1 .4-1 .3 0 .8.4 1.1 1zm-240.3 15.8c-2 3.3-7.7 8.5-10.7 9.7-3.3 1.3-5.5 1.5-5.5.5 0-.6 1.1-1 2.5-1s2.3-.5 2.1-1.3c-.1-.6-.1-.9.1-.5.3.4 1.8.1 3.5-.8 2.3-1.2 2.9-2.1 2.6-3.9-.4-1.8-.1-2.2 1-1.7 1.1.4 1.4.1.9-1.1-.3-.9-.2-1.7.3-1.7.6 0 1 .6 1 1.2 0 .7.5.5 1.1-.5.5-.9 1.4-1.7 1.9-1.7s.2 1.3-.8 2.8zm-8.6 5.9c-1 1-1.9-.5-1-1.8.6-1.1.8-1.1 1.2 0 .2.7.1 1.5-.2 1.8zm-12.3 3.7c-1.7.6-2.8 1.6-2.6 2.3.7 1.9-1.4 1.6-2.1-.3-.4-.9-.5-1.8-.4-1.8 1.9-1.1 6.5-2.1 7.2-1.8.6.3-.4 1-2.1 1.6zm6.9 2c.6-.4.9-.1.6.7-.2.8-1.8 1.5-3.4 1.7-2.4.2-3-.1-3-1.6 0-1.7.4-1.8 2.4-1.1 1.3.5 2.8.6 3.4.3zm99.3 27.6c.3.5.2 1-.4 1-.5 0-1.3-.5-1.6-1-.3-.6-.2-1 .4-1 .5 0 1.3.4 1.6 1zm-20.6 44.2c1.1 2.3 1.9 4.4 1.6 4.6-.3.4-4.5-7.2-4.5-8.3 0-1.4 1-.1 2.9 3.7zm6.2 9.5c1.3 1.6 1.2 1.7-.3.4-1.7-1.3-2.2-2.1-1.4-2.1.2 0 1 .8 1.7 1.7zm5.9 4.3c.6 1.1.8 2 .6 2-.3 0-1-.9-1.6-2-.6-1.1-.8-2-.6-2 .3 0 1 .9 1.6 2zM274.2 162.5c1.1 2.5 2.3 3.2 3.1 1.7.3-.4-.6-1.5-1.9-2.5l-2.4-1.8 1.2 2.6zM254 163.1c0 .5.5.7 1 .4.6-.3 1-.8 1-1.1 0-.2-.4-.4-1-.4-.5 0-1 .5-1 1.1zM317.5 168c.3.5.8 1 1.1 1 .2 0 .4-.5.4-1 0-.6-.5-1-1.1-1-.5 0-.7.4-.4 1zM309 174c0 .5.5 1 1.1 1 .5 0 .7-.5.4-1-.3-.6-.8-1-1.1-1-.2 0-.4.4-.4 1z"/><path d="M182 178.9c0 1 3 2.4 3.7 1.7.3-.3.2-.9-.2-1.5-.8-1.3-3.5-1.5-3.5-.2zM344.9 180.7c-.1.5-.1 1.1 0 1.5 0 .4-1.1.5-2.4.2-2.8-.5-3.5 1.8-1.1 4.1 1.7 1.7 9 .9 7.9-.9-.4-.6-.8-1.6-.9-2.1 0-.6-.2-1.6-.2-2.3-.2-1.3-3.1-1.7-3.3-.5zM252.5 182c.3.5.8 1 1.1 1 .2 0 .4-.5.4-1 0-.6-.5-1-1.1-1-.5 0-.7.4-.4 1zM250 183c0 .5.5 1 1.1 1 .5 0 .7-.5.4-1-.3-.6-.8-1-1.1-1-.2 0-.4.4-.4 1zM588.9 186c-3.1 2.6-1.5 2.6 1.8 0 1.4-1.1 2.1-2 1.5-2-.5 0-2 .9-3.3 2zM357.3 185.6c-.7.3-.9 1.2-.6 2 .4 1 0 1.5-.8 1.4-3.4-.5-5 .2-6.4 3-1.2 2.3-1.3 3.5-.5 4.8 1.1 1.6 1.1 1.6.6-.1-.4-1.3.1-1.7 2.4-1.7 2.4 0 3-.4 3-2 0-1.3 1-2.5 2.8-3.3 1.8-.8 2.6-1.8 2.4-3-.4-1.7-.8-1.9-2.9-1.1zM224 189.9c-1 1.9 1.1 5.3 2.6 4.3.5-.4 1-1.9 1-3.3.2-2.9-2.2-3.6-3.6-1zM340 192c0 .5.5 1 1.1 1 .5 0 .7-.5.4-1-.3-.6-.8-1-1.1-1-.2 0-.4.4-.4 1zM263 201c0 .5.4 1 .9 1 .6 0 1.3-.5 1.6-1 .3-.6-.1-1-.9-1-.9 0-1.6.4-1.6 1zM153.6 202.5c-.3.8-.1 1.5.4 1.5.6 0 1-.7 1-1.5s-.2-1.5-.4-1.5-.6.7-1 1.5zM149.5 204.1c-.4.6-1.4.8-2.1.5-.8-.3-3.4.3-5.7 1.4-2.3 1.1-6 2.3-8.2 2.8-3.3.7-4 1.2-4 3.2 0 2.4.9 3 7.2 4.6.7.2 1.5 1.9 1.9 3.9.5 2.8 1.1 3.6 2.4 3.2 1.3-.3 1.7.2 1.7 2.6 0 1.7.5 3.3 1.1 3.5.7.2 1.2 1.2 1.2 2.2 0 1 .5 2.2 1 2.5.6.3 1 1.9 1 3.5 0 4.2 2.9 11 4.7 11 1.3 0 1.3-.4-.2-2.7-1.3-1.9-1.4-2.5-.4-2.1.8.4 2.2.9 3.2 1.3s1.7.3 1.7-.5c0-.6-.4-.9-.9-.6-.5.3-2-.3-3.2-1.4-1.3-1.1-2-1.9-1.6-2 .5 0 .1-.7-.8-1.6-.9-.9-1.4-2.3-1.1-3 .3-.8.1-1.4-.4-1.4-.6 0-1-.5-1-1.1 0-2.2 2.5-.2 2.6 2.1.1 1.3.9 2.9 1.8 3.6 1 .7 1.7 1.6 1.6 2-.1.5.4 1 1.1 1.3.8.2 1-.4.5-2.4-.4-1.5-1-4.1-1.3-5.9-.3-1.7-1-3.7-1.6-4.3-.5-.7-.6-2.4-.3-3.9.4-1.4.3-3.1-.2-3.7-.5-.7-1.2-2.3-1.4-3.7-.3-1.4-.9-3.3-1.3-4.2-.5-1.2-.2-2 1.1-2.5.9-.3 2.5-1.4 3.4-2.3 1.6-1.6 1.5-1.9-.6-4.3-1.4-1.6-2.5-2.3-2.9-1.6zM386.7 204.7c-.4.3-.7 1.1-.7 1.7 0 .6.5.5 1.2-.2.6-.6.9-1.4.7-1.7-.3-.3-.9-.2-1.2.2zM163.6 208c-.5 1.3-.4 2.5.4 6 0 .3.5-.2 1-1.2.6-1 .7-2.5.1-4-.7-1.7-1-1.9-1.5-.8zM382.8 210.2c-2.1 2.6-2.3 3.9-.4 3.2 1.4-.6 4-5.4 2.8-5.4-.4 0-1.5 1-2.4 2.2zM392 208.9c0 .5.7 1.1 1.5 1.5.9.3 1.5 0 1.5-.9 0-.8-.7-1.5-1.5-1.5s-1.5.4-1.5.9zM295.5 210c-.3.5-.1 1 .4 1 .6 0 1.1-.5 1.1-1 0-.6-.2-1-.4-1-.3 0-.8.4-1.1 1zM331.3 211.6c-1 2.2-.9 2.5.4 2.2.9-.2 1.7-1.3 1.8-2.6.2-2.9-.7-2.8-2.2.4zM166.6 211.6c-1 2.6-.6 3 .9 1 1.1-1.5 1.5-1.6 1.5-.5 0 .8-.6 2.1-1.2 2.9-.7.8-.3.6.9-.4 2.2-1.8 2.1-4.6-.2-4.6-.7 0-1.6.7-1.9 1.6zM53 213.6c.8.8 2.3 2 3.4 2.6 1.6.8 1.5.4-.6-1.6-3-2.8-4.8-3.5-2.8-1zM361.5 213.1c-1.1 1.7-.2 1.8 1.9.3 1.7-1.2 1.7-1.4.4-1.4-.9 0-2 .5-2.3 1.1zM416 212.8c0 .4.9.8 2 .8s2-.4 2-.8-.9-.8-2-.8-2 .4-2 .8zM411.8 214.7c.6.2 1.8.2 2.5 0 .6-.3.1-.5-1.3-.5-1.4 0-1.9.2-1.2.5zM330.5 216c-.3.6.1.7.9.4 1.8-.7 2.1-1.4.7-1.4-.6 0-1.3.4-1.6 1zM377.5 217c-2.6 2.9-1.5 3.2 1.5.4 1.3-1.3 2-2.4 1.4-2.4-.6 0-1.9.9-2.9 2zM372.6 218.2c-.9 1.2-1.6 2.7-1.6 3.3 0 .5-1.1 2.3-2.5 3.9-2.9 3.4-3 3.7-1 3 .8-.4 1.5-1 1.5-1.5s.5-.9 1-.9c.6 0 1.1 2.4 1.1 5.2l.2 5.3.9-5.5c.5-3 .9-6.8.9-8.4 0-1.6.4-3.7 1-4.7 1.4-2.6.4-2.4-1.5.3zM94.2 222.4c.7.8 1.5 1.2 1.7 1.1.5-.6-1-2.5-2-2.5-.5 0-.4.6.3 1.4zM434 221.9c0 .5.5 1.3 1 1.6.6.3 1 .2 1-.4 0-.5-.4-1.3-1-1.6-.5-.3-1-.2-1 .4zM93.1 226.8c-.6 1.2-1.1 2.7-1.1 3.4.1.7.8 0 1.6-1.5.9-1.6 1.3-3.1 1.1-3.4-.3-.2-1 .4-1.6 1.5zM416 227c0 .5.5 1 1 1 .6 0 1-.5 1-1 0-.6-.4-1-1-1-.5 0-1 .4-1 1z"/><path d="M154 228.1c0 .5.5.7 1 .4.6-.3 1-.8 1-1.1 0-.2-.4-.4-1-.4-.5 0-1 .5-1 1.1zM72 236.2c-1.9.6-3 1.2-2.4 1.5.7.2 2.7-.3 4.5-1.1 3.9-1.7 2.9-1.9-2.1-.4zM445 239.8c0 1.4.6 2.2 1.6 2.2 1.4 0 1.5-.3.3-1.8-.7-.9-1.5-1.9-1.6-2.1-.2-.2-.3.5-.3 1.7zM373 240.4c0 .8.7 1.6 1.5 2 .9.3 1.5 0 1.5-.8s-.7-1.6-1.5-2c-.9-.3-1.5 0-1.5.8zM389 243.4c0 .9.5 1.6 1 1.6.6 0 1-.4 1-.9 0-.6-.4-1.3-1-1.6-.5-.3-1 .1-1 .9zM445 244.4c0 .9.5 1.6 1 1.6.6 0 1-.4 1-.9 0-.6-.4-1.3-1-1.6-.5-.3-1 .1-1 .9zM402.5 246.4c-1.9 1.7-2.3 2.4-1.2 2.2 1.8-.2 6.4-4.6 4.9-4.6-.5 0-2.2 1.1-3.7 2.4zM415.8 251.6c-.7 1.6-1.7 3.3-2.3 3.7-.6.5-.4.7.5.4.8-.2 2.3 0 3.2.5 2.5 1.2 3.7-3.7 1.5-5.9-1.5-1.5-1.7-1.4-2.9 1.3zM231.2 251.4c.7.8 1.5 1.2 1.7 1.1.5-.6-1-2.5-2-2.5-.5 0-.4.6.3 1.4zM238.8 250.7c.7.3 1.6.2 1.9-.1.4-.3-.2-.6-1.3-.5-1.1 0-1.4.3-.6.6zM252.8 250.7c.7.3 1.6.2 1.9-.1.4-.3-.2-.6-1.3-.5-1.1 0-1.4.3-.6.6zM269.7 251.4c-.4 1-.5 2.1-.2 2.4.9.9 1.7-.6 1.3-2.5-.3-1.7-.4-1.7-1.1.1zM404.6 250.8c-.2.4-.1 1.4.3 2.1.6.9 1 .7 1.4-.8.5-2-.7-2.9-1.7-1.3zM291.1 252.7c-.9 1-1 1.8-.3 2.5s1.2.3 1.7-1.2c.9-2.7.4-3.2-1.4-1.3zM448 252c0 .5.5 1 1.1 1 .5 0 .7-.5.4-1-.3-.6-.8-1-1.1-1-.2 0-.4.4-.4 1zM474 252c0 .5.4 1 .9 1 .6 0 1.3-.5 1.6-1 .3-.6-.1-1-.9-1-.9 0-1.6.4-1.6 1zM235.5 253c-.3.6.1.7.9.4 1.8-.7 2.1-1.4.7-1.4-.6 0-1.3.4-1.6 1zM276.6 252.8c-.2.4.4.9 1.5.9 1 .1 1.9-.2 1.9-.8 0-1.1-2.7-1.2-3.4-.1zM449 255.5c0 .8.4 1.5 1 1.5.5 0 .7-.7.4-1.5-.4-.8-.8-1.5-1-1.5-.2 0-.4.7-.4 1.5zM417.9 262.3c-.5 5.6.1 6.4 2.4 3.7 1.4-1.6 1.4-2.1.3-3.3-.8-.7-1.6-2.2-1.8-3.3-.3-1-.6.3-.9 2.9zM464.5 259c.4.6 1.1.8 1.6.5 1.4-.9 1.1-1.5-.7-1.5-.8 0-1.2.5-.9 1zM423 262c-.9.6-1 1-.3 1 .6 0 1.5-.5 1.8-1 .8-1.2.4-1.2-1.5 0zM449.3 261.8c-.8.5-.9 1.3-.3 2.2.7 1.2 1 1.2 1.6-.3.8-2.1.3-2.9-1.3-1.9zM460 262.5c.7.9 1.5 1.3 1.7 1.1.7-.7-.7-2.6-1.9-2.6-.6 0-.6.6.2 1.5zM466 262.2c0 .7.5 2 1 2.8.8 1.1.9.9.8-1.3-.2-2.6-1.8-4-1.8-1.5zM452.1 267.4c-1 1.1-1 1.9-.1 3.3s1 1.4.7.2c-.3-.9 0-2.2.6-2.8.6-.6.8-1.3.5-1.6-.3-.3-1.1.1-1.7.9zM679.5 267c-9.1.8-19.9 2.9-19.1 3.7.3.3 2.9-.1 5.8-.8 6.3-1.7 42.9-1.8 45-.3 2.1 1.6 9.7 3.6 11 2.8.7-.5.8-.3.4.5-.5.8 0 1.4 1.3 1.8 1.2.3 2.1 1 2.1 1.5s.5.6 1 .3c.6-.4.8-1.1.5-1.6-1.4-2.2.9-.6 4.6 3.2 2.2 2.3 4.2 5.1 4.5 6.3 1.9 9.9 2.6 21.4 2.2 36.1-.4 13-.3 15.4.4 10 1.1-8.2.4-39.3-1.1-44.9-2.1-8.5-10.8-14.6-24.6-17.4-7.1-1.5-24.6-2.1-34-1.2zM446 269c0 1.1.7 2 1.5 2s1.5-.9 1.5-2-.7-2-1.5-2-1.5.9-1.5 2zM467.3 272.2c-1 3.7-1 4.5.4 5.5 1.3 1 1.8.9 2.8-.4 1.4-1.9.9-4.3-.8-4-.7.1-1.1-.9-.9-2.6.5-4-.2-3.3-1.5 1.5zM472 272.9c0 .5.9.7 2 .4 1.1-.3 2-.7 2-.9 0-.2-.9-.4-2-.4s-2 .4-2 .9zM457.3 273.7c.4.3-.1 1.2-1.1 1.9-1.6 1.3-1.6 1.3.1 1.4.9 0 1.7-.2 1.7-.4s.3-1.1.6-2c.4-1 .1-1.6-.7-1.6-.7 0-.9.3-.6.7z"/><path d="M684.3 273.7c-1.3.2-2.3.9-2.3 1.4 0 .5-.6.9-1.2.8-.7-.1-2-.1-2.7 0-2.7.2.3 2 4.1 2.5 2.9.4 3.6.2 3.2-.9-.4-1 .1-1.2 1.8-.8 2 .6 2.1.4 1-1-1.2-1.3-1-1.6 1.5-2l2.8-.4h-3c-1.6 0-4 .2-5.2.4zM697 274c0 .5.8.6 1.8.3 1.4-.6 1.5-.4.4.9s-.9 1.6 1.5 2.1c2.5.5 6.1-.8 7.4-2.7.4-.5 1.2-.5 1.8-.2.6.4 1.1.2 1.1-.3 0-.7-2.7-1.1-7-1.1-3.8 0-7 .4-7 1zm7.5 1c-.3.5-1 1-1.6 1-.5 0-.9-.5-.9-1 0-.6.7-1 1.6-1 .8 0 1.2.4.9 1zM448.5 275c.4.6 1.1.8 1.6.5 1.4-.9 1.1-1.5-.7-1.5-.8 0-1.2.5-.9 1zM713.5 275c2.8 1.2 3.7 1.2 3 0-.3-.6-1.6-1-2.8-.9-2.1 0-2.1.1-.2.9z"/><path d="M690.5 276c.3.5.8 1 1.1 1 .2 0 .4-.5.4-1 0-.6-.5-1-1.1-1-.5 0-.7.4-.4 1zM694 275.4c0 .2.7.7 1.6 1 .8.3 1.2.2.9-.4-.6-1-2.5-1.4-2.5-.6zM451.5 277c.3.5.8 1 1.1 1 .2 0 .4-.5.4-1 0-.6-.5-1-1.1-1-.5 0-.7.4-.4 1zM711.4 278.3c.3 1.1.2 1.6-.4 1.2-.6-.4-2.5-.2-4.3.4-3.7 1.2-7.3 1.9-13.7 2.7-2.5.3-4.7.7-4.9 1-.8.7 20.4-.1 21.7-.9.7-.5 1.2-.3 1.2.4 0 1 .3 1 1.2.1 1.4-1.4 9.5-1.6 10-.3.2.5 1.6.7 3.1.4l2.8-.6-3.1-1.8c-1.7-1.1-3.7-1.6-4.3-1.2-2 1.2-7.1.3-8.6-1.5-1.3-1.6-1.3-1.6-.7.1zM667.4 279.7c-1.1 1.2-1.3 1.8-.5 2.1.7.2 1.9-.4 2.7-1.4 1.3-1.8 1.3-1.7.5.7-.9 2.4-.8 2.5 3.5 2.5 3.1.1 4.4-.3 4.4-1.3 0-.9.8-1.1 2.6-.7 1.9.5 2.5.4 2-.5-.4-.6-1.1-.9-1.6-.6-.5.3-1.1.1-1.4-.4-.4-.5-1.7-.8-3.1-.6-1.4.1-2.5-.2-2.5-.6 0-1.6-4.8-1-6.6.8zM237 280.3c0 .7.9 1.3 2.1 1.4 1.7.2 1.8-.1.9-1.3-1.5-1.7-3-1.8-3-.1zM331.2 281c0 1.4.2 1.9.5 1.2.2-.6.2-1.8 0-2.5-.3-.6-.5-.1-.5 1.3zM431.5 280c-.3.5-.1 1 .4 1 .6 0 1.1-.5 1.1-1 0-.6-.2-1-.4-1-.3 0-.8.4-1.1 1zM490 281c-1.4 1.1-3.5 2-4.7 2-1.2 0-2.5.5-2.8 1.1-1.2 1.8.2 2.1 3.2.7 1.5-.8 3.6-1.3 4.6-1 1.9.4 4.9-2.6 4.1-4-.8-1.2-1.7-.9-4.4 1.2zM348 281.1c0 .5.5.7 1 .4.6-.3 1-.8 1-1.1 0-.2-.4-.4-1-.4-.5 0-1 .5-1 1.1zM218.5 283c-.3.5-.1 1 .4 1 .6 0 1.1-.5 1.1-1 0-.6-.2-1-.4-1-.3 0-.8.4-1.1 1zM433.5 283c-.3.5-.2 1 .4 1 .5 0 1.3-.5 1.6-1 .3-.6.2-1-.4-1-.5 0-1.3.4-1.6 1zM683 284c0 .5.5 1 1.1 1 .5 0 .7-.5.4-1-.3-.6-.8-1-1.1-1-.2 0-.4.4-.4 1zM387.1 285.4c-.7.8-.8 1.7-.3 2 .6.3 1.3-.1 1.6-1 .9-2.3.2-2.8-1.3-1zM497.3 285.5c-.3.9-.3 1.8-.1 2.1.3.3.8-.4 1.1-1.6.6-2.3-.1-2.7-1-.5zM334 286.4c0 .2.7.6 1.5 1 .8.3 1.5.1 1.5-.4 0-.6-.7-1-1.5-1s-1.5.2-1.5.4zM357.6 287.3c-1.2.9-1.6 1.9-1.1 2.7.5.9.4 1.1-.3.6-.7-.4-1.2-.3-1.2.3 0 .5-.3 1.7-.7 2.7-.5 1.3.2 1.1 2.2-.9 1.7-1.5 3.6-2.7 4.3-2.7.7 0 1.1-.4.7-.9-.3-.5 0-1.3.6-1.7.8-.4.9-.3.5.5-1 1.5 2.1 2.6 3.8 1.2.7-.6 1.6-.7 2.1-.3.4.4.6 0 .3-.8-.6-2-8.7-2.5-11.2-.7zM370.6 288.6c-1.5 1.4-2.6 2.7-2.3 3 .2.3 2-.9 3.8-2.5 4-3.7 2.6-4.1-1.5-.5zM377.8 286.7c.6.2 1.8.2 2.5 0 .6-.3.1-.5-1.3-.5-1.4 0-1.9.2-1.2.5zM446 287.2c-1.2.8-1.2.9.3.4 1.2-.4 2.1.1 2.7 1.7.6 1.5.9 1.7.9.6.1-2.5-2.1-4-3.9-2.7zM484.1 287.3c-1.5 1.9-.1 3 1.8 1.3.9-.8 2.5-1.6 3.6-1.9 1.4-.3 1-.5-1.1-.6-1.7 0-3.7.5-4.3 1.2zM557.6 288.1c-2 2.9-2.3 6.3-.2 3.7.7-1 1.5-1.5 1.8-1.2.9.9 1.7-2.2.8-3.5-.5-1-1.2-.7-2.4 1zM477.5 288.3c-1.7 1.3-1.7 1.4.3 1.9 1.6.5 1.9.2 1.5-1.1-.5-1.3-.2-1.2 1.8.4l2.4 2-1.9-2.3c-2.3-2.6-1.8-2.5-4.1-.9zM382.1 289.9c-.8.5-.9 1.1-.3 1.5.5.3 1.2-.1 1.6-.9.6-1.7.6-1.8-1.3-.6zM489.8 289.7c.7.3 1.6.2 1.9-.1.4-.3-.2-.6-1.3-.5-1.1 0-1.4.3-.6.6zM337.5 292c2 2.3 2.9 2.1 1.9-.4-.3-.9-1.3-1.6-2.2-1.6-1.3 0-1.2.3.3 2zM500 291c0 .5.5 1 1 1 .6 0 1-.5 1-1 0-.6-.4-1-1-1-.5 0-1 .4-1 1zM703.3 291.3c.1.5.6.8 1 .8.4-.1 3.6-.1 7.2-.1s6.5-.4 6.5-.9-3.4-.9-7.5-.8c-4.1.1-7.4.5-7.2 1zM389.4 292.5c-1.8 1.4-1.8 1.4.4.8 1.2-.3 2.2-.9 2.2-1.4 0-1.2-.3-1.1-2.6.6z"/><path d="M483.5 292.9c-.5 1.4-.7 1.4-1.5.1-.8-1.2-1-1.1-1.1.5-.1 1.1-.1 2.4 0 3 .1.5-.9-.3-2.1-1.8-1.7-2.1-3.1-2.8-4.8-2.5-2.3.3-2.5.8-2.8 6.1-.2 3.2-.7 5.5-1.2 5.2-.5-.3-.7-1.2-.3-2 .3-.8.1-1.5-.4-1.5-1.7 0-3.3 2.4-3.3 5.1 0 3 2.4 5.7 3.5 3.9 1.3-2.1 2.4-1 1.5 1.5-.9 2.3-.6 2.9 1.3 2.6 1.3-.2.7 1.7-.8 2.3-1.9.7-2 3.6-.1 3.6.8 0 1.6-.7 2-1.5.3-.8 1.5-1.5 2.6-1.5 1.2 0 2-.7 2-1.6 0-.9.5-1.3 1.3-1 .6.3 2 .9 3 1.2 2.2.8 2 6.5-.3 7.6-.9.4-.3.7 1.8.7 3.1.1 4.3-1.2 2.2-2.2-.6-.3-.5-.4.1-.3.7.1 1.6 1.2 2 2.5.6 1.4.5 2-.1 1.6-.6-.3-1-.1-1 .4 0 .9 2.7 1.6 5.1 1.3.4-.1.5.8.2 1.9-.5 1.8-.2 2 1.4 1.5 1.4-.4 2.3-.1 2.7.9.3.8 1.5 1.5 2.6 1.5 1.8 0 1.9.3 1 2-.6 1.2-.7 2-.1 2 .5 0 1.1-.6 1.4-1.3.2-.6.8-.9 1.2-.5.4.4.2 1.4-.5 2.3-.7.9-1 1.8-.6 2.2.3.3.6 0 .6-.7 0-1 .3-1.1 1.1-.3.6.6 1.8.9 2.5.6.8-.3 1.4-.1 1.4.5 0 .5.9 1.2 2.1 1.5 1.3.3 1.9 1.2 1.7 2.4-.2 1.2.2 1.7 1.4 1.5 1-.1 2.3.6 3 1.8.7 1.1 2 2 2.8 2 .9 0 2.1.5 2.7 1.1.6.6 2.1.9 3.4.6l2.4-.4-2.2-.8c-1.7-.5-1.9-1-1-2 .9-1 1.4-.9 2.3.3 1.5 2 4.7 2.5 4 .6-.3-.8-.1-1.4.5-1.4s1.3.9 1.6 2c.3 1.1 1.2 2 1.9 2 .8 0 1.4.7 1.4 1.5s.9 1.9 2 2.5c1.1.6 2 .7 2 .2 0-.5 1.4-.7 3-.4 1.8.3 3 0 3-.7 0-.6.8-1.9 1.8-2.9.9-.9 2.5-2.9 3.4-4.4.9-1.4 2.5-2.5 3.4-2.4 1 0 2.3-1 3-2.2.8-1.6 1.3-1.9 1.6-1.1.8 2.4 4.2-4.2 4.2-8.2.1-2.2.7-4.3 1.5-4.8.7-.5 1-1.4.6-2-.4-.7-.1-1.9.7-2.8 1.1-1.4 1.1-1.6-.2-.9-.8.4-.7.1.4-.8 1.2-1 1.7-2.2 1.3-3.8-.4-1.3-.7-2.8-.7-3.3-.1-.6-1-1.3-2-1.7-1.4-.5-1.8-1.5-1.5-4.2.2-2-.1-3.9-.6-4.2-.5-.3-.9-1.7-.9-3.2 0-2-.3-2.3-.9-1.3-.8 1.2-1.4 1.1-4.1-.6-2-1.3-2.8-2.3-2.1-2.7.6-.4 1.1-1.2 1.1-1.7s-1.3 0-2.9 1.2c-1.6 1.2-3.6 1.9-4.5 1.6-.9-.4-1.3-.1-1 .7.6 1.6-4 3.8-6.3 2.9-1.2-.5-1.4-.3-.8.7.5.8.4 1.1-.3.6-.5-.3-1.3 0-1.6.6-.2.7-.3-.7-.1-3.2.2-2.5.1-3.9-.2-3.3-.7 1.8-3.8 1.6-5.3-.2-1.1-1.3-1.6-1.3-4.6.5l-3.3 2.1-.4-2.3c-.3-1.7-.5-1.5-.6.9 0 1.7-.6 3.5-1.3 3.9-.8.5-.9.2-.5-1.1.6-1.4.3-1.7-1.8-1.3-2.2.5-2.5.2-2.5-2.3 0-1.9-.4-2.7-1.3-2.3-.8.3-1.1 1.7-.9 3.9.3 2.1 0 3.5-.7 3.5-.6 0-1.1-1.4-1.1-3.1 0-2.6-.3-2.9-1.4-2-1.1.9-1.5.9-1.9-.1-.3-.7-.6-.2-.6 1.1-.1 1.6-.5 2.1-1.6 1.7-.9-.3-1.5 0-1.5 1 0 1.1-.6 1.4-1.6 1-.9-.3-1.8-.6-2-.6-.9 0-.3-2.9.7-3.2.7-.2.5-.9-.5-1.7-1.4-1.2-1.6-.9-1.6 2.2 0 2-.4 3.9-1 4.2-.5.3-1-.1-1-.9 0-.9-.5-1.6-1.1-1.6-.6 0-.7-.5-.2-1.3 1.2-2 1.5-5.7.3-5.7-.5 0-1 .9-1 2s-.4 2-1 2c-.5 0-.9 2-.8 4.5.1 6.6-.9 6.6-1.7.1-.4-3.1-1.1-5.9-1.6-6.1-.4-.3-.6-1.1-.3-1.9.3-.9-.7-1.2-3.5-1.2-2.7 0-4.2.5-4.6 1.5zm-6.2 1.5c.6 1.6-.2 2.8-1.4 2-1.2-.7-1.1-3.4 0-3.4.5 0 1.1.6 1.4 1.4zm9.6 8.7c.1 2-.2 3.8-.5 4.1-.8.9-4.4-.3-4.4-1.4 0-.5.5-.6 1-.3 1.4.9 1.2-.8-.2-2.4-.9-1-1-1.2-.1-.7.8.4 1.4-.6 1.9-3.1.6-3.1.8-3.4 1.5-1.8.4 1.1.8 3.6.8 5.6zm-10.9-3.5c0 .8-.4 1.4-.9 1.4-1.1 0-2.2-2.6-1.4-3.4.9-.9 2.3.3 2.3 2zm58.5-.6c-.3.5-1 1-1.6 1-.5 0-.9-.5-.9-1 0-.6.7-1 1.6-1 .8 0 1.2.4.9 1zm-52.2 11.7c.4.3 1.3 0 2.2-.7 1.1-.9 1.5-.9 1.5-.1 0 1.8-2.9 2.5-5.4 1.3-1.8-.8-2.5-.6-3.4.7-.9 1.4-1.1 1.4-1.1.1-.1-.9.8-2.3 1.8-3.2 1.3-1.1 1.8-2.6 1.6-4.9-.5-6 1-5.6 1.6.4.4 3.2.9 6 1.2 6.4zm77.4-8.1c-.3.3-1.2.4-1.9.1-.8-.3-.5-.6.6-.6 1.1-.1 1.7.2 1.3.5zm-64.5 6.9c.3 1.4.2 2.5-.2 2.5s-1-1.1-1.2-2.5c-.3-1.4-.2-2.5.2-2.5s1 1.1 1.2 2.5zM727.8 292.7c.6.2 1.8.2 2.5 0 .6-.3.1-.5-1.3-.5-1.4 0-1.9.2-1.2.5zM334 294c0 .5.7 1 1.6 1 .8 0 1.2-.5.9-1-.3-.6-1-1-1.6-1-.5 0-.9.4-.9 1zM412 294c0 .5.5 1 1 1 .6 0 1-.5 1-1 0-.6-.4-1-1-1-.5 0-1 .4-1 1zM391.5 295c.4.6 1.1.8 1.6.5 1.4-.9 1.1-1.5-.7-1.5-.8 0-1.2.5-.9 1zM466 296.9c0 1.4.5 1.9 1.5 1.4 1.7-.6 1.5-2.5-.3-3.1-.7-.2-1.2.5-1.2 1.7zM724 296.3c0 .5-.9.7-2 .4-1.1-.3-2-.2-2 .3 0 .4 1.4 1 3.1 1.4 4.3.8 4.6.8 5.2-.8.4-.9-.3-1.6-1.9-1.9-1.3-.2-2.4 0-2.4.6zM715 297c1.9 1.3 3 1.3 3 0 0-.6-1-1-2.2-1-1.9 0-2 .2-.8 1zM457.5 298.9c-.6 1.1.2 8.8 1.1 10.2.9 1.5 3.4 1 2.8-.6-.4-.8.1-1.7 1-2.1 1.6-.6 2.3-2.5.9-2.3-2.2.4-3.2-.3-3.9-2.4-.5-1.2-.7-2.5-.6-3 .3-1-.6-.9-1.3.2zM454.7 300.5c-.4.8-.2 1.7.2 2 .5.3.7 1.5.5 2.8-.4 1.9-.3 2 .4.3s.5-6.6-.3-6.6c-.2 0-.5.7-.8 1.5zM177.5 304.1c-.3.4.1.9.9 1.2 1.4.6 2.6 0 2.6-1.3 0-.9-3-.9-3.5.1zM443 305.5c0 .8.5 1.5 1 1.5.6 0 1-.7 1-1.5s-.4-1.5-1-1.5c-.5 0-1 .7-1 1.5zM440.6 309.6c-.5 1.4-.4 1.5.9.4 1.7-1.4 1.9-2 .6-2-.5 0-1.2.7-1.5 1.6zM456.1 313.1c-1.4 3.9-1.4 3.9.1 3.9.6 0 .9-.3.5-.6-.3-.4 0-1.9.9-3.5.8-1.6 1-2.9.5-2.9s-1.4 1.4-2 3.1zM460.2 314.5c.1 2 .4 3.1.8 2.5.7-1.1.2-6-.6-6-.2 0-.3 1.6-.2 3.5zM608 338c.8.5 2 1 2.5 1 .6 0 .3-.5-.5-1s-1.9-1-2.5-1c-.5 0-.3.5.5 1zM737.3 342c0 2.5.2 3.5.4 2.2.2-1.2.2-3.2 0-4.5-.2-1.2-.4-.2-.4 2.3z"/><path d="M318.5 342c5.3 1.8 38.6 6.8 49.9 7.5l10.8.6 12.2 7.6c16.8 10.6 63.9 34.5 66.3 33.7 1.2-.4 1.4-.3.6.3-.8.6 1.2 2.4 6.5 5.6 4.2 2.7 14 8.9 21.7 13.9 14.6 9.4 33.5 19.8 44.2 24.1 3.4 1.4 11.5 3.7 18 5.2s14.5 3.4 17.8 4.2c3.3.9 7.9 1.9 10.2 2.3l4.2.7-1.8-2.3c-1-1.3-2.8-5.1-4.1-8.4-1.2-3.3-2.5-5.9-2.7-5.7-.5.5 2.3 8.1 4.2 11.8l1.4 2.6-4.2-.8c-7.3-1.4-9.7-2.1-9.7-3 0-.5-.6-.6-1.4-.3-1.6.6-16.4-3.3-18.2-4.7-.6-.5-1.9-.7-2.8-.3-.9.3-2.8.3-4.3-.1-2.2-.5-2.4-.8-1.2-1.6 1-.8.9-.9-.8-.4-3.5 1-23.8-9.3-27.1-13.8-.8-1.1-2.4-1.6-4-1.5-2 .2-2.9-.3-3.7-1.9-1.1-2.5-3.5-3.9-3.5-2 0 .8-.4.7-1-.3-.5-.9-.5-1.9.1-2.7 1.1-1.3.4-3.3-1.2-3.3-.5 0-.9.5-.9 1.1 0 .5.5.7 1.1.3.7-.4 1-.1.7.7-.8 2.3-3.8 2.2-6.2 0-1.2-1.2-2.6-1.8-3.1-1.4-.4.5-.5.2-.1-.4.5-.8.2-1.1-.7-.7-.8.3-2-.2-2.7-1.1-1.1-1.3-1-1.8.6-2.9 1.6-1.2 2-1.2 3.1.3.7.9 1.3 2.1 1.3 2.7 0 .6 1 1.9 2.1 3 2.1 1.9 2.2 1.9 1.5-.4-.6-1.6-.3-2.2.8-2.2.9 0 1.6-.5 1.6-1.1 0-.7 1-.9 2.5-.7 3.5.7 2.4-.3-4-3.7-3.2-1.6-6-3.5-6.2-4.2-.3-.7-1-1.3-1.5-1.3s-2.9-1.4-5.3-3.1c-2.7-1.9-4.8-2.8-5.7-2.3-.7.4-1 .4-.6-.1 1-1.1-2.9-3.8-4.2-3-.6.3-1 0-1-.8 0-1.4-6.4-3.9-7.4-2.9-.3.3-.6 1.4-.6 2.4 0 3.1-3 2-4.5-1.6-.8-1.9-2-3.6-2.7-3.9-.9-.4-.7-.6.3-.6.9-.1 2 .6 2.3 1.5.3.8 1.1 1.2 1.7.8.8-.5.9-.3.4.6-.6 1-.4 1.2.9.7 1-.4 2-.7 2.2-.7.2 0 .4-.6.4-1.4 0-.8-1.9-2.5-4.2-3.8-2.3-1.3-4.8-3.4-5.4-4.6-1.3-2.7-4.8-5.4-5.8-4.5-.3.3-.6.1-.6-.5 0-.7-.4-1.2-1-1.2-.5 0-.7.8-.4 1.7.5 1.7.4 1.6-.9 0-.8-1-1.7-1.7-2-1.5-.3.2-.9-.1-1.4-.5-.4-.5.1-.8 1.2-.7 6 .7 2.2-2.7-4.5-4-2.8-.5-6.3-1.9-7.7-3-1.4-1.1-3.3-2-4.2-2-1.4 0-1.4.2-.1 1 .8.5 1 1 .5 1-.6 0-2-.6-3.1-1.4-1.5-1.1-3-1.2-5.7-.6-2.1.4-3.9.4-4.3-.1-.3-.5-.2-.9.3-.9.4 0 0-.5-.9-1.1-1-.5-1.8-1.4-1.8-1.9 0-.4.8-.6 1.8-.4.9.2 4.4.6 7.7.8 3.3.2 11.9 1 19 1.7 7.2.7 23.8 1.3 37.1 1.3 18.8.1 24.5.4 25.7 1.5 1 .7 1.7.9 1.7.4 0-3.9 34.5 2.1 39.7 6.9 6.4 5.9 23.3 28.7 23.3 31.4 0 .7.6 1.4 1.3 1.7 1 .4 1.6 3.8 2 11.9.7 10.7 2.2 19.6 3.3 18.5.3-.3.1-2.2-.5-4.4-.6-2.1-1.1-8.1-1.1-13.3 0-9.1-.2-9.8-3.5-15.3-4.7-7.9-20.4-28.6-22.7-30-6.9-4.4 7.8.2 15.8 4.8 2.3 1.4 6.1 4.8 8.5 7.7 23 27.9 54.7 58.9 71.9 70.3 7.7 5.1 23.2 11.3 30.4 12.1l5.3.6 6.9-5.9c7.8-6.8 24.3-26.7 30.6-36.9 4.7-7.7 11.8-23 11.8-25.5 0-.9.9-3.7 2-6.1 3.2-7.4 8.7-27.8 9.3-34.8.5-5.6.5-5.9-.3-2-3.3 16.8-6.1 26.7-10.2 36.2-1.5 3.7-2.8 7.4-2.8 8.3 0 3.3-12.4 26.6-17.7 33.2-3 3.7-6.6 8.4-8 10.3-3.3 4.3-21.1 22-22.2 22-2.7 0-12.1-2.4-12.1-3.1 0-.5-.9-.9-1.9-.9-3 0-5.2-1.1-4.5-2.2.4-.6-.2-.7-1.7-.3-2.1.7-2.2.6-1.1-.7 1-1.3 1-1.9-.3-3.1-.8-.9-1.5-2-1.5-2.6 0-.6-.6-1.1-1.3-1.1-.7 0-3.3-1.8-5.7-4-2.4-2.2-4.8-4-5.3-4s-.3-.8.4-1.7c1.2-1.5 1.2-1.6-.3-1.1-.9.4-2.3-.1-3.2-1.1-1.6-1.7-1.5-1.8 1.1-1.5 3.1.3 7.3 2.4 7.3 3.6 0 .5 1.2 1.3 2.6 1.8 1.9.8 2.4 1.5 1.9 2.9-.4 1.5-.2 1.8 1.2 1.5 1-.3 2.7.3 3.8 1.4 1.6 1.5 2.4 1.7 4 .8 1.1-.6 2.2-1.2 2.4-1.3.1-.1-.4-1.2-1.3-2.5-.9-1.2-1.6-1.8-1.6-1.3 0 .6-.8-.3-1.9-1.8-1.5-2.3-2-2.5-2.4-1.3-.4 1-.1 1.6.8 1.6.8 0 1.5.5 1.5 1.1 0 2-3.5.4-3.8-1.9-.2-1.2-1.6-2.9-3.3-3.7-1.6-.9-2.9-2-2.9-2.5 0-.6-1.2-.8-2.7-.5-1.5.2-3 .1-3.3-.3-1.4-1.9-11-9.3-11-8.4 0 .5 2.1 2.8 4.7 5.1 2.6 2.2 4.4 4.4 4 4.8-.5.4-1.8-.4-3-1.8s-3.5-3.6-5.2-4.9l-3-2.5 2.5 3c1.4 1.6 3.2 3.6 4.1 4.5.9.8 1.4 2.1 1.1 2.8-.2.7.6 2.2 1.9 3.2 1.2 1.1 1.9 2 1.5 2-.7 0-10.3-7.8-15.3-12.4-1.6-1.5-3-2.1-3.2-1.5-.2.6.1 1.4.7 1.8.6.4.7 1.2.3 1.9-.6 1-1.6.4-3.9-2.2-1.7-2-3.7-3.6-4.3-3.6-1.6 0-27.9-26.7-36.4-36.9-12.3-14.8-16.8-18.7-22.1-19.5-2.6-.3-5.2-1-5.8-1.5-1.6-1.3-7.4-2.8-23.6-6.2-14.6-3-22.5-3.3-56.5-2.5-5.8.1-25-1.3-39.5-2.9-6.9-.7-17.9-1.6-24.5-2-6.6-.4-16.7-1.3-22.5-2.1-5.8-.7-13.1-1.4-16.4-1.4-3.2 0-8.6-.5-12-1-12.1-2-30.2-5-33.6-5.5-3.5-.5-3.5-.5-.5.5zM420 361.5c.7.8.8 1.5.2 1.5-.5 0-1.5-.7-2.2-1.5-.7-.8-.8-1.5-.2-1.5.5 0 1.5.7 2.2 1.5zm31 18.6c0 .6-.4.7-1 .4-.5-.3-1-1.1-1-1.6 0-.6.5-.7 1-.4.6.3 1 1.1 1 1.6zm-5.7 2c-.8.8-1.6.8-3 0-1.6-.9-1.4-1 1.2-1.1 2.1 0 2.6.3 1.8 1.1zm4.7 2.9c0 .5-.5 1-1.1 1-.5 0-.7-.5-.4-1 .3-.6.8-1 1.1-1 .2 0 .4.4.4 1zm24.6 9.7c1.3-.2 2.1 0 1.8.4-.3.5-1.4.9-2.5.9-1 0-1.9.5-1.9 1.2 0 .6-.9.3-2-.7-2.6-2.4-2.6-3.9.1-2.4 1.2.6 3.2.9 4.5.6zm2.7 3.9c-.2.5-1.4.9-2.7 1-1.6.1-2.3-.3-1.9-1.2.5-1.5 5-1.3 4.6.2zm.9 4.4c1.8 1.1 2.7 2 2 2-.8 0-2.5-.9-3.9-2-3.3-2.6-2.3-2.6 1.9 0zm170 45.8c1.6.7 1.6.9-.5 2.1-1.2.7-1.9 1-1.5.6.4-.5.3-1.4-.3-2.2-1.2-1.4-.4-1.6 2.3-.5z"/><path d="M635 348c2 1.3 3.3 1.3 2.5 0-.3-.6-1.4-1-2.3-1-1.5 0-1.5.2-.2 1zM673 348.4c0 .2.9.6 2 .9 1.1.3 1.8.1 1.4-.4-.5-.9-3.4-1.3-3.4-.5zM679 350.6c0 .2.9.8 2 1.4 1.1.6 2 .7 2 .2 0-.6-.9-1.2-2-1.5-1.1-.3-2-.3-2-.1zM692 370.5c0 .8.7 1.5 1.6 1.5 1.4 0 1.4-.3.4-1.5-.7-.8-1.4-1.5-1.6-1.5-.2 0-.4.7-.4 1.5zM575 378c.6 1.1 1.3 2 1.6 2 .2 0 0-.9-.6-2s-1.3-2-1.6-2c-.2 0 0 .9.6 2zM578.5 383c.3.5.8 1 1.1 1 .2 0 .4-.5.4-1 0-.6-.5-1-1.1-1-.5 0-.7.4-.4 1zM702.5 384c.6 1 .4 1.2-1 .6-1.5-.5-1.6-.4-.5.9 1 1.2 1 1.5-.1 1.6-.8.1-.3.4 1.1.8 2.9.9 6.2.3 5.5-1-.3-.4-1.2-.6-2-.2-.9.3-1.5-.1-1.5-1s-.5-1.9-1.2-2.3c-.7-.5-.8-.3-.3.6zM684.5 386c.3.5.8 1 1.1 1 .2 0 .4-.5.4-1 0-.6-.5-1-1.1-1-.5 0-.7.4-.4 1zM269 388.7c0 2.1 18 19.9 29.4 29.1 12.4 10 24.3 17.9 25.3 16.8.3-.3-.3-.9-1.3-1.3-5.5-2-35.5-25.2-41.4-32-8.7-10-12-13.4-12-12.6zM501.7 390.5c.3.9.8 1.3 1.1 1.1.3-.3 1.1-.1 1.9.5.7.6 1.3.8 1.3.4 0-.9-3.1-3.4-4.2-3.5-.4 0-.5.7-.1 1.5zM712 389.9c0 .5-.8 1.2-1.7 1.4-1.5.4-1.5.5-.2.6.9 0 2.2-.6 2.9-1.4.9-1 .9-1.5.1-1.5-.6 0-1.1.4-1.1.9zM338 393.3c0 .4 2.5 8.3 5.6 17.5 8 24.2 10.8 28.4 25.9 40 12.2 9.2 29.7 24.3 29 25-.2.3-4-1.6-8.3-4.1-7.5-4.3-15.2-8-15.2-7.2 0 .2 5.2 3.1 11.5 6.4 6.3 3.4 14.7 8.8 18.7 12 9.4 7.5 27.2 25.1 32.3 31.8 2.2 2.9 4.4 5.3 4.9 5.3.6 0-.4-1.5-2-3.2-1.6-1.8-5.6-6.8-8.8-11-6.2-8.4-18.1-20.4-26.1-26.4-2.7-2-8.8-7.1-13.5-11.4-9.1-8.2-25.2-20.9-28.7-22.9-1.2-.6-4.3-4-6.8-7.5-4.2-5.9-9.3-18.2-15-36.6-1.7-5.4-3.4-9.3-3.5-7.7zm74.2 92.6c2.1 1.8 3.7 3.6 3.4 3.9-.3.3-2.7-1.5-5.3-3.9-2.7-2.4-6.4-5.7-8.3-7.2-2.6-2.1-2.2-2 1.4.5 2.6 1.8 6.6 4.8 8.8 6.7zm13.8 13.8c0 .8-.9 0-5-4.5l-4.5-4.7 4.8 4.5c2.6 2.4 4.7 4.5 4.7 4.7zM510.4 396.4c3.5 3.3 7.6 5.2 7.6 3.5 0-.5-.7-.9-1.5-.9-.7 0-1.8-.6-2.2-1.3-.9-1.5-5.4-4.7-6.5-4.7-.5 0 .7 1.5 2.6 3.4zM500.7 405.2c.7.8 1 1.7.7 2.1-.3.3.3.3 1.4 0 1.4-.3 2.2.1 2.7 1.6.3 1.2 1.1 1.9 1.6 1.5.5-.3.6-1 .3-1.6-.4-.7-.2-.8.4-.4.7.4 1.2 1.6 1.2 2.7 0 2.2 3 2.4 3.7.3.4-1.2-6.6-5.6-11-7-1.8-.6-2-.5-1 .8zM512 411c0 .5-.2 1-.4 1-.3 0-.8-.5-1.1-1-.3-.6-.1-1 .4-1 .6 0 1.1.4 1.1 1zM483.5 406c-.3.5-.2 1 .4 1 .5 0 1.3-.5 1.6-1 .3-.6.2-1-.4-1-.5 0-1.3.4-1.6 1zM558.2 409.2c.2.6 1 1.4 1.6 1.6.7.2 1-.2.6-1.2-.7-1.8-2.8-2.2-2.2-.4zM502 409.8c0 1.2 1.9 2.6 2.6 1.9.2-.2-.2-1-1.1-1.7-.9-.8-1.5-.8-1.5-.2zM515 412c0 .5.5 1 1.1 1 .5 0 .7-.5.4-1-.3-.6-.8-1-1.1-1-.2 0-.4.4-.4 1zM605 412.6c0 .2.9.8 2 1.4 1.1.6 2 .7 2 .2 0-.6-.9-1.2-2-1.5-1.1-.3-2-.3-2-.1zM612.1 420.1c-1.1 1.9-1.1 2.1.3 1.6.8-.3 2.3.1 3.1 1 2.1 2 2.7 1.3.9-1.1-.8-1.1-1.4-1.6-1.5-1 0 .5-.4.1-.7-.8-.7-1.6-.8-1.6-2.1.3zM509.7 420.1c.7.7 1.5 1 1.8.7.3-.3-.2-.9-1.2-1.2-1.4-.6-1.5-.5-.6.5zM647.5 421c-.9 1.5 4.7 3.9 7 2.9 1.8-.7 1.7-.8-.6-.8-1.5-.1-2.9-.8-3.3-1.6-.6-1.7-2.2-2-3.1-.5zM657 424.5c0 .8.5 1.5 1 1.5.6 0 1-.7 1-1.5s-.4-1.5-1-1.5c-.5 0-1 .7-1 1.5zM525 428c-.9.6-1 1-.3 1 .6 0 1.5-.5 1.8-1 .8-1.2.4-1.2-1.5 0zM677.2 428c.4 1.5 9.9 7.2 10.7 6.4.9-.8-3.5-4.1-6.4-4.8-1.6-.4-3.4-1.3-3.8-1.9-.6-.8-.7-.7-.5.3zM673.8 428.7c.7.3 1.6.2 1.9-.1.4-.3-.2-.6-1.3-.5-1.1 0-1.4.3-.6.6zM663.2 430.4c.7.8 1.6 1.2 2.1.9 1.1-.7-.2-2.3-1.9-2.3-1.2 0-1.2.2-.2 1.4zM655 431.4c0 .7 4.5 4.8 8.2 7.4 1.5 1.1 1.7 1.1 1.2-.3-.3-.8-1-1.5-1.4-1.5-.5 0-1.5-.6-2.2-1.3-3.7-3.4-5.8-4.9-5.8-4.3zM661 432.4c0 .2.7.9 1.5 1.6 1.3 1.1 1.4 1 .9-.4-.5-1.4-2.4-2.3-2.4-1.2zM538.5 435c-.3.5-.1 1 .4 1 .6 0 1.1-.5 1.1-1 0-.6-.2-1-.4-1-.3 0-.8.4-1.1 1zM665.5 436c.3.5.8 1 1.1 1 .2 0 .4-.5.4-1 0-.6-.5-1-1.1-1-.5 0-.7.4-.4 1zM694.6 435.9c-.4.7-.5 1.5-.2 1.8.9.9 1.9-.4 1.4-1.8-.4-1.1-.6-1.1-1.2 0zM674.9 438.7c-1.3 1.6-1.2 1.7.4.4 1.6-1.3 2.1-2.1 1.3-2.1-.2 0-1 .8-1.7 1.7zM680.7 438.1c.7.7 1.5 1 1.8.7.3-.3-.2-.9-1.2-1.2-1.4-.6-1.5-.5-.6.5z"/><path d="M672 440.6c0 1.1 4.3 3.4 6.3 3.4.7 0 2-.7 3-1.4 1.7-1.3 1.6-1.4-.2-1.9-1.2-.3-1.9 0-1.8.6.1.6-.6 1.3-1.7 1.5-1.3.3-1.6 0-1.1-.9.6-.8.4-1.1-.7-.6-.9.3-2.1 0-2.7-.6-.7-.7-1.1-.7-1.1-.1zM670.5 444c.3.5 1 1 1.6 1 .5 0 .9-.5.9-1 0-.6-.7-1-1.6-1-.8 0-1.2.4-.9 1zM659 447c0 .5 1.4 1.5 3 2.4 3.9 1.9 3.9.6 0-1.6-1.7-.9-3-1.3-3-.8zM667 452.5c.7.9 1.5 1.3 1.7 1.1.7-.7-.7-2.6-1.9-2.6-.6 0-.6.6.2 1.5zM661.5 455c.3.5 1.1 1 1.6 1 .6 0 .7-.5.4-1-.3-.6-1.1-1-1.6-1-.6 0-.7.4-.4 1zM671.5 455c-.3.5.1 1 1 1s1.3-.5 1-1c-.3-.6-.8-1-1-1-.2 0-.7.4-1 1z"/></svg>